<svg xmlns="http://www.w3.org/2000/svg" xmlns:xlink="http://www.w3.org/1999/xlink" width="120" zoomAndPan="magnify" viewBox="0 0 90 30.000001" height="40" preserveAspectRatio="xMidYMid meet" version="1.0"><defs><g/><clipPath id="283f7732f1"><path d="M 2.902344 2.175781 L 87.152344 2.175781 L 87.152344 26.855469 L 2.902344 26.855469 Z M 2.902344 2.175781 " clip-rule="nonzero"/></clipPath><clipPath id="baee5099e5"><path d="M 14.515625 2.175781 L 75.484375 2.175781 C 78.5625 2.175781 81.519531 3.402344 83.695312 5.578125 C 85.875 7.757812 87.097656 10.710938 87.097656 13.789062 L 87.097656 15.242188 C 87.097656 18.320312 85.875 21.277344 83.695312 23.453125 C 81.519531 25.632812 78.5625 26.855469 75.484375 26.855469 L 14.515625 26.855469 C 11.4375 26.855469 8.480469 25.632812 6.304688 23.453125 C 4.125 21.277344 2.902344 18.320312 2.902344 15.242188 L 2.902344 13.789062 C 2.902344 10.710938 4.125 7.757812 6.304688 5.578125 C 8.480469 3.402344 11.4375 2.175781 14.515625 2.175781 Z M 14.515625 2.175781 " clip-rule="nonzero"/></clipPath><clipPath id="7d91accab2"><path d="M 0.902344 0.175781 L 85.152344 0.175781 L 85.152344 24.855469 L 0.902344 24.855469 Z M 0.902344 0.175781 " clip-rule="nonzero"/></clipPath><clipPath id="fa97e45fdf"><path d="M 12.515625 0.175781 L 73.484375 0.175781 C 76.5625 0.175781 79.519531 1.402344 81.695312 3.578125 C 83.875 5.757812 85.097656 8.710938 85.097656 11.789062 L 85.097656 13.242188 C 85.097656 16.320312 83.875 19.277344 81.695312 21.453125 C 79.519531 23.632812 76.5625 24.855469 73.484375 24.855469 L 12.515625 24.855469 C 9.4375 24.855469 6.480469 23.632812 4.304688 21.453125 C 2.125 19.277344 0.902344 16.320312 0.902344 13.242188 L 0.902344 11.789062 C 0.902344 8.710938 2.125 5.757812 4.304688 3.578125 C 6.480469 1.402344 9.4375 0.175781 12.515625 0.175781 Z M 12.515625 0.175781 " clip-rule="nonzero"/></clipPath><clipPath id="4917521dcb"><rect x="0" width="86" y="0" height="25"/></clipPath></defs><g clip-path="url(#283f7732f1)"><g clip-path="url(#baee5099e5)"><g transform="matrix(1, 0, 0, 1, 2, 2)"><g clip-path="url(#4917521dcb)"><g clip-path="url(#7d91accab2)"><g clip-path="url(#fa97e45fdf)"><path fill="#00bf63" d="M 0.902344 0.175781 L 85.058594 0.175781 L 85.058594 24.855469 L 0.902344 24.855469 Z M 0.902344 0.175781 " fill-opacity="1" fill-rule="nonzero"/></g></g></g></g></g></g><g fill="#ffffff" fill-opacity="1"><g transform="translate(7.791077, 18.930566)"><g><path d="M 7.1875 -4.015625 C 7.1875 -2.671875 6.910156 -1.640625 6.359375 -0.921875 C 5.804688 -0.210938 4.992188 0.140625 3.921875 0.140625 C 2.859375 0.140625 2.046875 -0.207031 1.484375 -0.90625 C 0.929688 -1.601562 0.648438 -2.609375 0.640625 -3.921875 L 0.640625 -5.703125 C 0.640625 -7.054688 0.921875 -8.082031 1.484375 -8.78125 C 2.046875 -9.488281 2.851562 -9.84375 3.90625 -9.84375 C 4.96875 -9.84375 5.773438 -9.492188 6.328125 -8.796875 C 6.890625 -8.097656 7.175781 -7.097656 7.1875 -5.796875 Z M 5.265625 -5.96875 C 5.265625 -6.78125 5.15625 -7.367188 4.9375 -7.734375 C 4.71875 -8.097656 4.375 -8.28125 3.90625 -8.28125 C 3.457031 -8.28125 3.125 -8.101562 2.90625 -7.75 C 2.6875 -7.40625 2.570312 -6.863281 2.5625 -6.125 L 2.5625 -3.765625 C 2.5625 -2.972656 2.664062 -2.382812 2.875 -2 C 3.09375 -1.613281 3.441406 -1.421875 3.921875 -1.421875 C 4.390625 -1.421875 4.726562 -1.601562 4.9375 -1.96875 C 5.144531 -2.34375 5.253906 -2.910156 5.265625 -3.671875 Z M 5.265625 -5.96875 "/></g></g></g><g fill="#ffffff" fill-opacity="1"><g transform="translate(15.624927, 18.930566)"><g><path d="M 0.640625 -7.84375 C 0.640625 -8.4375 0.832031 -8.914062 1.21875 -9.28125 C 1.601562 -9.65625 2.109375 -9.84375 2.734375 -9.84375 C 3.367188 -9.84375 3.878906 -9.660156 4.265625 -9.296875 C 4.648438 -8.929688 4.84375 -8.4375 4.84375 -7.8125 L 4.84375 -7.328125 C 4.84375 -6.722656 4.648438 -6.238281 4.265625 -5.875 C 3.878906 -5.507812 3.375 -5.328125 2.75 -5.328125 C 2.113281 -5.328125 1.601562 -5.507812 1.21875 -5.875 C 0.832031 -6.25 0.640625 -6.75 0.640625 -7.375 Z M 1.90625 -7.328125 C 1.90625 -7.054688 1.984375 -6.835938 2.140625 -6.671875 C 2.296875 -6.515625 2.5 -6.4375 2.75 -6.4375 C 3 -6.4375 3.195312 -6.519531 3.34375 -6.6875 C 3.488281 -6.851562 3.5625 -7.070312 3.5625 -7.34375 L 3.5625 -7.84375 C 3.5625 -8.101562 3.488281 -8.316406 3.34375 -8.484375 C 3.195312 -8.648438 2.992188 -8.734375 2.734375 -8.734375 C 2.484375 -8.734375 2.28125 -8.648438 2.125 -8.484375 C 1.976562 -8.328125 1.90625 -8.101562 1.90625 -7.8125 Z M 5.28125 -2.375 C 5.28125 -2.976562 5.472656 -3.460938 5.859375 -3.828125 C 6.253906 -4.191406 6.757812 -4.375 7.375 -4.375 C 8.007812 -4.375 8.519531 -4.191406 8.90625 -3.828125 C 9.300781 -3.472656 9.5 -2.976562 9.5 -2.34375 L 9.5 -1.859375 C 9.5 -1.265625 9.304688 -0.78125 8.921875 -0.40625 C 8.535156 -0.0390625 8.023438 0.140625 7.390625 0.140625 C 6.753906 0.140625 6.242188 -0.0390625 5.859375 -0.40625 C 5.472656 -0.78125 5.28125 -1.273438 5.28125 -1.890625 Z M 6.5625 -1.859375 C 6.5625 -1.617188 6.640625 -1.410156 6.796875 -1.234375 C 6.953125 -1.054688 7.148438 -0.96875 7.390625 -0.96875 C 7.929688 -0.96875 8.203125 -1.269531 8.203125 -1.875 L 8.203125 -2.375 C 8.203125 -2.644531 8.125 -2.859375 7.96875 -3.015625 C 7.820312 -3.179688 7.625 -3.265625 7.375 -3.265625 C 7.132812 -3.265625 6.9375 -3.179688 6.78125 -3.015625 C 6.632812 -2.859375 6.5625 -2.640625 6.5625 -2.359375 Z M 3.125 -0.734375 L 2.1875 -1.234375 L 6.921875 -8.828125 L 7.875 -8.3125 Z M 3.125 -0.734375 "/></g></g></g><g fill="#ffffff" fill-opacity="1"><g transform="translate(25.705592, 18.930566)"><g/></g></g><g fill="#ffffff" fill-opacity="1"><g transform="translate(29.105816, 18.930566)"><g><path d="M 0.4375 -3.65625 C 0.4375 -4.78125 0.6875 -5.675781 1.1875 -6.34375 C 1.695312 -7.007812 2.390625 -7.34375 3.265625 -7.34375 C 3.972656 -7.34375 4.550781 -7.082031 5 -6.5625 L 5 -10.25 L 6.9375 -10.25 L 6.9375 0 L 5.203125 0 L 5.109375 -0.765625 C 4.628906 -0.160156 4.007812 0.140625 3.25 0.140625 C 2.40625 0.140625 1.722656 -0.191406 1.203125 -0.859375 C 0.691406 -1.535156 0.4375 -2.46875 0.4375 -3.65625 Z M 2.359375 -3.515625 C 2.359375 -2.835938 2.476562 -2.316406 2.71875 -1.953125 C 2.957031 -1.597656 3.300781 -1.421875 3.75 -1.421875 C 4.34375 -1.421875 4.757812 -1.675781 5 -2.1875 L 5 -5.03125 C 4.757812 -5.53125 4.347656 -5.78125 3.765625 -5.78125 C 2.828125 -5.78125 2.359375 -5.023438 2.359375 -3.515625 Z M 2.359375 -3.515625 "/></g></g></g><g fill="#ffffff" fill-opacity="1"><g transform="translate(36.799657, 18.930566)"><g><path d="M 0.4375 -3.671875 C 0.4375 -4.390625 0.570312 -5.023438 0.84375 -5.578125 C 1.125 -6.140625 1.523438 -6.570312 2.046875 -6.875 C 2.566406 -7.1875 3.164062 -7.34375 3.84375 -7.34375 C 4.820312 -7.34375 5.617188 -7.046875 6.234375 -6.453125 C 6.847656 -5.859375 7.191406 -5.050781 7.265625 -4.03125 L 7.28125 -3.53125 C 7.28125 -2.425781 6.96875 -1.535156 6.34375 -0.859375 C 5.726562 -0.191406 4.898438 0.140625 3.859375 0.140625 C 2.816406 0.140625 1.984375 -0.191406 1.359375 -0.859375 C 0.742188 -1.523438 0.4375 -2.4375 0.4375 -3.59375 Z M 2.359375 -3.53125 C 2.359375 -2.84375 2.488281 -2.316406 2.75 -1.953125 C 3.007812 -1.597656 3.378906 -1.421875 3.859375 -1.421875 C 4.328125 -1.421875 4.691406 -1.597656 4.953125 -1.953125 C 5.210938 -2.316406 5.34375 -2.890625 5.34375 -3.671875 C 5.34375 -4.347656 5.210938 -4.867188 4.953125 -5.234375 C 4.691406 -5.597656 4.320312 -5.78125 3.84375 -5.78125 C 3.375 -5.78125 3.007812 -5.597656 2.75 -5.234375 C 2.488281 -4.867188 2.359375 -4.300781 2.359375 -3.53125 Z M 2.359375 -3.53125 "/></g></g></g><g fill="#ffffff" fill-opacity="1"><g transform="translate(44.520166, 18.930566)"><g><path d="M 7.234375 -3.546875 C 7.234375 -2.390625 6.988281 -1.484375 6.5 -0.828125 C 6.007812 -0.179688 5.320312 0.140625 4.4375 0.140625 C 3.65625 0.140625 3.03125 -0.160156 2.5625 -0.765625 L 2.46875 0 L 0.734375 0 L 0.734375 -10.25 L 2.671875 -10.25 L 2.671875 -6.5625 C 3.109375 -7.082031 3.691406 -7.34375 4.421875 -7.34375 C 5.296875 -7.34375 5.984375 -7.019531 6.484375 -6.375 C 6.984375 -5.726562 7.234375 -4.816406 7.234375 -3.640625 Z M 5.3125 -3.6875 C 5.3125 -4.414062 5.195312 -4.945312 4.96875 -5.28125 C 4.738281 -5.613281 4.394531 -5.78125 3.9375 -5.78125 C 3.320312 -5.78125 2.898438 -5.53125 2.671875 -5.03125 L 2.671875 -2.1875 C 2.898438 -1.675781 3.328125 -1.421875 3.953125 -1.421875 C 4.566406 -1.421875 4.972656 -1.726562 5.171875 -2.34375 C 5.265625 -2.632812 5.3125 -3.082031 5.3125 -3.6875 Z M 5.3125 -3.6875 "/></g></g></g><g fill="#ffffff" fill-opacity="1"><g transform="translate(52.207339, 18.930566)"><g><path d="M 4.921875 0 C 4.828125 -0.175781 4.765625 -0.390625 4.734375 -0.640625 C 4.265625 -0.117188 3.65625 0.140625 2.90625 0.140625 C 2.195312 0.140625 1.609375 -0.0625 1.140625 -0.46875 C 0.679688 -0.882812 0.453125 -1.40625 0.453125 -2.03125 C 0.453125 -2.789062 0.734375 -3.375 1.296875 -3.78125 C 1.867188 -4.195312 2.691406 -4.40625 3.765625 -4.40625 L 4.640625 -4.40625 L 4.640625 -4.828125 C 4.640625 -5.160156 4.554688 -5.425781 4.390625 -5.625 C 4.222656 -5.820312 3.953125 -5.921875 3.578125 -5.921875 C 3.253906 -5.921875 3 -5.84375 2.8125 -5.6875 C 2.632812 -5.53125 2.546875 -5.316406 2.546875 -5.046875 L 0.609375 -5.046875 C 0.609375 -5.460938 0.738281 -5.847656 1 -6.203125 C 1.257812 -6.554688 1.625 -6.832031 2.09375 -7.03125 C 2.5625 -7.238281 3.09375 -7.34375 3.6875 -7.34375 C 4.570312 -7.34375 5.273438 -7.117188 5.796875 -6.671875 C 6.316406 -6.234375 6.578125 -5.609375 6.578125 -4.796875 L 6.578125 -1.671875 C 6.585938 -0.984375 6.6875 -0.460938 6.875 -0.109375 L 6.875 0 Z M 3.328125 -1.34375 C 3.609375 -1.34375 3.867188 -1.40625 4.109375 -1.53125 C 4.347656 -1.65625 4.523438 -1.828125 4.640625 -2.046875 L 4.640625 -3.28125 L 3.921875 -3.28125 C 2.960938 -3.28125 2.453125 -2.945312 2.390625 -2.28125 L 2.375 -2.171875 C 2.375 -1.929688 2.457031 -1.734375 2.625 -1.578125 C 2.800781 -1.421875 3.035156 -1.34375 3.328125 -1.34375 Z M 6.234375 -8.375 L 6.234375 -8.296875 L 4.6875 -8.296875 L 3.671875 -9.265625 L 2.640625 -8.296875 L 1.125 -8.296875 L 1.125 -8.40625 L 3.109375 -10.25 L 4.234375 -10.25 Z M 6.234375 -8.375 "/></g></g></g><g fill="#ffffff" fill-opacity="1"><g transform="translate(59.527822, 18.930566)"><g><path d="M 2.515625 -7.21875 L 2.578125 -6.375 C 3.085938 -7.019531 3.773438 -7.34375 4.640625 -7.34375 C 5.410156 -7.34375 5.984375 -7.117188 6.359375 -6.671875 C 6.734375 -6.222656 6.921875 -5.550781 6.921875 -4.65625 L 6.921875 0 L 5 0 L 5 -4.609375 C 5 -5.023438 4.910156 -5.320312 4.734375 -5.5 C 4.554688 -5.6875 4.257812 -5.78125 3.84375 -5.78125 C 3.300781 -5.78125 2.894531 -5.550781 2.625 -5.09375 L 2.625 0 L 0.703125 0 L 0.703125 -7.21875 Z M 2.515625 -7.21875 "/></g></g></g><g fill="#ffffff" fill-opacity="1"><g transform="translate(67.174993, 18.930566)"><g><path d="M 0.4375 -3.65625 C 0.4375 -4.78125 0.6875 -5.675781 1.1875 -6.34375 C 1.695312 -7.007812 2.390625 -7.34375 3.265625 -7.34375 C 3.972656 -7.34375 4.550781 -7.082031 5 -6.5625 L 5 -10.25 L 6.9375 -10.25 L 6.9375 0 L 5.203125 0 L 5.109375 -0.765625 C 4.628906 -0.160156 4.007812 0.140625 3.25 0.140625 C 2.40625 0.140625 1.722656 -0.191406 1.203125 -0.859375 C 0.691406 -1.535156 0.4375 -2.46875 0.4375 -3.65625 Z M 2.359375 -3.515625 C 2.359375 -2.835938 2.476562 -2.316406 2.71875 -1.953125 C 2.957031 -1.597656 3.300781 -1.421875 3.75 -1.421875 C 4.34375 -1.421875 4.757812 -1.675781 5 -2.1875 L 5 -5.03125 C 4.757812 -5.53125 4.347656 -5.78125 3.765625 -5.78125 C 2.828125 -5.78125 2.359375 -5.023438 2.359375 -3.515625 Z M 2.359375 -3.515625 "/></g></g></g><g fill="#ffffff" fill-opacity="1"><g transform="translate(74.868834, 18.930566)"><g><path d="M 4.921875 0 C 4.828125 -0.175781 4.765625 -0.390625 4.734375 -0.640625 C 4.265625 -0.117188 3.65625 0.140625 2.90625 0.140625 C 2.195312 0.140625 1.609375 -0.0625 1.140625 -0.46875 C 0.679688 -0.882812 0.453125 -1.40625 0.453125 -2.03125 C 0.453125 -2.789062 0.734375 -3.375 1.296875 -3.78125 C 1.867188 -4.195312 2.691406 -4.40625 3.765625 -4.40625 L 4.640625 -4.40625 L 4.640625 -4.828125 C 4.640625 -5.160156 4.554688 -5.425781 4.390625 -5.625 C 4.222656 -5.820312 3.953125 -5.921875 3.578125 -5.921875 C 3.253906 -5.921875 3 -5.84375 2.8125 -5.6875 C 2.632812 -5.53125 2.546875 -5.316406 2.546875 -5.046875 L 0.609375 -5.046875 C 0.609375 -5.460938 0.738281 -5.847656 1 -6.203125 C 1.257812 -6.554688 1.625 -6.832031 2.09375 -7.03125 C 2.5625 -7.238281 3.09375 -7.34375 3.6875 -7.34375 C 4.570312 -7.34375 5.273438 -7.117188 5.796875 -6.671875 C 6.316406 -6.234375 6.578125 -5.609375 6.578125 -4.796875 L 6.578125 -1.671875 C 6.585938 -0.984375 6.6875 -0.460938 6.875 -0.109375 L 6.875 0 Z M 3.328125 -1.34375 C 3.609375 -1.34375 3.867188 -1.40625 4.109375 -1.53125 C 4.347656 -1.65625 4.523438 -1.828125 4.640625 -2.046875 L 4.640625 -3.28125 L 3.921875 -3.28125 C 2.960938 -3.28125 2.453125 -2.945312 2.390625 -2.28125 L 2.375 -2.171875 C 2.375 -1.929688 2.457031 -1.734375 2.625 -1.578125 C 2.800781 -1.421875 3.035156 -1.34375 3.328125 -1.34375 Z M 6 -10.171875 C 6 -9.578125 5.785156 -9.097656 5.359375 -8.734375 C 4.929688 -8.367188 4.375 -8.1875 3.6875 -8.1875 C 3 -8.1875 2.441406 -8.367188 2.015625 -8.734375 C 1.585938 -9.097656 1.375 -9.578125 1.375 -10.171875 L 2.75 -10.171875 C 2.75 -9.890625 2.832031 -9.671875 3 -9.515625 C 3.164062 -9.367188 3.394531 -9.296875 3.6875 -9.296875 C 3.976562 -9.296875 4.203125 -9.367188 4.359375 -9.515625 C 4.523438 -9.671875 4.609375 -9.890625 4.609375 -10.171875 Z M 6 -10.171875 "/></g></g></g></svg>