<svg xmlns="http://www.w3.org/2000/svg" xmlns:xlink="http://www.w3.org/1999/xlink" width="120" zoomAndPan="magnify" viewBox="0 0 90 30.000001" height="40" preserveAspectRatio="xMidYMid meet" version="1.0"><defs><g/><clipPath id="53ab1625da"><path d="M 15 5.8125 L 26 5.8125 L 26 16 L 15 16 Z M 15 5.8125 " clip-rule="nonzero"/></clipPath><clipPath id="839c813156"><path d="M 14.691406 13 L 26 13 L 26 21.78125 L 14.691406 21.78125 Z M 14.691406 13 " clip-rule="nonzero"/></clipPath><clipPath id="7667f1bbee"><rect x="0" width="43" y="0" height="19"/></clipPath><clipPath id="c0e614b55d"><path d="M 11.789062 1.703125 L 74.210938 1.703125 L 74.210938 27.105469 L 11.789062 27.105469 Z M 11.789062 1.703125 " clip-rule="nonzero"/></clipPath></defs><g clip-path="url(#53ab1625da)"><path fill="#00bf63" d="M 20.339844 5.8125 C 17.699219 5.8125 15.570312 7.941406 15.570312 10.585938 L 15.570312 15.886719 L 16.894531 15.886719 L 16.894531 10.585938 C 16.894531 8.675781 18.433594 7.136719 20.339844 7.136719 C 22.25 7.136719 23.785156 8.675781 23.785156 10.585938 L 23.785156 15.886719 L 25.113281 15.886719 L 25.113281 10.585938 C 25.113281 7.941406 22.984375 5.8125 20.339844 5.8125 Z M 20.339844 5.8125 " fill-opacity="1" fill-rule="evenodd"/></g><g clip-path="url(#839c813156)"><path fill="#00bf63" d="M 14.769531 13.101562 L 25.910156 13.101562 C 25.957031 13.101562 25.976562 13.125 25.976562 13.167969 L 25.976562 21.761719 C 25.976562 21.808594 25.957031 21.828125 25.910156 21.828125 L 14.769531 21.828125 C 14.726562 21.828125 14.703125 21.808594 14.703125 21.761719 L 14.703125 13.167969 C 14.703125 13.125 14.726562 13.101562 14.769531 13.101562 Z M 14.769531 13.101562 " fill-opacity="1" fill-rule="evenodd"/></g><g transform="matrix(1, 0, 0, 1, 30, 5)"><g clip-path="url(#7667f1bbee)"><g fill="#000000" fill-opacity="1"><g transform="translate(2.116868, 7.278424)"><g><path d="M 4.203125 -1.5625 C 4.148438 -1.039062 3.957031 -0.640625 3.625 -0.359375 C 3.300781 -0.078125 2.867188 0.0625 2.328125 0.0625 C 1.742188 0.0625 1.273438 -0.144531 0.921875 -0.5625 C 0.578125 -0.976562 0.40625 -1.535156 0.40625 -2.234375 L 0.40625 -2.71875 C 0.40625 -3.175781 0.484375 -3.578125 0.640625 -3.921875 C 0.804688 -4.273438 1.039062 -4.546875 1.34375 -4.734375 C 1.644531 -4.921875 1.992188 -5.015625 2.390625 -5.015625 C 2.921875 -5.015625 3.34375 -4.863281 3.65625 -4.5625 C 3.96875 -4.269531 4.148438 -3.867188 4.203125 -3.359375 L 3.546875 -3.359375 C 3.492188 -3.742188 3.375 -4.023438 3.1875 -4.203125 C 3 -4.378906 2.734375 -4.46875 2.390625 -4.46875 C 1.972656 -4.46875 1.644531 -4.3125 1.40625 -4 C 1.175781 -3.695312 1.0625 -3.265625 1.0625 -2.703125 L 1.0625 -2.21875 C 1.0625 -1.6875 1.171875 -1.257812 1.390625 -0.9375 C 1.617188 -0.625 1.929688 -0.46875 2.328125 -0.46875 C 2.691406 -0.46875 2.96875 -0.546875 3.15625 -0.703125 C 3.351562 -0.867188 3.484375 -1.15625 3.546875 -1.5625 Z M 4.203125 -1.5625 "/></g></g></g><g fill="#000000" fill-opacity="1"><g transform="translate(6.641675, 7.278424)"><g><path d="M 4.375 -2.3125 C 4.375 -1.820312 4.289062 -1.394531 4.125 -1.03125 C 3.96875 -0.675781 3.738281 -0.40625 3.4375 -0.21875 C 3.132812 -0.03125 2.785156 0.0625 2.390625 0.0625 C 2.003906 0.0625 1.660156 -0.03125 1.359375 -0.21875 C 1.054688 -0.40625 0.820312 -0.675781 0.65625 -1.03125 C 0.488281 -1.382812 0.40625 -1.796875 0.40625 -2.265625 L 0.40625 -2.625 C 0.40625 -3.101562 0.484375 -3.523438 0.640625 -3.890625 C 0.804688 -4.253906 1.039062 -4.53125 1.34375 -4.71875 C 1.644531 -4.914062 1.992188 -5.015625 2.390625 -5.015625 C 2.785156 -5.015625 3.132812 -4.914062 3.4375 -4.71875 C 3.738281 -4.53125 3.96875 -4.253906 4.125 -3.890625 C 4.289062 -3.523438 4.375 -3.101562 4.375 -2.625 Z M 3.734375 -2.625 C 3.734375 -3.21875 3.613281 -3.671875 3.375 -3.984375 C 3.132812 -4.296875 2.804688 -4.453125 2.390625 -4.453125 C 1.972656 -4.453125 1.644531 -4.296875 1.40625 -3.984375 C 1.175781 -3.671875 1.054688 -3.234375 1.046875 -2.671875 L 1.046875 -2.3125 C 1.046875 -1.738281 1.164062 -1.289062 1.40625 -0.96875 C 1.644531 -0.644531 1.972656 -0.484375 2.390625 -0.484375 C 2.816406 -0.484375 3.144531 -0.632812 3.375 -0.9375 C 3.601562 -1.25 3.722656 -1.691406 3.734375 -2.265625 Z M 3.734375 -2.625 "/></g></g></g><g fill="#000000" fill-opacity="1"><g transform="translate(11.421067, 7.278424)"><g><path d="M 4.375 0 L 3.71875 0 L 1.234375 -3.8125 L 1.234375 0 L 0.578125 0 L 0.578125 -4.9375 L 1.234375 -4.9375 L 3.71875 -1.109375 L 3.71875 -4.9375 L 4.375 -4.9375 Z M 4.375 0 "/></g></g></g><g fill="#000000" fill-opacity="1"><g transform="translate(16.376971, 7.278424)"><g><path d="M 3.375 -2.28125 L 1.21875 -2.28125 L 1.21875 -0.53125 L 3.71875 -0.53125 L 3.71875 0 L 0.578125 0 L 0.578125 -4.9375 L 3.6875 -4.9375 L 3.6875 -4.40625 L 1.21875 -4.40625 L 1.21875 -2.8125 L 3.375 -2.8125 Z M 3.375 -2.28125 "/></g></g></g><g fill="#000000" fill-opacity="1"><g transform="translate(20.328116, 7.278424)"><g><path d="M 2.1875 -3.046875 L 3.375 -4.9375 L 4.140625 -4.9375 L 2.578125 -2.484375 L 4.171875 0 L 3.40625 0 L 2.1875 -1.921875 L 0.96875 0 L 0.1875 0 L 1.796875 -2.484375 L 0.234375 -4.9375 L 1 -4.9375 Z M 2.1875 -3.046875 "/></g></g></g><g fill="#000000" fill-opacity="1"><g transform="translate(24.686595, 7.278424)"><g><path d="M 1.265625 0 L 0.625 0 L 0.625 -4.9375 L 1.265625 -4.9375 Z M 1.265625 0 "/></g></g></g><g fill="#000000" fill-opacity="1"><g transform="translate(26.577307, 7.278424)"><g><path d="M 4.046875 -4.9375 L 4.046875 -1.578125 C 4.046875 -1.109375 3.898438 -0.726562 3.609375 -0.4375 C 3.316406 -0.144531 2.925781 0.0195312 2.4375 0.0625 L 2.25 0.0625 C 1.71875 0.0625 1.289062 -0.0820312 0.96875 -0.375 C 0.644531 -0.664062 0.476562 -1.066406 0.46875 -1.578125 L 0.46875 -4.9375 L 1.125 -4.9375 L 1.125 -1.59375 C 1.125 -1.238281 1.222656 -0.960938 1.421875 -0.765625 C 1.617188 -0.566406 1.894531 -0.46875 2.25 -0.46875 C 2.625 -0.46875 2.910156 -0.566406 3.109375 -0.765625 C 3.304688 -0.960938 3.40625 -1.238281 3.40625 -1.59375 L 3.40625 -4.9375 Z M 4.046875 -4.9375 "/></g></g></g><g fill="#000000" fill-opacity="1"><g transform="translate(31.085142, 7.278424)"><g><path d="M 4.375 0 L 3.71875 0 L 1.234375 -3.8125 L 1.234375 0 L 0.578125 0 L 0.578125 -4.9375 L 1.234375 -4.9375 L 3.71875 -1.109375 L 3.71875 -4.9375 L 4.375 -4.9375 Z M 4.375 0 "/></g></g></g><g fill="#000000" fill-opacity="1"><g transform="translate(36.041046, 7.278424)"><g><path d="M 3.375 -2.28125 L 1.21875 -2.28125 L 1.21875 -0.53125 L 3.71875 -0.53125 L 3.71875 0 L 0.578125 0 L 0.578125 -4.9375 L 3.6875 -4.9375 L 3.6875 -4.40625 L 1.21875 -4.40625 L 1.21875 -2.8125 L 3.375 -2.8125 Z M 3.375 -2.28125 "/></g></g></g><g fill="#000000" fill-opacity="1"><g transform="translate(1.057681, 16.826019)"><g><path d="M 2.03125 -2.203125 C 1.46875 -2.359375 1.054688 -2.550781 0.796875 -2.78125 C 0.546875 -3.019531 0.421875 -3.3125 0.421875 -3.65625 C 0.421875 -4.050781 0.578125 -4.375 0.890625 -4.625 C 1.203125 -4.882812 1.609375 -5.015625 2.109375 -5.015625 C 2.453125 -5.015625 2.753906 -4.945312 3.015625 -4.8125 C 3.285156 -4.6875 3.492188 -4.503906 3.640625 -4.265625 C 3.785156 -4.035156 3.859375 -3.785156 3.859375 -3.515625 L 3.203125 -3.515625 C 3.203125 -3.816406 3.101562 -4.050781 2.90625 -4.21875 C 2.71875 -4.382812 2.453125 -4.46875 2.109375 -4.46875 C 1.785156 -4.46875 1.535156 -4.394531 1.359375 -4.25 C 1.179688 -4.113281 1.09375 -3.921875 1.09375 -3.671875 C 1.09375 -3.472656 1.175781 -3.300781 1.34375 -3.15625 C 1.507812 -3.019531 1.796875 -2.894531 2.203125 -2.78125 C 2.617188 -2.664062 2.941406 -2.535156 3.171875 -2.390625 C 3.410156 -2.253906 3.582031 -2.09375 3.6875 -1.90625 C 3.800781 -1.726562 3.859375 -1.507812 3.859375 -1.25 C 3.859375 -0.851562 3.703125 -0.535156 3.390625 -0.296875 C 3.078125 -0.0546875 2.660156 0.0625 2.140625 0.0625 C 1.804688 0.0625 1.488281 0 1.1875 -0.125 C 0.894531 -0.257812 0.664062 -0.4375 0.5 -0.65625 C 0.34375 -0.882812 0.265625 -1.144531 0.265625 -1.4375 L 0.921875 -1.4375 C 0.921875 -1.132812 1.03125 -0.894531 1.25 -0.71875 C 1.476562 -0.550781 1.773438 -0.46875 2.140625 -0.46875 C 2.484375 -0.46875 2.742188 -0.535156 2.921875 -0.671875 C 3.109375 -0.816406 3.203125 -1.007812 3.203125 -1.25 C 3.203125 -1.488281 3.117188 -1.675781 2.953125 -1.8125 C 2.785156 -1.945312 2.476562 -2.078125 2.03125 -2.203125 Z M 2.03125 -2.203125 "/></g></g></g><g fill="#000000" fill-opacity="1"><g transform="translate(5.181943, 16.826019)"><g><path d="M 3.375 -2.28125 L 1.21875 -2.28125 L 1.21875 -0.53125 L 3.71875 -0.53125 L 3.71875 0 L 0.578125 0 L 0.578125 -4.9375 L 3.6875 -4.9375 L 3.6875 -4.40625 L 1.21875 -4.40625 L 1.21875 -2.8125 L 3.375 -2.8125 Z M 3.375 -2.28125 "/></g></g></g><g fill="#000000" fill-opacity="1"><g transform="translate(9.133088, 16.826019)"><g><path d="M 4.203125 -1.5625 C 4.148438 -1.039062 3.957031 -0.640625 3.625 -0.359375 C 3.300781 -0.078125 2.867188 0.0625 2.328125 0.0625 C 1.742188 0.0625 1.273438 -0.144531 0.921875 -0.5625 C 0.578125 -0.976562 0.40625 -1.535156 0.40625 -2.234375 L 0.40625 -2.71875 C 0.40625 -3.175781 0.484375 -3.578125 0.640625 -3.921875 C 0.804688 -4.273438 1.039062 -4.546875 1.34375 -4.734375 C 1.644531 -4.921875 1.992188 -5.015625 2.390625 -5.015625 C 2.921875 -5.015625 3.34375 -4.863281 3.65625 -4.5625 C 3.96875 -4.269531 4.148438 -3.867188 4.203125 -3.359375 L 3.546875 -3.359375 C 3.492188 -3.742188 3.375 -4.023438 3.1875 -4.203125 C 3 -4.378906 2.734375 -4.46875 2.390625 -4.46875 C 1.972656 -4.46875 1.644531 -4.3125 1.40625 -4 C 1.175781 -3.695312 1.0625 -3.265625 1.0625 -2.703125 L 1.0625 -2.21875 C 1.0625 -1.6875 1.171875 -1.257812 1.390625 -0.9375 C 1.617188 -0.625 1.929688 -0.46875 2.328125 -0.46875 C 2.691406 -0.46875 2.96875 -0.546875 3.15625 -0.703125 C 3.351562 -0.867188 3.484375 -1.15625 3.546875 -1.5625 Z M 4.203125 -1.5625 "/></g></g></g><g fill="#000000" fill-opacity="1"><g transform="translate(13.657896, 16.826019)"><g><path d="M 4.046875 -4.9375 L 4.046875 -1.578125 C 4.046875 -1.109375 3.898438 -0.726562 3.609375 -0.4375 C 3.316406 -0.144531 2.925781 0.0195312 2.4375 0.0625 L 2.25 0.0625 C 1.71875 0.0625 1.289062 -0.0820312 0.96875 -0.375 C 0.644531 -0.664062 0.476562 -1.066406 0.46875 -1.578125 L 0.46875 -4.9375 L 1.125 -4.9375 L 1.125 -1.59375 C 1.125 -1.238281 1.222656 -0.960938 1.421875 -0.765625 C 1.617188 -0.566406 1.894531 -0.46875 2.25 -0.46875 C 2.625 -0.46875 2.910156 -0.566406 3.109375 -0.765625 C 3.304688 -0.960938 3.40625 -1.238281 3.40625 -1.59375 L 3.40625 -4.9375 Z M 4.046875 -4.9375 "/></g></g></g><g fill="#000000" fill-opacity="1"><g transform="translate(18.165732, 16.826019)"><g><path d="M 2.390625 -2 L 1.21875 -2 L 1.21875 0 L 0.578125 0 L 0.578125 -4.9375 L 2.203125 -4.9375 C 2.765625 -4.9375 3.191406 -4.8125 3.484375 -4.5625 C 3.785156 -4.3125 3.9375 -3.941406 3.9375 -3.453125 C 3.9375 -3.148438 3.851562 -2.882812 3.6875 -2.65625 C 3.519531 -2.425781 3.289062 -2.253906 3 -2.140625 L 4.15625 -0.046875 L 4.15625 0 L 3.453125 0 Z M 1.21875 -2.53125 L 2.234375 -2.53125 C 2.554688 -2.53125 2.8125 -2.613281 3 -2.78125 C 3.1875 -2.945312 3.28125 -3.171875 3.28125 -3.453125 C 3.28125 -3.765625 3.1875 -4 3 -4.15625 C 2.820312 -4.320312 2.5625 -4.40625 2.21875 -4.40625 L 1.21875 -4.40625 Z M 1.21875 -2.53125 "/></g></g></g><g fill="#000000" fill-opacity="1"><g transform="translate(22.446139, 16.826019)"><g><path d="M 1.265625 0 L 0.625 0 L 0.625 -4.9375 L 1.265625 -4.9375 Z M 1.265625 0 "/></g></g></g><g fill="#000000" fill-opacity="1"><g transform="translate(24.33685, 16.826019)"><g><path d="M 1.0625 -0.53125 L 3.890625 -0.53125 L 3.890625 0 L 0.296875 0 L 0.296875 -0.484375 L 3 -4.40625 L 0.34375 -4.40625 L 0.34375 -4.9375 L 3.78125 -4.9375 L 3.78125 -4.46875 Z M 1.0625 -0.53125 "/></g></g></g><g fill="#000000" fill-opacity="1"><g transform="translate(28.542601, 16.826019)"><g><path d="M 3.296875 -1.296875 L 1.234375 -1.296875 L 0.765625 0 L 0.09375 0 L 1.984375 -4.9375 L 2.546875 -4.9375 L 4.4375 0 L 3.78125 0 Z M 1.421875 -1.828125 L 3.109375 -1.828125 L 2.265625 -4.140625 Z M 1.421875 -1.828125 "/></g></g></g><g fill="#000000" fill-opacity="1"><g transform="translate(32.639482, 16.826019)"><g><path d="M 3.984375 -4.40625 L 2.40625 -4.40625 L 2.40625 0 L 1.75 0 L 1.75 -4.40625 L 0.171875 -4.40625 L 0.171875 -4.9375 L 3.984375 -4.9375 Z M 3.984375 -4.40625 "/></g></g></g><g fill="#000000" fill-opacity="1"><g transform="translate(36.519205, 16.826019)"><g><path d="M 3.296875 -1.296875 L 1.234375 -1.296875 L 0.765625 0 L 0.09375 0 L 1.984375 -4.9375 L 2.546875 -4.9375 L 4.4375 0 L 3.78125 0 Z M 1.421875 -1.828125 L 3.109375 -1.828125 L 2.265625 -4.140625 Z M 3.296875 -6.140625 C 3.296875 -5.867188 3.203125 -5.648438 3.015625 -5.484375 C 2.828125 -5.316406 2.582031 -5.234375 2.28125 -5.234375 C 1.976562 -5.234375 1.734375 -5.316406 1.546875 -5.484375 C 1.359375 -5.648438 1.265625 -5.867188 1.265625 -6.140625 L 1.78125 -6.140625 C 1.78125 -5.984375 1.820312 -5.859375 1.90625 -5.765625 C 1.988281 -5.671875 2.113281 -5.625 2.28125 -5.625 C 2.4375 -5.625 2.5625 -5.664062 2.65625 -5.75 C 2.75 -5.84375 2.796875 -5.972656 2.796875 -6.140625 Z M 3.296875 -6.140625 "/></g></g></g></g></g><g clip-path="url(#c0e614b55d)"><path fill="#d9d9d9" d="M 16.933594 27.304688 L 69.101562 27.304688 C 71.9375 27.304688 74.246094 24.996094 74.246094 22.160156 L 74.246094 6.851562 C 74.246094 4.015625 71.9375 1.707031 69.101562 1.707031 L 16.933594 1.707031 C 14.097656 1.707031 11.789062 4.015625 11.789062 6.851562 L 11.789062 22.160156 C 11.789062 24.996094 14.097656 27.304688 16.933594 27.304688 Z M 12.605469 6.851562 C 12.605469 4.464844 14.546875 2.523438 16.933594 2.523438 L 69.101562 2.523438 C 71.488281 2.523438 73.429688 4.464844 73.429688 6.851562 L 73.429688 22.160156 C 73.429688 24.546875 71.488281 26.488281 69.101562 26.488281 L 16.933594 26.488281 C 14.546875 26.488281 12.605469 24.546875 12.605469 22.160156 Z M 12.605469 6.851562 " fill-opacity="1" fill-rule="nonzero"/></g></svg>