<svg xmlns="http://www.w3.org/2000/svg" xmlns:xlink="http://www.w3.org/1999/xlink" width="280" zoomAndPan="magnify" viewBox="0 0 210 74.999997" height="100" preserveAspectRatio="xMidYMid meet" version="1.0"><defs><g/><clipPath id="9c16660027"><path d="M 54.277344 8.4375 L 210 8.4375 L 210 59.660156 L 54.277344 59.660156 Z M 54.277344 8.4375 " clip-rule="nonzero"/></clipPath><clipPath id="54f697302e"><path d="M 195.605469 8.4375 C 203.554688 8.4375 210 19.90625 210 34.050781 C 210 48.195312 203.554688 59.660156 195.605469 59.660156 L 68.671875 59.660156 C 60.722656 59.660156 54.277344 48.195312 54.277344 34.050781 C 54.277344 19.90625 60.722656 8.4375 68.671875 8.4375 Z M 195.605469 8.4375 " clip-rule="nonzero"/></clipPath><clipPath id="b1abf7a80c"><path d="M 0.277344 0.4375 L 156 0.4375 L 156 51.660156 L 0.277344 51.660156 Z M 0.277344 0.4375 " clip-rule="nonzero"/></clipPath><clipPath id="4fcef205ae"><path d="M 141.605469 0.4375 C 149.554688 0.4375 156 11.90625 156 26.050781 C 156 40.195312 149.554688 51.660156 141.605469 51.660156 L 14.671875 51.660156 C 6.722656 51.660156 0.277344 40.195312 0.277344 26.050781 C 0.277344 11.90625 6.722656 0.4375 14.671875 0.4375 Z M 141.605469 0.4375 " clip-rule="nonzero"/></clipPath><clipPath id="26422992f4"><rect x="0" width="156" y="0" height="52"/></clipPath><clipPath id="735d96299c"><path d="M 0.789062 8.4375 L 75.824219 8.4375 L 75.824219 59.660156 L 0.789062 59.660156 Z M 0.789062 8.4375 " clip-rule="nonzero"/></clipPath><clipPath id="9242783e53"><path d="M 26.402344 8.4375 L 50.074219 8.4375 C 56.867188 8.4375 63.382812 11.136719 68.183594 15.941406 C 72.988281 20.742188 75.6875 27.257812 75.6875 34.050781 C 75.6875 40.84375 72.988281 47.355469 68.183594 52.160156 C 63.382812 56.964844 56.867188 59.660156 50.074219 59.660156 L 26.402344 59.660156 C 19.609375 59.660156 13.09375 56.964844 8.292969 52.160156 C 3.488281 47.355469 0.789062 40.84375 0.789062 34.050781 C 0.789062 27.257812 3.488281 20.742188 8.292969 15.941406 C 13.09375 11.136719 19.609375 8.4375 26.402344 8.4375 Z M 26.402344 8.4375 " clip-rule="nonzero"/></clipPath><clipPath id="298c93b050"><path d="M 0.789062 0.4375 L 75.625 0.4375 L 75.625 51.660156 L 0.789062 51.660156 Z M 0.789062 0.4375 " clip-rule="nonzero"/></clipPath><clipPath id="3739d58abf"><path d="M 26.402344 0.4375 L 50.074219 0.4375 C 56.867188 0.4375 63.382812 3.136719 68.183594 7.941406 C 72.988281 12.742188 75.6875 19.257812 75.6875 26.050781 C 75.6875 32.84375 72.988281 39.355469 68.183594 44.160156 C 63.382812 48.964844 56.867188 51.660156 50.074219 51.660156 L 26.402344 51.660156 C 19.609375 51.660156 13.09375 48.964844 8.292969 44.160156 C 3.488281 39.355469 0.789062 32.84375 0.789062 26.050781 C 0.789062 19.257812 3.488281 12.742188 8.292969 7.941406 C 13.09375 3.136719 19.609375 0.4375 26.402344 0.4375 Z M 26.402344 0.4375 " clip-rule="nonzero"/></clipPath><linearGradient x1="29.575989" gradientTransform="matrix(0.200094, 0, 0, 0.200094, 0.790324, 0.438015)" y1="285.574022" x2="344.576579" gradientUnits="userSpaceOnUse" y2="-29.425571" id="ecaccf740b"><stop stop-opacity="1" stop-color="rgb(2.349854%, 48.239136%, 76.078796%)" offset="0"/><stop stop-opacity="1" stop-color="rgb(2.349854%, 48.347473%, 76.078796%)" offset="0.0078125"/><stop stop-opacity="1" stop-color="rgb(2.349854%, 48.565674%, 76.078796%)" offset="0.015625"/><stop stop-opacity="1" stop-color="rgb(2.349854%, 48.782349%, 76.078796%)" offset="0.0234375"/><stop stop-opacity="1" stop-color="rgb(2.349854%, 49.000549%, 76.078796%)" offset="0.03125"/><stop stop-opacity="1" stop-color="rgb(2.349854%, 49.217224%, 76.078796%)" offset="0.0390625"/><stop stop-opacity="1" stop-color="rgb(2.349854%, 49.433899%, 76.078796%)" offset="0.046875"/><stop stop-opacity="1" stop-color="rgb(2.349854%, 49.6521%, 76.078796%)" offset="0.0546875"/><stop stop-opacity="1" stop-color="rgb(2.349854%, 49.868774%, 76.078796%)" offset="0.0625"/><stop stop-opacity="1" stop-color="rgb(2.349854%, 50.086975%, 76.078796%)" offset="0.0703125"/><stop stop-opacity="1" stop-color="rgb(2.349854%, 50.30365%, 76.078796%)" offset="0.078125"/><stop stop-opacity="1" stop-color="rgb(2.349854%, 50.521851%, 76.078796%)" offset="0.0859375"/><stop stop-opacity="1" stop-color="rgb(2.349854%, 50.738525%, 76.078796%)" offset="0.09375"/><stop stop-opacity="1" stop-color="rgb(2.349854%, 50.956726%, 76.078796%)" offset="0.101562"/><stop stop-opacity="1" stop-color="rgb(2.349854%, 51.173401%, 76.078796%)" offset="0.109375"/><stop stop-opacity="1" stop-color="rgb(2.349854%, 51.391602%, 76.078796%)" offset="0.117188"/><stop stop-opacity="1" stop-color="rgb(2.349854%, 51.608276%, 76.078796%)" offset="0.125"/><stop stop-opacity="1" stop-color="rgb(2.349854%, 51.826477%, 76.078796%)" offset="0.132812"/><stop stop-opacity="1" stop-color="rgb(2.349854%, 52.043152%, 76.078796%)" offset="0.140625"/><stop stop-opacity="1" stop-color="rgb(2.349854%, 52.261353%, 76.078796%)" offset="0.148438"/><stop stop-opacity="1" stop-color="rgb(2.349854%, 52.478027%, 76.078796%)" offset="0.15625"/><stop stop-opacity="1" stop-color="rgb(2.349854%, 52.696228%, 76.078796%)" offset="0.164062"/><stop stop-opacity="1" stop-color="rgb(2.349854%, 52.912903%, 76.078796%)" offset="0.171875"/><stop stop-opacity="1" stop-color="rgb(2.349854%, 53.131104%, 76.078796%)" offset="0.179688"/><stop stop-opacity="1" stop-color="rgb(2.349854%, 53.347778%, 76.078796%)" offset="0.1875"/><stop stop-opacity="1" stop-color="rgb(2.349854%, 53.564453%, 76.078796%)" offset="0.195312"/><stop stop-opacity="1" stop-color="rgb(2.349854%, 53.782654%, 76.078796%)" offset="0.203125"/><stop stop-opacity="1" stop-color="rgb(2.349854%, 53.999329%, 76.078796%)" offset="0.210938"/><stop stop-opacity="1" stop-color="rgb(2.349854%, 54.217529%, 76.078796%)" offset="0.21875"/><stop stop-opacity="1" stop-color="rgb(2.349854%, 54.434204%, 76.078796%)" offset="0.226562"/><stop stop-opacity="1" stop-color="rgb(2.349854%, 54.652405%, 76.078796%)" offset="0.234375"/><stop stop-opacity="1" stop-color="rgb(2.349854%, 54.86908%, 76.078796%)" offset="0.242188"/><stop stop-opacity="1" stop-color="rgb(2.349854%, 55.08728%, 76.078796%)" offset="0.25"/><stop stop-opacity="1" stop-color="rgb(2.349854%, 55.303955%, 76.078796%)" offset="0.257813"/><stop stop-opacity="1" stop-color="rgb(2.349854%, 55.522156%, 76.078796%)" offset="0.265625"/><stop stop-opacity="1" stop-color="rgb(2.349854%, 55.738831%, 76.078796%)" offset="0.273438"/><stop stop-opacity="1" stop-color="rgb(2.349854%, 55.957031%, 76.078796%)" offset="0.28125"/><stop stop-opacity="1" stop-color="rgb(2.349854%, 56.173706%, 76.078796%)" offset="0.289062"/><stop stop-opacity="1" stop-color="rgb(2.349854%, 56.391907%, 76.078796%)" offset="0.296875"/><stop stop-opacity="1" stop-color="rgb(2.349854%, 56.608582%, 76.078796%)" offset="0.304688"/><stop stop-opacity="1" stop-color="rgb(2.349854%, 56.826782%, 76.078796%)" offset="0.3125"/><stop stop-opacity="1" stop-color="rgb(2.349854%, 57.043457%, 76.078796%)" offset="0.320313"/><stop stop-opacity="1" stop-color="rgb(2.349854%, 57.261658%, 76.078796%)" offset="0.328125"/><stop stop-opacity="1" stop-color="rgb(2.349854%, 57.478333%, 76.078796%)" offset="0.335938"/><stop stop-opacity="1" stop-color="rgb(2.349854%, 57.695007%, 76.078796%)" offset="0.34375"/><stop stop-opacity="1" stop-color="rgb(2.349854%, 57.913208%, 76.078796%)" offset="0.351562"/><stop stop-opacity="1" stop-color="rgb(2.349854%, 58.129883%, 76.078796%)" offset="0.359375"/><stop stop-opacity="1" stop-color="rgb(2.349854%, 58.348083%, 76.078796%)" offset="0.367188"/><stop stop-opacity="1" stop-color="rgb(2.349854%, 58.564758%, 76.078796%)" offset="0.375"/><stop stop-opacity="1" stop-color="rgb(2.349854%, 58.782959%, 76.078796%)" offset="0.382813"/><stop stop-opacity="1" stop-color="rgb(2.349854%, 58.999634%, 76.078796%)" offset="0.390625"/><stop stop-opacity="1" stop-color="rgb(2.349854%, 59.217834%, 76.078796%)" offset="0.398438"/><stop stop-opacity="1" stop-color="rgb(2.349854%, 59.434509%, 76.078796%)" offset="0.40625"/><stop stop-opacity="1" stop-color="rgb(2.349854%, 59.65271%, 76.078796%)" offset="0.406348"/><stop stop-opacity="1" stop-color="rgb(2.349854%, 59.761047%, 76.078796%)" offset="0.414063"/><stop stop-opacity="1" stop-color="rgb(2.349854%, 59.869385%, 76.078796%)" offset="0.421875"/><stop stop-opacity="1" stop-color="rgb(2.349854%, 60.087585%, 76.078796%)" offset="0.429688"/><stop stop-opacity="1" stop-color="rgb(2.349854%, 60.30426%, 76.078796%)" offset="0.4375"/><stop stop-opacity="1" stop-color="rgb(2.349854%, 60.522461%, 76.078796%)" offset="0.445313"/><stop stop-opacity="1" stop-color="rgb(2.349854%, 60.739136%, 76.078796%)" offset="0.453125"/><stop stop-opacity="1" stop-color="rgb(2.349854%, 60.957336%, 76.078796%)" offset="0.460938"/><stop stop-opacity="1" stop-color="rgb(2.349854%, 61.174011%, 76.078796%)" offset="0.46875"/><stop stop-opacity="1" stop-color="rgb(2.349854%, 61.390686%, 76.078796%)" offset="0.476563"/><stop stop-opacity="1" stop-color="rgb(2.349854%, 61.608887%, 76.078796%)" offset="0.484375"/><stop stop-opacity="1" stop-color="rgb(2.349854%, 61.825562%, 76.078796%)" offset="0.492188"/><stop stop-opacity="1" stop-color="rgb(2.349854%, 62.043762%, 76.078796%)" offset="0.5"/><stop stop-opacity="1" stop-color="rgb(2.349854%, 62.260437%, 76.078796%)" offset="0.507812"/><stop stop-opacity="1" stop-color="rgb(2.349854%, 62.478638%, 76.078796%)" offset="0.515625"/><stop stop-opacity="1" stop-color="rgb(2.349854%, 62.695312%, 76.078796%)" offset="0.523438"/><stop stop-opacity="1" stop-color="rgb(2.349854%, 62.913513%, 76.078796%)" offset="0.53125"/><stop stop-opacity="1" stop-color="rgb(2.349854%, 63.130188%, 76.078796%)" offset="0.539062"/><stop stop-opacity="1" stop-color="rgb(2.349854%, 63.348389%, 76.078796%)" offset="0.546875"/><stop stop-opacity="1" stop-color="rgb(2.349854%, 63.565063%, 76.078796%)" offset="0.554688"/><stop stop-opacity="1" stop-color="rgb(2.349854%, 63.783264%, 76.078796%)" offset="0.5625"/><stop stop-opacity="1" stop-color="rgb(2.349854%, 63.999939%, 76.078796%)" offset="0.570312"/><stop stop-opacity="1" stop-color="rgb(2.349854%, 64.21814%, 76.078796%)" offset="0.578125"/><stop stop-opacity="1" stop-color="rgb(2.349854%, 64.434814%, 76.078796%)" offset="0.585938"/><stop stop-opacity="1" stop-color="rgb(2.349854%, 64.653015%, 76.078796%)" offset="0.593652"/><stop stop-opacity="1" stop-color="rgb(2.349854%, 64.761353%, 76.078796%)" offset="0.59375"/><stop stop-opacity="1" stop-color="rgb(2.349854%, 64.86969%, 76.078796%)" offset="0.601562"/><stop stop-opacity="1" stop-color="rgb(2.349854%, 65.087891%, 76.078796%)" offset="0.609375"/><stop stop-opacity="1" stop-color="rgb(2.349854%, 65.304565%, 76.078796%)" offset="0.617188"/><stop stop-opacity="1" stop-color="rgb(2.349854%, 65.52124%, 76.078796%)" offset="0.625"/><stop stop-opacity="1" stop-color="rgb(2.349854%, 65.739441%, 76.078796%)" offset="0.632812"/><stop stop-opacity="1" stop-color="rgb(2.349854%, 65.956116%, 76.078796%)" offset="0.640625"/><stop stop-opacity="1" stop-color="rgb(2.349854%, 66.174316%, 76.078796%)" offset="0.648437"/><stop stop-opacity="1" stop-color="rgb(2.349854%, 66.390991%, 76.078796%)" offset="0.65625"/><stop stop-opacity="1" stop-color="rgb(2.349854%, 66.609192%, 76.078796%)" offset="0.664062"/><stop stop-opacity="1" stop-color="rgb(2.349854%, 66.825867%, 76.078796%)" offset="0.671875"/><stop stop-opacity="1" stop-color="rgb(2.349854%, 67.044067%, 76.078796%)" offset="0.679687"/><stop stop-opacity="1" stop-color="rgb(2.349854%, 67.260742%, 76.078796%)" offset="0.6875"/><stop stop-opacity="1" stop-color="rgb(2.349854%, 67.478943%, 76.078796%)" offset="0.695313"/><stop stop-opacity="1" stop-color="rgb(2.349854%, 67.695618%, 76.078796%)" offset="0.703125"/><stop stop-opacity="1" stop-color="rgb(2.349854%, 67.913818%, 76.078796%)" offset="0.710938"/><stop stop-opacity="1" stop-color="rgb(2.349854%, 68.130493%, 76.078796%)" offset="0.71875"/><stop stop-opacity="1" stop-color="rgb(2.349854%, 68.348694%, 76.078796%)" offset="0.726562"/><stop stop-opacity="1" stop-color="rgb(2.349854%, 68.565369%, 76.078796%)" offset="0.734375"/><stop stop-opacity="1" stop-color="rgb(2.349854%, 68.783569%, 76.078796%)" offset="0.742188"/><stop stop-opacity="1" stop-color="rgb(2.349854%, 69.000244%, 76.078796%)" offset="0.75"/><stop stop-opacity="1" stop-color="rgb(2.349854%, 69.218445%, 76.078796%)" offset="0.757812"/><stop stop-opacity="1" stop-color="rgb(2.349854%, 69.43512%, 76.078796%)" offset="0.765625"/><stop stop-opacity="1" stop-color="rgb(2.349854%, 69.651794%, 76.078796%)" offset="0.773437"/><stop stop-opacity="1" stop-color="rgb(2.349854%, 69.869995%, 76.078796%)" offset="0.78125"/><stop stop-opacity="1" stop-color="rgb(2.349854%, 70.08667%, 76.078796%)" offset="0.789062"/><stop stop-opacity="1" stop-color="rgb(2.349854%, 70.304871%, 76.078796%)" offset="0.796875"/><stop stop-opacity="1" stop-color="rgb(2.349854%, 70.521545%, 76.078796%)" offset="0.804687"/><stop stop-opacity="1" stop-color="rgb(2.349854%, 70.739746%, 76.078796%)" offset="0.8125"/><stop stop-opacity="1" stop-color="rgb(2.349854%, 70.956421%, 76.078796%)" offset="0.820313"/><stop stop-opacity="1" stop-color="rgb(2.349854%, 71.174622%, 76.078796%)" offset="0.828125"/><stop stop-opacity="1" stop-color="rgb(2.349854%, 71.391296%, 76.078796%)" offset="0.835938"/><stop stop-opacity="1" stop-color="rgb(2.349854%, 71.609497%, 76.078796%)" offset="0.84375"/><stop stop-opacity="1" stop-color="rgb(2.349854%, 71.826172%, 76.078796%)" offset="0.851562"/><stop stop-opacity="1" stop-color="rgb(2.349854%, 72.044373%, 76.078796%)" offset="0.859375"/><stop stop-opacity="1" stop-color="rgb(2.349854%, 72.261047%, 76.078796%)" offset="0.867188"/><stop stop-opacity="1" stop-color="rgb(2.349854%, 72.479248%, 76.078796%)" offset="0.875"/><stop stop-opacity="1" stop-color="rgb(2.349854%, 72.695923%, 76.078796%)" offset="0.882812"/><stop stop-opacity="1" stop-color="rgb(2.349854%, 72.914124%, 76.078796%)" offset="0.890625"/><stop stop-opacity="1" stop-color="rgb(2.349854%, 73.130798%, 76.078796%)" offset="0.898438"/><stop stop-opacity="1" stop-color="rgb(2.349854%, 73.347473%, 76.078796%)" offset="0.90625"/><stop stop-opacity="1" stop-color="rgb(2.349854%, 73.565674%, 76.078796%)" offset="0.914062"/><stop stop-opacity="1" stop-color="rgb(2.349854%, 73.782349%, 76.078796%)" offset="0.921875"/><stop stop-opacity="1" stop-color="rgb(2.349854%, 74.000549%, 76.078796%)" offset="0.929687"/><stop stop-opacity="1" stop-color="rgb(2.349854%, 74.217224%, 76.078796%)" offset="0.9375"/><stop stop-opacity="1" stop-color="rgb(2.349854%, 74.435425%, 76.078796%)" offset="0.945313"/><stop stop-opacity="1" stop-color="rgb(2.349854%, 74.6521%, 76.078796%)" offset="0.953125"/><stop stop-opacity="1" stop-color="rgb(2.349854%, 74.8703%, 76.078796%)" offset="0.960938"/><stop stop-opacity="1" stop-color="rgb(2.349854%, 75.086975%, 76.078796%)" offset="0.96875"/><stop stop-opacity="1" stop-color="rgb(2.349854%, 75.305176%, 76.078796%)" offset="0.976562"/><stop stop-opacity="1" stop-color="rgb(2.349854%, 75.521851%, 76.078796%)" offset="0.984375"/><stop stop-opacity="1" stop-color="rgb(2.349854%, 75.740051%, 76.078796%)" offset="0.992188"/><stop stop-opacity="1" stop-color="rgb(2.349854%, 75.956726%, 76.078796%)" offset="1"/></linearGradient><clipPath id="0206a28e99"><rect x="0" width="76" y="0" height="52"/></clipPath><clipPath id="b5c49d0368"><path d="M 20 43 L 24 43 L 24 46.839844 L 20 46.839844 Z M 20 43 " clip-rule="nonzero"/></clipPath><clipPath id="e9a13f9e86"><path d="M 30 43 L 34 43 L 34 46.839844 L 30 46.839844 Z M 30 43 " clip-rule="nonzero"/></clipPath><clipPath id="3731222898"><path d="M 11.339844 21.339844 L 38.339844 21.339844 L 38.339844 43 L 11.339844 43 Z M 11.339844 21.339844 " clip-rule="nonzero"/></clipPath><clipPath id="721cc191db"><path d="M 46.824219 8.433594 L 77.238281 8.433594 L 77.238281 59.722656 L 46.824219 59.722656 Z M 46.824219 8.433594 " clip-rule="nonzero"/></clipPath><clipPath id="3be4059da1"><path d="M 77.238281 57.863281 L 77.238281 10.230469 C 77.238281 9.753906 77.050781 9.296875 76.714844 8.960938 C 76.375 8.625 75.917969 8.433594 75.441406 8.433594 L 49.847656 8.433594 C 47.476562 11.160156 44.5625 19.878906 49.847656 32.957031 C 55.539062 46.035156 52.21875 56.207031 49.847656 59.660156 L 75.441406 59.660156 C 75.917969 59.660156 76.375 59.46875 76.714844 59.132812 C 77.050781 58.796875 77.238281 58.339844 77.238281 57.863281 Z M 77.238281 57.863281 " clip-rule="nonzero"/></clipPath><clipPath id="7d7c525886"><path d="M 0.824219 0.433594 L 31.238281 0.433594 L 31.238281 51.722656 L 0.824219 51.722656 Z M 0.824219 0.433594 " clip-rule="nonzero"/></clipPath><clipPath id="bdd911c9e4"><path d="M 31.238281 49.863281 L 31.238281 2.230469 C 31.238281 1.753906 31.050781 1.296875 30.714844 0.960938 C 30.375 0.625 29.917969 0.433594 29.441406 0.433594 L 3.847656 0.433594 C 1.476562 3.160156 -1.4375 11.878906 3.847656 24.957031 C 9.539062 38.035156 6.21875 48.207031 3.847656 51.660156 L 29.441406 51.660156 C 29.917969 51.660156 30.375 51.46875 30.714844 51.132812 C 31.050781 50.796875 31.238281 50.339844 31.238281 49.863281 Z M 31.238281 49.863281 " clip-rule="nonzero"/></clipPath><clipPath id="16479640eb"><rect x="0" width="32" y="0" height="52"/></clipPath><clipPath id="3746425f41"><rect x="0" width="124" y="0" height="24"/></clipPath></defs><g clip-path="url(#9c16660027)"><g clip-path="url(#54f697302e)"><g transform="matrix(1, 0, 0, 1, 54, 8)"><g clip-path="url(#26422992f4)"><g clip-path="url(#b1abf7a80c)"><g clip-path="url(#4fcef205ae)"><path fill="#2b2b2b" d="M 0.277344 0.4375 L 155.949219 0.4375 L 155.949219 51.660156 L 0.277344 51.660156 Z M 0.277344 0.4375 " fill-opacity="1" fill-rule="nonzero"/></g></g></g></g></g></g><g clip-path="url(#735d96299c)"><g clip-path="url(#9242783e53)"><g transform="matrix(1, 0, 0, 1, 0, 8)"><g clip-path="url(#0206a28e99)"><g clip-path="url(#298c93b050)"><g clip-path="url(#3739d58abf)"><path fill="url(#ecaccf740b)" d="M 0.789062 0.4375 L 0.789062 51.660156 L 75.625 51.660156 L 75.625 0.4375 Z M 0.789062 0.4375 " fill-rule="nonzero"/></g></g></g></g></g></g><g clip-path="url(#b5c49d0368)"><path fill="#ffffff" d="M 23.292969 45.253906 C 23.292969 45.453125 23.253906 45.644531 23.179688 45.828125 C 23.101562 46.011719 22.996094 46.171875 22.855469 46.3125 C 22.714844 46.453125 22.554688 46.558594 22.371094 46.636719 C 22.1875 46.710938 21.996094 46.75 21.800781 46.75 C 21.601562 46.75 21.410156 46.710938 21.226562 46.636719 C 21.042969 46.558594 20.882812 46.453125 20.742188 46.3125 C 20.601562 46.171875 20.496094 46.011719 20.417969 45.828125 C 20.34375 45.644531 20.304688 45.453125 20.304688 45.253906 C 20.304688 45.058594 20.34375 44.867188 20.417969 44.683594 C 20.496094 44.5 20.601562 44.339844 20.742188 44.199219 C 20.882812 44.058594 21.042969 43.949219 21.226562 43.875 C 21.410156 43.800781 21.601562 43.761719 21.800781 43.761719 C 21.996094 43.761719 22.1875 43.800781 22.371094 43.875 C 22.554688 43.949219 22.714844 44.058594 22.855469 44.199219 C 22.996094 44.339844 23.101562 44.5 23.179688 44.683594 C 23.253906 44.867188 23.292969 45.058594 23.292969 45.253906 Z M 23.292969 45.253906 " fill-opacity="1" fill-rule="nonzero"/></g><g clip-path="url(#e9a13f9e86)"><path fill="#ffffff" d="M 33.753906 45.253906 C 33.753906 45.453125 33.714844 45.644531 33.636719 45.828125 C 33.5625 46.011719 33.453125 46.171875 33.3125 46.3125 C 33.175781 46.453125 33.011719 46.558594 32.828125 46.636719 C 32.648438 46.710938 32.457031 46.75 32.257812 46.75 C 32.058594 46.75 31.867188 46.710938 31.6875 46.636719 C 31.503906 46.558594 31.339844 46.453125 31.203125 46.3125 C 31.0625 46.171875 30.953125 46.011719 30.878906 45.828125 C 30.800781 45.644531 30.765625 45.453125 30.765625 45.253906 C 30.765625 45.058594 30.800781 44.867188 30.878906 44.683594 C 30.953125 44.5 31.0625 44.339844 31.203125 44.199219 C 31.339844 44.058594 31.503906 43.949219 31.6875 43.875 C 31.867188 43.800781 32.058594 43.761719 32.257812 43.761719 C 32.457031 43.761719 32.648438 43.800781 32.828125 43.875 C 33.011719 43.949219 33.175781 44.058594 33.3125 44.199219 C 33.453125 44.339844 33.5625 44.5 33.636719 44.683594 C 33.714844 44.867188 33.753906 45.058594 33.753906 45.253906 Z M 33.753906 45.253906 " fill-opacity="1" fill-rule="nonzero"/></g><g clip-path="url(#3731222898)"><path fill="#ffffff" d="M 35.167969 35.269531 L 38.15625 26.304688 C 38.234375 26.074219 38.253906 25.84375 38.214844 25.605469 C 38.179688 25.367188 38.089844 25.152344 37.953125 24.957031 C 37.8125 24.761719 37.632812 24.613281 37.421875 24.503906 C 37.207031 24.390625 36.980469 24.335938 36.742188 24.335938 L 18.8125 24.335938 L 18.8125 24.359375 C 18.582031 23.90625 18.292969 23.492188 17.949219 23.121094 C 17.605469 22.746094 17.21875 22.425781 16.785156 22.160156 C 16.355469 21.894531 15.894531 21.695312 15.40625 21.554688 C 14.917969 21.417969 14.417969 21.347656 13.910156 21.347656 L 12.835938 21.347656 C 12.636719 21.347656 12.445312 21.386719 12.261719 21.464844 C 12.078125 21.539062 11.917969 21.648438 11.777344 21.785156 C 11.636719 21.925781 11.53125 22.089844 11.453125 22.273438 C 11.378906 22.453125 11.339844 22.644531 11.339844 22.84375 C 11.339844 23.042969 11.378906 23.230469 11.453125 23.414062 C 11.53125 23.597656 11.636719 23.761719 11.777344 23.898438 C 11.917969 24.039062 12.078125 24.148438 12.261719 24.222656 C 12.445312 24.300781 12.636719 24.335938 12.835938 24.335938 L 13.910156 24.335938 C 14.210938 24.335938 14.5 24.386719 14.78125 24.492188 C 15.0625 24.59375 15.320312 24.742188 15.546875 24.933594 C 15.777344 25.128906 15.964844 25.355469 16.113281 25.617188 C 16.261719 25.875 16.359375 26.15625 16.40625 26.449219 L 18.511719 38.964844 C 18.582031 39.425781 18.730469 39.859375 18.957031 40.265625 C 19.179688 40.671875 19.472656 41.027344 19.824219 41.332031 C 20.179688 41.636719 20.574219 41.867188 21.011719 42.027344 C 21.449219 42.1875 21.902344 42.269531 22.367188 42.265625 L 33.753906 42.265625 C 33.949219 42.265625 34.140625 42.230469 34.324219 42.152344 C 34.507812 42.078125 34.667969 41.96875 34.808594 41.828125 C 34.949219 41.691406 35.054688 41.527344 35.132812 41.34375 C 35.207031 41.160156 35.246094 40.972656 35.246094 40.773438 C 35.246094 40.574219 35.207031 40.382812 35.132812 40.203125 C 35.054688 40.019531 34.949219 39.855469 34.808594 39.714844 C 34.667969 39.578125 34.507812 39.46875 34.324219 39.394531 C 34.140625 39.316406 33.949219 39.277344 33.753906 39.277344 L 22.367188 39.277344 C 22.140625 39.277344 21.941406 39.203125 21.769531 39.050781 C 21.601562 38.902344 21.5 38.714844 21.46875 38.488281 L 21.09375 36.289062 L 33.753906 36.289062 C 34.074219 36.289062 34.363281 36.195312 34.625 36.007812 C 34.886719 35.820312 35.066406 35.574219 35.167969 35.269531 Z M 35.167969 35.269531 " fill-opacity="1" fill-rule="nonzero"/></g><g clip-path="url(#721cc191db)"><g clip-path="url(#3be4059da1)"><g transform="matrix(1, 0, 0, 1, 46, 8)"><g clip-path="url(#16479640eb)"><g clip-path="url(#7d7c525886)"><g clip-path="url(#bdd911c9e4)"><path fill="#2b2b2b" d="M 31.238281 0.433594 L 31.238281 51.605469 L 0.703125 51.605469 L 0.703125 0.433594 Z M 31.238281 0.433594 " fill-opacity="1" fill-rule="nonzero"/></g></g></g></g></g></g><g transform="matrix(1, 0, 0, 1, 66, 22)"><g clip-path="url(#3746425f41)"><g fill="#ffffff" fill-opacity="1"><g transform="translate(0.681484, 17.377066)"><g><path d="M 8.3125 -2.640625 L 3.140625 -2.640625 L 2.1875 0 L 0.5625 0 L 4.84375 -11.78125 L 6.625 -11.78125 L 10.890625 0 L 9.265625 0 Z M 7.875 -3.890625 L 5.734375 -9.875 L 3.59375 -3.890625 Z M 7.875 -3.890625 "/></g></g></g><g fill="#ffffff" fill-opacity="1"><g transform="translate(12.140973, 17.377066)"><g><path d="M 0.734375 -4.6875 C 0.734375 -5.644531 0.925781 -6.484375 1.3125 -7.203125 C 1.695312 -7.921875 2.222656 -8.476562 2.890625 -8.875 C 3.566406 -9.269531 4.328125 -9.46875 5.171875 -9.46875 C 5.890625 -9.46875 6.5625 -9.300781 7.1875 -8.96875 C 7.8125 -8.632812 8.289062 -8.195312 8.625 -7.65625 L 8.625 -12.578125 L 10.1875 -12.578125 L 10.1875 0 L 8.625 0 L 8.625 -1.75 C 8.3125 -1.195312 7.851562 -0.738281 7.25 -0.375 C 6.65625 -0.0195312 5.957031 0.15625 5.15625 0.15625 C 4.320312 0.15625 3.566406 -0.046875 2.890625 -0.453125 C 2.222656 -0.867188 1.695312 -1.441406 1.3125 -2.171875 C 0.925781 -2.910156 0.734375 -3.75 0.734375 -4.6875 Z M 8.625 -4.671875 C 8.625 -5.378906 8.476562 -5.992188 8.1875 -6.515625 C 7.90625 -7.035156 7.523438 -7.429688 7.046875 -7.703125 C 6.566406 -7.984375 6.035156 -8.125 5.453125 -8.125 C 4.878906 -8.125 4.351562 -7.988281 3.875 -7.71875 C 3.394531 -7.445312 3.015625 -7.050781 2.734375 -6.53125 C 2.453125 -6.007812 2.3125 -5.394531 2.3125 -4.6875 C 2.3125 -3.976562 2.453125 -3.359375 2.734375 -2.828125 C 3.015625 -2.304688 3.394531 -1.90625 3.875 -1.625 C 4.351562 -1.34375 4.878906 -1.203125 5.453125 -1.203125 C 6.035156 -1.203125 6.566406 -1.34375 7.046875 -1.625 C 7.523438 -1.90625 7.90625 -2.304688 8.1875 -2.828125 C 8.476562 -3.359375 8.625 -3.972656 8.625 -4.671875 Z M 8.625 -4.671875 "/></g></g></g><g fill="#ffffff" fill-opacity="1"><g transform="translate(23.634472, 17.377066)"><g><path d="M 0.734375 -4.6875 C 0.734375 -5.644531 0.925781 -6.484375 1.3125 -7.203125 C 1.695312 -7.921875 2.222656 -8.476562 2.890625 -8.875 C 3.566406 -9.269531 4.320312 -9.46875 5.15625 -9.46875 C 5.96875 -9.46875 6.671875 -9.289062 7.265625 -8.9375 C 7.867188 -8.59375 8.320312 -8.148438 8.625 -7.609375 L 8.625 -9.3125 L 10.1875 -9.3125 L 10.1875 0 L 8.625 0 L 8.625 -1.734375 C 8.3125 -1.191406 7.851562 -0.738281 7.25 -0.375 C 6.644531 -0.0195312 5.941406 0.15625 5.140625 0.15625 C 4.304688 0.15625 3.554688 -0.046875 2.890625 -0.453125 C 2.222656 -0.867188 1.695312 -1.441406 1.3125 -2.171875 C 0.925781 -2.910156 0.734375 -3.75 0.734375 -4.6875 Z M 8.625 -4.671875 C 8.625 -5.378906 8.476562 -5.992188 8.1875 -6.515625 C 7.90625 -7.035156 7.523438 -7.429688 7.046875 -7.703125 C 6.566406 -7.984375 6.035156 -8.125 5.453125 -8.125 C 4.878906 -8.125 4.351562 -7.988281 3.875 -7.71875 C 3.394531 -7.445312 3.015625 -7.050781 2.734375 -6.53125 C 2.453125 -6.007812 2.3125 -5.394531 2.3125 -4.6875 C 2.3125 -3.976562 2.453125 -3.359375 2.734375 -2.828125 C 3.015625 -2.304688 3.394531 -1.90625 3.875 -1.625 C 4.351562 -1.34375 4.878906 -1.203125 5.453125 -1.203125 C 6.035156 -1.203125 6.566406 -1.34375 7.046875 -1.625 C 7.523438 -1.90625 7.90625 -2.304688 8.1875 -2.828125 C 8.476562 -3.359375 8.625 -3.972656 8.625 -4.671875 Z M 8.625 -4.671875 "/></g></g></g><g fill="#ffffff" fill-opacity="1"><g transform="translate(35.127971, 17.377066)"><g><path d="M 9.578125 -9.3125 L 9.578125 0 L 8.03125 0 L 8.03125 -1.375 C 7.726562 -0.894531 7.3125 -0.519531 6.78125 -0.25 C 6.257812 0.0078125 5.679688 0.140625 5.046875 0.140625 C 4.328125 0.140625 3.675781 -0.0078125 3.09375 -0.3125 C 2.519531 -0.613281 2.0625 -1.0625 1.71875 -1.65625 C 1.382812 -2.257812 1.21875 -2.992188 1.21875 -3.859375 L 1.21875 -9.3125 L 2.75 -9.3125 L 2.75 -4.0625 C 2.75 -3.144531 2.976562 -2.4375 3.4375 -1.9375 C 3.90625 -1.445312 4.546875 -1.203125 5.359375 -1.203125 C 6.179688 -1.203125 6.832031 -1.457031 7.3125 -1.96875 C 7.789062 -2.476562 8.03125 -3.222656 8.03125 -4.203125 L 8.03125 -9.3125 Z M 9.578125 -9.3125 "/></g></g></g><g fill="#ffffff" fill-opacity="1"><g transform="translate(46.009385, 17.377066)"><g><path d="M 5.15625 -9.46875 C 5.957031 -9.46875 6.660156 -9.289062 7.265625 -8.9375 C 7.867188 -8.59375 8.320312 -8.148438 8.625 -7.609375 L 8.625 -9.3125 L 10.1875 -9.3125 L 10.1875 0.203125 C 10.1875 1.054688 10.003906 1.8125 9.640625 2.46875 C 9.273438 3.132812 8.753906 3.65625 8.078125 4.03125 C 7.410156 4.40625 6.628906 4.59375 5.734375 4.59375 C 4.503906 4.59375 3.476562 4.300781 2.65625 3.71875 C 1.84375 3.144531 1.363281 2.359375 1.21875 1.359375 L 2.75 1.359375 C 2.925781 1.921875 3.28125 2.375 3.8125 2.71875 C 4.34375 3.070312 4.984375 3.25 5.734375 3.25 C 6.578125 3.25 7.269531 2.984375 7.8125 2.453125 C 8.351562 1.921875 8.625 1.171875 8.625 0.203125 L 8.625 -1.75 C 8.3125 -1.207031 7.851562 -0.753906 7.25 -0.390625 C 6.65625 -0.0234375 5.957031 0.15625 5.15625 0.15625 C 4.320312 0.15625 3.566406 -0.046875 2.890625 -0.453125 C 2.222656 -0.867188 1.695312 -1.441406 1.3125 -2.171875 C 0.925781 -2.910156 0.734375 -3.75 0.734375 -4.6875 C 0.734375 -5.644531 0.925781 -6.484375 1.3125 -7.203125 C 1.695312 -7.921875 2.222656 -8.476562 2.890625 -8.875 C 3.566406 -9.269531 4.320312 -9.46875 5.15625 -9.46875 Z M 8.625 -4.671875 C 8.625 -5.378906 8.476562 -5.992188 8.1875 -6.515625 C 7.90625 -7.035156 7.523438 -7.429688 7.046875 -7.703125 C 6.566406 -7.984375 6.035156 -8.125 5.453125 -8.125 C 4.878906 -8.125 4.351562 -7.988281 3.875 -7.71875 C 3.394531 -7.445312 3.015625 -7.050781 2.734375 -6.53125 C 2.453125 -6.007812 2.3125 -5.394531 2.3125 -4.6875 C 2.3125 -3.976562 2.453125 -3.359375 2.734375 -2.828125 C 3.015625 -2.304688 3.394531 -1.90625 3.875 -1.625 C 4.351562 -1.34375 4.878906 -1.203125 5.453125 -1.203125 C 6.035156 -1.203125 6.566406 -1.34375 7.046875 -1.625 C 7.523438 -1.90625 7.90625 -2.304688 8.1875 -2.828125 C 8.476562 -3.359375 8.625 -3.972656 8.625 -4.671875 Z M 8.625 -4.671875 "/></g></g></g><g fill="#ffffff" fill-opacity="1"><g transform="translate(57.502884, 17.377066)"><g><path d="M 0.734375 -4.6875 C 0.734375 -5.644531 0.925781 -6.484375 1.3125 -7.203125 C 1.695312 -7.921875 2.222656 -8.476562 2.890625 -8.875 C 3.566406 -9.269531 4.320312 -9.46875 5.15625 -9.46875 C 5.96875 -9.46875 6.671875 -9.289062 7.265625 -8.9375 C 7.867188 -8.59375 8.320312 -8.148438 8.625 -7.609375 L 8.625 -9.3125 L 10.1875 -9.3125 L 10.1875 0 L 8.625 0 L 8.625 -1.734375 C 8.3125 -1.191406 7.851562 -0.738281 7.25 -0.375 C 6.644531 -0.0195312 5.941406 0.15625 5.140625 0.15625 C 4.304688 0.15625 3.554688 -0.046875 2.890625 -0.453125 C 2.222656 -0.867188 1.695312 -1.441406 1.3125 -2.171875 C 0.925781 -2.910156 0.734375 -3.75 0.734375 -4.6875 Z M 8.625 -4.671875 C 8.625 -5.378906 8.476562 -5.992188 8.1875 -6.515625 C 7.90625 -7.035156 7.523438 -7.429688 7.046875 -7.703125 C 6.566406 -7.984375 6.035156 -8.125 5.453125 -8.125 C 4.878906 -8.125 4.351562 -7.988281 3.875 -7.71875 C 3.394531 -7.445312 3.015625 -7.050781 2.734375 -6.53125 C 2.453125 -6.007812 2.3125 -5.394531 2.3125 -4.6875 C 2.3125 -3.976562 2.453125 -3.359375 2.734375 -2.828125 C 3.015625 -2.304688 3.394531 -1.90625 3.875 -1.625 C 4.351562 -1.34375 4.878906 -1.203125 5.453125 -1.203125 C 6.035156 -1.203125 6.566406 -1.34375 7.046875 -1.625 C 7.523438 -1.90625 7.90625 -2.304688 8.1875 -2.828125 C 8.476562 -3.359375 8.625 -3.972656 8.625 -4.671875 Z M 8.1875 -12.4375 C 8.1875 -11.789062 7.972656 -11.257812 7.546875 -10.84375 C 7.117188 -10.4375 6.523438 -10.234375 5.765625 -10.234375 C 5.003906 -10.234375 4.40625 -10.4375 3.96875 -10.84375 C 3.539062 -11.257812 3.328125 -11.800781 3.328125 -12.46875 L 3.328125 -12.75 L 4.25 -12.75 C 4.25 -12.320312 4.367188 -11.992188 4.609375 -11.765625 C 4.847656 -11.546875 5.234375 -11.4375 5.765625 -11.4375 C 6.285156 -11.4375 6.664062 -11.546875 6.90625 -11.765625 C 7.144531 -11.992188 7.265625 -12.320312 7.265625 -12.75 L 8.1875 -12.75 Z M 8.1875 -12.4375 "/></g></g></g><g fill="#ffffff" fill-opacity="1"><g transform="translate(68.996383, 17.377066)"><g/></g></g><g fill="#ffffff" fill-opacity="1"><g transform="translate(73.535968, 17.377066)"><g><path d="M 2.859375 -9.3125 L 2.859375 0 L 1.3125 0 L 1.3125 -9.3125 Z M 2.09375 -11.59375 L -0.28125 -10.15625 L -0.28125 -11.375 L 2.09375 -12.78125 L 4.4375 -11.375 L 4.4375 -10.15625 Z M 2.09375 -11.59375 "/></g></g></g><g fill="#ffffff" fill-opacity="1"><g transform="translate(77.718508, 17.377066)"><g><path d="M 5.84375 -9.484375 C 6.976562 -9.484375 7.894531 -9.140625 8.59375 -8.453125 C 9.300781 -7.765625 9.65625 -6.773438 9.65625 -5.484375 L 9.65625 0 L 8.125 0 L 8.125 -5.265625 C 8.125 -6.191406 7.890625 -6.898438 7.421875 -7.390625 C 6.960938 -7.890625 6.332031 -8.140625 5.53125 -8.140625 C 4.707031 -8.140625 4.054688 -7.882812 3.578125 -7.375 C 3.097656 -6.863281 2.859375 -6.125 2.859375 -5.15625 L 2.859375 0 L 1.3125 0 L 1.3125 -9.3125 L 2.859375 -9.3125 L 2.859375 -7.984375 C 3.160156 -8.460938 3.570312 -8.832031 4.09375 -9.09375 C 4.625 -9.351562 5.207031 -9.484375 5.84375 -9.484375 Z M 5.84375 -9.484375 "/></g></g></g><g fill="#ffffff" fill-opacity="1"><g transform="translate(88.599923, 17.377066)"><g/></g></g><g fill="#ffffff" fill-opacity="1"><g transform="translate(93.139508, 17.377066)"><g><path d="M 0.734375 -4.671875 C 0.734375 -5.640625 0.925781 -6.484375 1.3125 -7.203125 C 1.695312 -7.921875 2.226562 -8.476562 2.90625 -8.875 C 3.59375 -9.269531 4.378906 -9.46875 5.265625 -9.46875 C 6.410156 -9.46875 7.351562 -9.1875 8.09375 -8.625 C 8.84375 -8.070312 9.335938 -7.304688 9.578125 -6.328125 L 7.90625 -6.328125 C 7.75 -6.890625 7.441406 -7.332031 6.984375 -7.65625 C 6.523438 -7.988281 5.953125 -8.15625 5.265625 -8.15625 C 4.378906 -8.15625 3.664062 -7.851562 3.125 -7.25 C 2.582031 -6.644531 2.3125 -5.785156 2.3125 -4.671875 C 2.3125 -3.546875 2.582031 -2.675781 3.125 -2.0625 C 3.664062 -1.457031 4.378906 -1.15625 5.265625 -1.15625 C 5.953125 -1.15625 6.519531 -1.3125 6.96875 -1.625 C 7.425781 -1.945312 7.738281 -2.398438 7.90625 -2.984375 L 9.578125 -2.984375 C 9.328125 -2.035156 8.828125 -1.273438 8.078125 -0.703125 C 7.328125 -0.128906 6.390625 0.15625 5.265625 0.15625 C 4.378906 0.15625 3.59375 -0.0390625 2.90625 -0.4375 C 2.226562 -0.832031 1.695312 -1.394531 1.3125 -2.125 C 0.925781 -2.851562 0.734375 -3.703125 0.734375 -4.671875 Z M 0.734375 -4.671875 "/></g></g></g><g fill="#ffffff" fill-opacity="1"><g transform="translate(103.459853, 17.377066)"><g><path d="M 5.375 0.15625 C 4.5 0.15625 3.707031 -0.0390625 3 -0.4375 C 2.289062 -0.832031 1.734375 -1.394531 1.328125 -2.125 C 0.929688 -2.863281 0.734375 -3.710938 0.734375 -4.671875 C 0.734375 -5.628906 0.9375 -6.472656 1.34375 -7.203125 C 1.757812 -7.929688 2.320312 -8.488281 3.03125 -8.875 C 3.75 -9.269531 4.550781 -9.46875 5.4375 -9.46875 C 6.320312 -9.46875 7.117188 -9.269531 7.828125 -8.875 C 8.546875 -8.488281 9.113281 -7.929688 9.53125 -7.203125 C 9.945312 -6.484375 10.15625 -5.640625 10.15625 -4.671875 C 10.15625 -3.710938 9.941406 -2.863281 9.515625 -2.125 C 9.085938 -1.394531 8.507812 -0.832031 7.78125 -0.4375 C 7.0625 -0.0390625 6.257812 0.15625 5.375 0.15625 Z M 5.375 -1.203125 C 5.925781 -1.203125 6.445312 -1.332031 6.9375 -1.59375 C 7.425781 -1.851562 7.816406 -2.242188 8.109375 -2.765625 C 8.410156 -3.285156 8.5625 -3.921875 8.5625 -4.671875 C 8.5625 -5.421875 8.414062 -6.054688 8.125 -6.578125 C 7.832031 -7.097656 7.445312 -7.484375 6.96875 -7.734375 C 6.488281 -7.992188 5.972656 -8.125 5.421875 -8.125 C 4.859375 -8.125 4.335938 -7.992188 3.859375 -7.734375 C 3.390625 -7.484375 3.015625 -7.097656 2.734375 -6.578125 C 2.453125 -6.054688 2.3125 -5.421875 2.3125 -4.671875 C 2.3125 -3.910156 2.445312 -3.269531 2.71875 -2.75 C 3 -2.226562 3.367188 -1.835938 3.828125 -1.578125 C 4.296875 -1.328125 4.8125 -1.203125 5.375 -1.203125 Z M 5.375 -1.203125 "/></g></g></g><g fill="#ffffff" fill-opacity="1"><g transform="translate(114.341267, 17.377066)"><g><path d="M 4.609375 0.15625 C 3.890625 0.15625 3.25 0.0351562 2.6875 -0.203125 C 2.125 -0.453125 1.675781 -0.796875 1.34375 -1.234375 C 1.007812 -1.671875 0.828125 -2.171875 0.796875 -2.734375 L 2.390625 -2.734375 C 2.441406 -2.273438 2.660156 -1.894531 3.046875 -1.59375 C 3.441406 -1.300781 3.957031 -1.15625 4.59375 -1.15625 C 5.175781 -1.15625 5.640625 -1.285156 5.984375 -1.546875 C 6.328125 -1.804688 6.5 -2.132812 6.5 -2.53125 C 6.5 -2.9375 6.316406 -3.238281 5.953125 -3.4375 C 5.585938 -3.632812 5.023438 -3.832031 4.265625 -4.03125 C 3.578125 -4.207031 3.015625 -4.390625 2.578125 -4.578125 C 2.140625 -4.765625 1.765625 -5.039062 1.453125 -5.40625 C 1.140625 -5.78125 0.984375 -6.269531 0.984375 -6.875 C 0.984375 -7.34375 1.125 -7.773438 1.40625 -8.171875 C 1.695312 -8.566406 2.101562 -8.878906 2.625 -9.109375 C 3.144531 -9.347656 3.738281 -9.46875 4.40625 -9.46875 C 5.4375 -9.46875 6.269531 -9.207031 6.90625 -8.6875 C 7.539062 -8.164062 7.878906 -7.453125 7.921875 -6.546875 L 6.375 -6.546875 C 6.34375 -7.035156 6.144531 -7.425781 5.78125 -7.71875 C 5.425781 -8.007812 4.953125 -8.15625 4.359375 -8.15625 C 3.796875 -8.15625 3.347656 -8.035156 3.015625 -7.796875 C 2.691406 -7.566406 2.53125 -7.257812 2.53125 -6.875 C 2.53125 -6.5625 2.628906 -6.304688 2.828125 -6.109375 C 3.023438 -5.910156 3.273438 -5.75 3.578125 -5.625 C 3.878906 -5.507812 4.296875 -5.378906 4.828125 -5.234375 C 5.492188 -5.054688 6.035156 -4.878906 6.453125 -4.703125 C 6.878906 -4.523438 7.238281 -4.257812 7.53125 -3.90625 C 7.832031 -3.5625 7.988281 -3.101562 8 -2.53125 C 8 -2.019531 7.859375 -1.5625 7.578125 -1.15625 C 7.296875 -0.75 6.894531 -0.425781 6.375 -0.1875 C 5.863281 0.0390625 5.273438 0.15625 4.609375 0.15625 Z M 5.25 0.828125 C 5.375 1.359375 5.4375 1.832031 5.4375 2.25 C 5.4375 3.550781 4.863281 4.203125 3.71875 4.203125 L 3.71875 3.484375 C 4.25 3.484375 4.515625 3.164062 4.515625 2.53125 L 4.515625 2.234375 L 3.71875 2.234375 L 3.71875 0.828125 Z M 5.25 0.828125 "/></g></g></g></g></g></svg>