<svg xmlns="http://www.w3.org/2000/svg" xmlns:xlink="http://www.w3.org/1999/xlink" width="128" zoomAndPan="magnify" viewBox="0 0 96 95.999999" height="128" preserveAspectRatio="xMidYMid meet" version="1.0"><defs><clipPath id="b00d9fa7c0"><path d="M 17.25 0 L 78.75 0 C 83.324219 0 87.710938 1.816406 90.949219 5.050781 C 94.183594 8.289062 96 12.675781 96 17.25 L 96 78.75 C 96 83.324219 94.183594 87.710938 90.949219 90.949219 C 87.710938 94.183594 83.324219 96 78.75 96 L 17.25 96 C 12.675781 96 8.289062 94.183594 5.050781 90.949219 C 1.816406 87.710938 0 83.324219 0 78.75 L 0 17.25 C 0 12.675781 1.816406 8.289062 5.050781 5.050781 C 8.289062 1.816406 12.675781 0 17.25 0 Z M 17.25 0 " clip-rule="nonzero"/></clipPath><clipPath id="7157143f71"><path d="M 0 0 L 96 0 L 96 96 L 0 96 Z M 0 0 " clip-rule="nonzero"/></clipPath><clipPath id="fec863d62b"><path d="M 17.25 0 L 78.75 0 C 83.324219 0 87.710938 1.816406 90.949219 5.050781 C 94.183594 8.289062 96 12.675781 96 17.25 L 96 78.75 C 96 83.324219 94.183594 87.710938 90.949219 90.949219 C 87.710938 94.183594 83.324219 96 78.75 96 L 17.25 96 C 12.675781 96 8.289062 94.183594 5.050781 90.949219 C 1.816406 87.710938 0 83.324219 0 78.75 L 0 17.25 C 0 12.675781 1.816406 8.289062 5.050781 5.050781 C 8.289062 1.816406 12.675781 0 17.25 0 Z M 17.25 0 " clip-rule="nonzero"/></clipPath><linearGradient x1="0" gradientTransform="matrix(0.375, 0, 0, 0.375, 0.0000005, 0.000002)" y1="256" x2="256" gradientUnits="userSpaceOnUse" y2="0" id="43840b5665"><stop stop-opacity="1" stop-color="rgb(2.349854%, 48.239136%, 76.078796%)" offset="0"/><stop stop-opacity="1" stop-color="rgb(2.349854%, 48.347473%, 76.078796%)" offset="0.0078125"/><stop stop-opacity="1" stop-color="rgb(2.349854%, 48.565674%, 76.078796%)" offset="0.015625"/><stop stop-opacity="1" stop-color="rgb(2.349854%, 48.782349%, 76.078796%)" offset="0.0234375"/><stop stop-opacity="1" stop-color="rgb(2.349854%, 49.000549%, 76.078796%)" offset="0.03125"/><stop stop-opacity="1" stop-color="rgb(2.349854%, 49.217224%, 76.078796%)" offset="0.0390625"/><stop stop-opacity="1" stop-color="rgb(2.349854%, 49.435425%, 76.078796%)" offset="0.046875"/><stop stop-opacity="1" stop-color="rgb(2.349854%, 49.6521%, 76.078796%)" offset="0.0546875"/><stop stop-opacity="1" stop-color="rgb(2.349854%, 49.8703%, 76.078796%)" offset="0.0625"/><stop stop-opacity="1" stop-color="rgb(2.349854%, 50.086975%, 76.078796%)" offset="0.0703125"/><stop stop-opacity="1" stop-color="rgb(2.349854%, 50.305176%, 76.078796%)" offset="0.078125"/><stop stop-opacity="1" stop-color="rgb(2.349854%, 50.521851%, 76.078796%)" offset="0.0859375"/><stop stop-opacity="1" stop-color="rgb(2.349854%, 50.740051%, 76.078796%)" offset="0.09375"/><stop stop-opacity="1" stop-color="rgb(2.349854%, 50.958252%, 76.078796%)" offset="0.101562"/><stop stop-opacity="1" stop-color="rgb(2.349854%, 51.174927%, 76.078796%)" offset="0.109375"/><stop stop-opacity="1" stop-color="rgb(2.349854%, 51.393127%, 76.078796%)" offset="0.117188"/><stop stop-opacity="1" stop-color="rgb(2.349854%, 51.609802%, 76.078796%)" offset="0.125"/><stop stop-opacity="1" stop-color="rgb(2.349854%, 51.828003%, 76.078796%)" offset="0.132812"/><stop stop-opacity="1" stop-color="rgb(2.349854%, 52.044678%, 76.078796%)" offset="0.140625"/><stop stop-opacity="1" stop-color="rgb(2.349854%, 52.262878%, 76.078796%)" offset="0.148438"/><stop stop-opacity="1" stop-color="rgb(2.349854%, 52.479553%, 76.078796%)" offset="0.15625"/><stop stop-opacity="1" stop-color="rgb(2.349854%, 52.697754%, 76.078796%)" offset="0.164062"/><stop stop-opacity="1" stop-color="rgb(2.349854%, 52.914429%, 76.078796%)" offset="0.171875"/><stop stop-opacity="1" stop-color="rgb(2.349854%, 53.132629%, 76.078796%)" offset="0.179688"/><stop stop-opacity="1" stop-color="rgb(2.349854%, 53.35083%, 76.078796%)" offset="0.1875"/><stop stop-opacity="1" stop-color="rgb(2.349854%, 53.567505%, 76.078796%)" offset="0.195312"/><stop stop-opacity="1" stop-color="rgb(2.349854%, 53.785706%, 76.078796%)" offset="0.203125"/><stop stop-opacity="1" stop-color="rgb(2.349854%, 54.00238%, 76.078796%)" offset="0.210938"/><stop stop-opacity="1" stop-color="rgb(2.349854%, 54.220581%, 76.078796%)" offset="0.21875"/><stop stop-opacity="1" stop-color="rgb(2.349854%, 54.437256%, 76.078796%)" offset="0.226562"/><stop stop-opacity="1" stop-color="rgb(2.349854%, 54.655457%, 76.078796%)" offset="0.234375"/><stop stop-opacity="1" stop-color="rgb(2.349854%, 54.872131%, 76.078796%)" offset="0.242188"/><stop stop-opacity="1" stop-color="rgb(2.349854%, 55.090332%, 76.078796%)" offset="0.25"/><stop stop-opacity="1" stop-color="rgb(2.349854%, 55.307007%, 76.078796%)" offset="0.257812"/><stop stop-opacity="1" stop-color="rgb(2.349854%, 55.525208%, 76.078796%)" offset="0.265625"/><stop stop-opacity="1" stop-color="rgb(2.349854%, 55.741882%, 76.078796%)" offset="0.273438"/><stop stop-opacity="1" stop-color="rgb(2.349854%, 55.960083%, 76.078796%)" offset="0.28125"/><stop stop-opacity="1" stop-color="rgb(2.349854%, 56.178284%, 76.078796%)" offset="0.289062"/><stop stop-opacity="1" stop-color="rgb(2.349854%, 56.394958%, 76.078796%)" offset="0.296875"/><stop stop-opacity="1" stop-color="rgb(2.349854%, 56.613159%, 76.078796%)" offset="0.304688"/><stop stop-opacity="1" stop-color="rgb(2.349854%, 56.829834%, 76.078796%)" offset="0.3125"/><stop stop-opacity="1" stop-color="rgb(2.349854%, 57.048035%, 76.078796%)" offset="0.320312"/><stop stop-opacity="1" stop-color="rgb(2.349854%, 57.264709%, 76.078796%)" offset="0.328125"/><stop stop-opacity="1" stop-color="rgb(2.349854%, 57.48291%, 76.078796%)" offset="0.335938"/><stop stop-opacity="1" stop-color="rgb(2.349854%, 57.699585%, 76.078796%)" offset="0.34375"/><stop stop-opacity="1" stop-color="rgb(2.349854%, 57.917786%, 76.078796%)" offset="0.351562"/><stop stop-opacity="1" stop-color="rgb(2.349854%, 58.13446%, 76.078796%)" offset="0.359375"/><stop stop-opacity="1" stop-color="rgb(2.349854%, 58.352661%, 76.078796%)" offset="0.367188"/><stop stop-opacity="1" stop-color="rgb(2.349854%, 58.569336%, 76.078796%)" offset="0.375"/><stop stop-opacity="1" stop-color="rgb(2.349854%, 58.787537%, 76.078796%)" offset="0.382812"/><stop stop-opacity="1" stop-color="rgb(2.349854%, 59.005737%, 76.078796%)" offset="0.390625"/><stop stop-opacity="1" stop-color="rgb(2.349854%, 59.222412%, 76.078796%)" offset="0.398438"/><stop stop-opacity="1" stop-color="rgb(2.349854%, 59.440613%, 76.078796%)" offset="0.40625"/><stop stop-opacity="1" stop-color="rgb(2.349854%, 59.657288%, 76.078796%)" offset="0.414062"/><stop stop-opacity="1" stop-color="rgb(2.349854%, 59.875488%, 76.078796%)" offset="0.421875"/><stop stop-opacity="1" stop-color="rgb(2.349854%, 60.092163%, 76.078796%)" offset="0.429688"/><stop stop-opacity="1" stop-color="rgb(2.349854%, 60.310364%, 76.078796%)" offset="0.4375"/><stop stop-opacity="1" stop-color="rgb(2.349854%, 60.527039%, 76.078796%)" offset="0.445312"/><stop stop-opacity="1" stop-color="rgb(2.349854%, 60.745239%, 76.078796%)" offset="0.453125"/><stop stop-opacity="1" stop-color="rgb(2.349854%, 60.961914%, 76.078796%)" offset="0.460938"/><stop stop-opacity="1" stop-color="rgb(2.349854%, 61.180115%, 76.078796%)" offset="0.46875"/><stop stop-opacity="1" stop-color="rgb(2.349854%, 61.398315%, 76.078796%)" offset="0.476562"/><stop stop-opacity="1" stop-color="rgb(2.349854%, 61.61499%, 76.078796%)" offset="0.484375"/><stop stop-opacity="1" stop-color="rgb(2.349854%, 61.833191%, 76.078796%)" offset="0.492188"/><stop stop-opacity="1" stop-color="rgb(2.349854%, 62.049866%, 76.078796%)" offset="0.5"/><stop stop-opacity="1" stop-color="rgb(2.349854%, 62.268066%, 76.078796%)" offset="0.507812"/><stop stop-opacity="1" stop-color="rgb(2.349854%, 62.484741%, 76.078796%)" offset="0.515625"/><stop stop-opacity="1" stop-color="rgb(2.349854%, 62.702942%, 76.078796%)" offset="0.523438"/><stop stop-opacity="1" stop-color="rgb(2.349854%, 62.919617%, 76.078796%)" offset="0.53125"/><stop stop-opacity="1" stop-color="rgb(2.349854%, 63.137817%, 76.078796%)" offset="0.539062"/><stop stop-opacity="1" stop-color="rgb(2.349854%, 63.354492%, 76.078796%)" offset="0.546875"/><stop stop-opacity="1" stop-color="rgb(2.349854%, 63.572693%, 76.078796%)" offset="0.554688"/><stop stop-opacity="1" stop-color="rgb(2.349854%, 63.789368%, 76.078796%)" offset="0.5625"/><stop stop-opacity="1" stop-color="rgb(2.349854%, 64.007568%, 76.078796%)" offset="0.570312"/><stop stop-opacity="1" stop-color="rgb(2.349854%, 64.225769%, 76.078796%)" offset="0.578125"/><stop stop-opacity="1" stop-color="rgb(2.349854%, 64.442444%, 76.078796%)" offset="0.585938"/><stop stop-opacity="1" stop-color="rgb(2.349854%, 64.660645%, 76.078796%)" offset="0.59375"/><stop stop-opacity="1" stop-color="rgb(2.349854%, 64.877319%, 76.078796%)" offset="0.601562"/><stop stop-opacity="1" stop-color="rgb(2.349854%, 65.09552%, 76.078796%)" offset="0.609375"/><stop stop-opacity="1" stop-color="rgb(2.349854%, 65.312195%, 76.078796%)" offset="0.617188"/><stop stop-opacity="1" stop-color="rgb(2.349854%, 65.530396%, 76.078796%)" offset="0.625"/><stop stop-opacity="1" stop-color="rgb(2.349854%, 65.74707%, 76.078796%)" offset="0.632812"/><stop stop-opacity="1" stop-color="rgb(2.349854%, 65.965271%, 76.078796%)" offset="0.640625"/><stop stop-opacity="1" stop-color="rgb(2.349854%, 66.181946%, 76.078796%)" offset="0.648438"/><stop stop-opacity="1" stop-color="rgb(2.349854%, 66.400146%, 76.078796%)" offset="0.65625"/><stop stop-opacity="1" stop-color="rgb(2.349854%, 66.616821%, 76.078796%)" offset="0.664062"/><stop stop-opacity="1" stop-color="rgb(2.349854%, 66.835022%, 76.078796%)" offset="0.671875"/><stop stop-opacity="1" stop-color="rgb(2.349854%, 67.053223%, 76.078796%)" offset="0.679688"/><stop stop-opacity="1" stop-color="rgb(2.349854%, 67.269897%, 76.078796%)" offset="0.6875"/><stop stop-opacity="1" stop-color="rgb(2.349854%, 67.488098%, 76.078796%)" offset="0.695312"/><stop stop-opacity="1" stop-color="rgb(2.349854%, 67.704773%, 76.078796%)" offset="0.703125"/><stop stop-opacity="1" stop-color="rgb(2.349854%, 67.922974%, 76.078796%)" offset="0.710938"/><stop stop-opacity="1" stop-color="rgb(2.349854%, 68.139648%, 76.078796%)" offset="0.71875"/><stop stop-opacity="1" stop-color="rgb(2.349854%, 68.357849%, 76.078796%)" offset="0.726562"/><stop stop-opacity="1" stop-color="rgb(2.349854%, 68.574524%, 76.078796%)" offset="0.734375"/><stop stop-opacity="1" stop-color="rgb(2.349854%, 68.792725%, 76.078796%)" offset="0.742188"/><stop stop-opacity="1" stop-color="rgb(2.349854%, 69.009399%, 76.078796%)" offset="0.75"/><stop stop-opacity="1" stop-color="rgb(2.349854%, 69.2276%, 76.078796%)" offset="0.757812"/><stop stop-opacity="1" stop-color="rgb(2.349854%, 69.445801%, 76.078796%)" offset="0.765625"/><stop stop-opacity="1" stop-color="rgb(2.349854%, 69.662476%, 76.078796%)" offset="0.773438"/><stop stop-opacity="1" stop-color="rgb(2.349854%, 69.880676%, 76.078796%)" offset="0.78125"/><stop stop-opacity="1" stop-color="rgb(2.349854%, 70.097351%, 76.078796%)" offset="0.789062"/><stop stop-opacity="1" stop-color="rgb(2.349854%, 70.315552%, 76.078796%)" offset="0.796875"/><stop stop-opacity="1" stop-color="rgb(2.349854%, 70.532227%, 76.078796%)" offset="0.804688"/><stop stop-opacity="1" stop-color="rgb(2.349854%, 70.750427%, 76.078796%)" offset="0.8125"/><stop stop-opacity="1" stop-color="rgb(2.349854%, 70.967102%, 76.078796%)" offset="0.820312"/><stop stop-opacity="1" stop-color="rgb(2.349854%, 71.185303%, 76.078796%)" offset="0.828125"/><stop stop-opacity="1" stop-color="rgb(2.349854%, 71.401978%, 76.078796%)" offset="0.835938"/><stop stop-opacity="1" stop-color="rgb(2.349854%, 71.620178%, 76.078796%)" offset="0.84375"/><stop stop-opacity="1" stop-color="rgb(2.349854%, 71.836853%, 76.078796%)" offset="0.851562"/><stop stop-opacity="1" stop-color="rgb(2.349854%, 72.055054%, 76.078796%)" offset="0.859375"/><stop stop-opacity="1" stop-color="rgb(2.349854%, 72.273254%, 76.078796%)" offset="0.867188"/><stop stop-opacity="1" stop-color="rgb(2.349854%, 72.489929%, 76.078796%)" offset="0.875"/><stop stop-opacity="1" stop-color="rgb(2.349854%, 72.70813%, 76.078796%)" offset="0.882812"/><stop stop-opacity="1" stop-color="rgb(2.349854%, 72.924805%, 76.078796%)" offset="0.890625"/><stop stop-opacity="1" stop-color="rgb(2.349854%, 73.143005%, 76.078796%)" offset="0.898438"/><stop stop-opacity="1" stop-color="rgb(2.349854%, 73.35968%, 76.078796%)" offset="0.90625"/><stop stop-opacity="1" stop-color="rgb(2.349854%, 73.577881%, 76.078796%)" offset="0.914062"/><stop stop-opacity="1" stop-color="rgb(2.349854%, 73.794556%, 76.078796%)" offset="0.921875"/><stop stop-opacity="1" stop-color="rgb(2.349854%, 74.012756%, 76.078796%)" offset="0.929688"/><stop stop-opacity="1" stop-color="rgb(2.349854%, 74.229431%, 76.078796%)" offset="0.9375"/><stop stop-opacity="1" stop-color="rgb(2.349854%, 74.447632%, 76.078796%)" offset="0.945312"/><stop stop-opacity="1" stop-color="rgb(2.349854%, 74.665833%, 76.078796%)" offset="0.953125"/><stop stop-opacity="1" stop-color="rgb(2.349854%, 74.882507%, 76.078796%)" offset="0.960938"/><stop stop-opacity="1" stop-color="rgb(2.349854%, 75.100708%, 76.078796%)" offset="0.96875"/><stop stop-opacity="1" stop-color="rgb(2.349854%, 75.317383%, 76.078796%)" offset="0.976562"/><stop stop-opacity="1" stop-color="rgb(2.349854%, 75.535583%, 76.078796%)" offset="0.984375"/><stop stop-opacity="1" stop-color="rgb(2.349854%, 75.752258%, 76.078796%)" offset="0.992188"/><stop stop-opacity="1" stop-color="rgb(2.349854%, 75.970459%, 76.078796%)" offset="1"/></linearGradient><clipPath id="3e6cabf365"><rect x="0" width="96" y="0" height="96"/></clipPath><clipPath id="111ca1be86"><path d="M 34 72 L 42 72 L 42 79.300781 L 34 79.300781 Z M 34 72 " clip-rule="nonzero"/></clipPath><clipPath id="a82ff24c7a"><path d="M 59 72 L 67 72 L 67 79.300781 L 59 79.300781 Z M 59 72 " clip-rule="nonzero"/></clipPath><clipPath id="2ef4f747c3"><path d="M 12.703125 18.550781 L 77.203125 18.550781 L 77.203125 69 L 12.703125 69 Z M 12.703125 18.550781 " clip-rule="nonzero"/></clipPath></defs><g clip-path="url(#b00d9fa7c0)"><g transform="matrix(1, 0, 0, 1, 0, -0.000000000000008101)"><g clip-path="url(#3e6cabf365)"><g clip-path="url(#7157143f71)"><g clip-path="url(#fec863d62b)"><rect x="-21.12" fill="url(#43840b5665)" width="138.24" height="138.239999" y="-21.12"/></g></g></g></g></g><g clip-path="url(#111ca1be86)"><path fill="#ffffff" d="M 41.328125 75.820312 C 41.328125 76.292969 41.234375 76.75 41.054688 77.1875 C 40.875 77.625 40.613281 78.011719 40.277344 78.347656 C 39.945312 78.683594 39.554688 78.941406 39.117188 79.125 C 38.679688 79.304688 38.222656 79.398438 37.75 79.398438 C 37.273438 79.398438 36.816406 79.304688 36.378906 79.125 C 35.941406 78.941406 35.554688 78.683594 35.21875 78.347656 C 34.882812 78.011719 34.625 77.625 34.441406 77.1875 C 34.261719 76.75 34.171875 76.292969 34.171875 75.820312 C 34.171875 75.34375 34.261719 74.886719 34.441406 74.449219 C 34.625 74.011719 34.882812 73.625 35.21875 73.289062 C 35.554688 72.953125 35.941406 72.695312 36.378906 72.511719 C 36.816406 72.332031 37.273438 72.242188 37.75 72.242188 C 38.222656 72.242188 38.679688 72.332031 39.117188 72.511719 C 39.554688 72.695312 39.945312 72.953125 40.277344 73.289062 C 40.613281 73.625 40.875 74.011719 41.054688 74.449219 C 41.234375 74.886719 41.328125 75.34375 41.328125 75.820312 Z M 41.328125 75.820312 " fill-opacity="1" fill-rule="nonzero"/></g><g clip-path="url(#a82ff24c7a)"><path fill="#ffffff" d="M 66.375 75.820312 C 66.375 76.292969 66.28125 76.75 66.101562 77.1875 C 65.917969 77.625 65.660156 78.011719 65.324219 78.347656 C 64.992188 78.683594 64.601562 78.941406 64.164062 79.125 C 63.726562 79.304688 63.269531 79.398438 62.796875 79.398438 C 62.320312 79.398438 61.863281 79.304688 61.425781 79.125 C 60.988281 78.941406 60.601562 78.683594 60.265625 78.347656 C 59.929688 78.011719 59.671875 77.625 59.488281 77.1875 C 59.308594 76.75 59.21875 76.292969 59.21875 75.820312 C 59.21875 75.34375 59.308594 74.886719 59.488281 74.449219 C 59.671875 74.011719 59.929688 73.625 60.265625 73.289062 C 60.601562 72.953125 60.988281 72.695312 61.425781 72.511719 C 61.863281 72.332031 62.320312 72.242188 62.796875 72.242188 C 63.269531 72.242188 63.726562 72.332031 64.164062 72.511719 C 64.601562 72.695312 64.992188 72.953125 65.324219 73.289062 C 65.660156 73.625 65.917969 74.011719 66.101562 74.449219 C 66.28125 74.886719 66.375 75.34375 66.375 75.820312 Z M 66.375 75.820312 " fill-opacity="1" fill-rule="nonzero"/></g><g clip-path="url(#2ef4f747c3)"><path fill="#ffffff" d="M 69.765625 51.902344 L 76.921875 30.433594 C 77.011719 30.164062 77.070312 29.890625 77.09375 29.605469 C 77.117188 29.324219 77.105469 29.042969 77.066406 28.761719 C 77.023438 28.484375 76.945312 28.210938 76.839844 27.949219 C 76.734375 27.6875 76.597656 27.441406 76.429688 27.210938 C 76.265625 26.980469 76.074219 26.773438 75.859375 26.589844 C 75.644531 26.40625 75.410156 26.25 75.160156 26.117188 C 74.90625 25.988281 74.644531 25.890625 74.367188 25.824219 C 74.09375 25.757812 73.8125 25.726562 73.53125 25.726562 L 30.59375 25.726562 L 30.59375 25.773438 C 30.042969 24.691406 29.355469 23.703125 28.535156 22.808594 C 27.710938 21.914062 26.78125 21.148438 25.746094 20.511719 C 24.710938 19.875 23.605469 19.394531 22.4375 19.0625 C 21.269531 18.734375 20.074219 18.566406 18.859375 18.570312 L 16.28125 18.570312 C 15.804688 18.570312 15.347656 18.660156 14.910156 18.839844 C 14.472656 19.023438 14.085938 19.28125 13.75 19.617188 C 13.414062 19.953125 13.15625 20.339844 12.972656 20.777344 C 12.792969 21.214844 12.703125 21.671875 12.703125 22.148438 C 12.703125 22.621094 12.792969 23.078125 12.972656 23.515625 C 13.15625 23.953125 13.414062 24.339844 13.75 24.675781 C 14.085938 25.011719 14.472656 25.269531 14.910156 25.453125 C 15.347656 25.632812 15.804688 25.726562 16.28125 25.726562 L 18.859375 25.726562 C 19.578125 25.722656 20.273438 25.84375 20.945312 26.089844 C 21.621094 26.335938 22.230469 26.691406 22.78125 27.15625 C 23.328125 27.621094 23.777344 28.164062 24.132812 28.785156 C 24.484375 29.410156 24.722656 30.078125 24.839844 30.785156 L 29.878906 60.75 C 29.960938 61.296875 30.089844 61.835938 30.269531 62.359375 C 30.449219 62.882812 30.671875 63.386719 30.9375 63.871094 C 31.207031 64.355469 31.515625 64.8125 31.867188 65.238281 C 32.214844 65.667969 32.601562 66.0625 33.023438 66.421875 C 33.441406 66.785156 33.890625 67.105469 34.367188 67.382812 C 34.847656 67.664062 35.34375 67.898438 35.863281 68.089844 C 36.382812 68.28125 36.914062 68.425781 37.460938 68.519531 C 38.003906 68.617188 38.554688 68.664062 39.109375 68.664062 L 66.375 68.664062 C 66.847656 68.664062 67.304688 68.570312 67.742188 68.390625 C 68.179688 68.207031 68.570312 67.949219 68.902344 67.613281 C 69.238281 67.277344 69.496094 66.890625 69.679688 66.453125 C 69.859375 66.015625 69.953125 65.558594 69.953125 65.085938 C 69.953125 64.609375 69.859375 64.152344 69.679688 63.714844 C 69.496094 63.277344 69.238281 62.890625 68.902344 62.554688 C 68.570312 62.21875 68.179688 61.960938 67.742188 61.777344 C 67.304688 61.597656 66.847656 61.507812 66.375 61.507812 L 39.109375 61.507812 C 38.84375 61.503906 38.589844 61.457031 38.34375 61.363281 C 38.101562 61.269531 37.878906 61.136719 37.679688 60.960938 C 37.484375 60.789062 37.324219 60.585938 37.199219 60.351562 C 37.074219 60.121094 36.996094 59.875 36.960938 59.613281 L 36.0625 54.351562 L 66.375 54.351562 C 66.75 54.351562 67.117188 54.292969 67.472656 54.175781 C 67.828125 54.0625 68.160156 53.894531 68.464844 53.671875 C 68.769531 53.453125 69.03125 53.191406 69.253906 52.890625 C 69.476562 52.585938 69.648438 52.257812 69.765625 51.902344 Z M 69.765625 51.902344 " fill-opacity="1" fill-rule="nonzero"/></g></svg>