<svg xmlns="http://www.w3.org/2000/svg" xmlns:xlink="http://www.w3.org/1999/xlink" width="400" zoomAndPan="magnify" viewBox="0 0 300 74.999997" height="100" preserveAspectRatio="xMidYMid meet" version="1.0"><defs><g/><clipPath id="40536cb119"><path d="M 56.464844 20.515625 L 282.476562 20.515625 L 282.476562 60.421875 L 56.464844 60.421875 Z M 56.464844 20.515625 " clip-rule="nonzero"/></clipPath><clipPath id="db9795b23b"><path d="M 267.304688 20.515625 C 275.664062 20.515625 282.441406 29.449219 282.441406 40.46875 C 282.441406 51.488281 275.664062 60.421875 267.304688 60.421875 L 71.601562 60.421875 C 63.242188 60.421875 56.464844 51.488281 56.464844 40.46875 C 56.464844 29.449219 63.242188 20.515625 71.601562 20.515625 Z M 267.304688 20.515625 " clip-rule="nonzero"/></clipPath><clipPath id="fcc22f032a"><path d="M 0.464844 0.515625 L 226.476562 0.515625 L 226.476562 40.421875 L 0.464844 40.421875 Z M 0.464844 0.515625 " clip-rule="nonzero"/></clipPath><clipPath id="a19c57457e"><path d="M 211.304688 0.515625 C 219.664062 0.515625 226.441406 9.449219 226.441406 20.46875 C 226.441406 31.488281 219.664062 40.421875 211.304688 40.421875 L 15.601562 40.421875 C 7.242188 40.421875 0.464844 31.488281 0.464844 20.46875 C 0.464844 9.449219 7.242188 0.515625 15.601562 0.515625 Z M 211.304688 0.515625 " clip-rule="nonzero"/></clipPath><clipPath id="2ece93ec19"><rect x="0" width="227" y="0" height="41"/></clipPath><clipPath id="95426a7d61"><path d="M 20.96875 20.511719 L 75.367188 20.511719 L 75.367188 60.414062 L 20.96875 60.414062 Z M 20.96875 20.511719 " clip-rule="nonzero"/></clipPath><clipPath id="dc1ce1160c"><path d="M 20.96875 40.464844 C 20.96875 51.484375 29.902344 60.414062 40.921875 60.414062 L 70.425781 60.414062 C 74.707031 58.292969 78.957031 51.5 70.425781 41.3125 C 60.148438 31.125 66.144531 23.203125 70.425781 20.511719 L 40.921875 20.511719 C 29.902344 20.511719 20.96875 29.445312 20.96875 40.464844 Z M 20.96875 40.464844 " clip-rule="nonzero"/></clipPath><clipPath id="f5be3b3893"><path d="M 0.96875 0.511719 L 55.355469 0.511719 L 55.355469 40.414062 L 0.96875 40.414062 Z M 0.96875 0.511719 " clip-rule="nonzero"/></clipPath><clipPath id="bfc7d8f730"><path d="M 0.96875 20.464844 C 0.96875 31.484375 9.902344 40.414062 20.921875 40.414062 L 50.425781 40.414062 C 54.707031 38.292969 58.957031 31.5 50.425781 21.3125 C 40.148438 11.125 46.144531 3.203125 50.425781 0.511719 L 20.921875 0.511719 C 9.902344 0.511719 0.96875 9.445312 0.96875 20.464844 Z M 0.96875 20.464844 " clip-rule="nonzero"/></clipPath><linearGradient x1="-23.232961" gradientTransform="matrix(0, -0.155869, 0.155869, 0, 0.968021, 40.415988)" y1="325.697961" x2="279.230741" gradientUnits="userSpaceOnUse" y2="23.235259" id="32e7f12d41"><stop stop-opacity="1" stop-color="rgb(2.349854%, 48.239136%, 76.078796%)" offset="0"/><stop stop-opacity="1" stop-color="rgb(2.349854%, 48.347473%, 76.078796%)" offset="0.0078125"/><stop stop-opacity="1" stop-color="rgb(2.349854%, 48.565674%, 76.078796%)" offset="0.015625"/><stop stop-opacity="1" stop-color="rgb(2.349854%, 48.782349%, 76.078796%)" offset="0.0234375"/><stop stop-opacity="1" stop-color="rgb(2.349854%, 49.000549%, 76.078796%)" offset="0.03125"/><stop stop-opacity="1" stop-color="rgb(2.349854%, 49.217224%, 76.078796%)" offset="0.0390625"/><stop stop-opacity="1" stop-color="rgb(2.349854%, 49.435425%, 76.078796%)" offset="0.046875"/><stop stop-opacity="1" stop-color="rgb(2.349854%, 49.6521%, 76.078796%)" offset="0.0546875"/><stop stop-opacity="1" stop-color="rgb(2.349854%, 49.8703%, 76.078796%)" offset="0.0625"/><stop stop-opacity="1" stop-color="rgb(2.349854%, 50.086975%, 76.078796%)" offset="0.0703125"/><stop stop-opacity="1" stop-color="rgb(2.349854%, 50.305176%, 76.078796%)" offset="0.078125"/><stop stop-opacity="1" stop-color="rgb(2.349854%, 50.521851%, 76.078796%)" offset="0.0859375"/><stop stop-opacity="1" stop-color="rgb(2.349854%, 50.740051%, 76.078796%)" offset="0.09375"/><stop stop-opacity="1" stop-color="rgb(2.349854%, 50.958252%, 76.078796%)" offset="0.101562"/><stop stop-opacity="1" stop-color="rgb(2.349854%, 51.174927%, 76.078796%)" offset="0.109375"/><stop stop-opacity="1" stop-color="rgb(2.349854%, 51.393127%, 76.078796%)" offset="0.117187"/><stop stop-opacity="1" stop-color="rgb(2.349854%, 51.609802%, 76.078796%)" offset="0.125"/><stop stop-opacity="1" stop-color="rgb(2.349854%, 51.828003%, 76.078796%)" offset="0.132812"/><stop stop-opacity="1" stop-color="rgb(2.349854%, 52.044678%, 76.078796%)" offset="0.140625"/><stop stop-opacity="1" stop-color="rgb(2.349854%, 52.262878%, 76.078796%)" offset="0.148438"/><stop stop-opacity="1" stop-color="rgb(2.349854%, 52.479553%, 76.078796%)" offset="0.15625"/><stop stop-opacity="1" stop-color="rgb(2.349854%, 52.697754%, 76.078796%)" offset="0.164062"/><stop stop-opacity="1" stop-color="rgb(2.349854%, 52.914429%, 76.078796%)" offset="0.171875"/><stop stop-opacity="1" stop-color="rgb(2.349854%, 53.132629%, 76.078796%)" offset="0.179688"/><stop stop-opacity="1" stop-color="rgb(2.349854%, 53.349304%, 76.078796%)" offset="0.1875"/><stop stop-opacity="1" stop-color="rgb(2.349854%, 53.567505%, 76.078796%)" offset="0.195312"/><stop stop-opacity="1" stop-color="rgb(2.349854%, 53.785706%, 76.078796%)" offset="0.203125"/><stop stop-opacity="1" stop-color="rgb(2.349854%, 54.00238%, 76.078796%)" offset="0.210937"/><stop stop-opacity="1" stop-color="rgb(2.349854%, 54.220581%, 76.078796%)" offset="0.21875"/><stop stop-opacity="1" stop-color="rgb(2.349854%, 54.437256%, 76.078796%)" offset="0.226562"/><stop stop-opacity="1" stop-color="rgb(2.349854%, 54.655457%, 76.078796%)" offset="0.234375"/><stop stop-opacity="1" stop-color="rgb(2.349854%, 54.872131%, 76.078796%)" offset="0.242187"/><stop stop-opacity="1" stop-color="rgb(2.349854%, 55.090332%, 76.078796%)" offset="0.25"/><stop stop-opacity="1" stop-color="rgb(2.349854%, 55.307007%, 76.078796%)" offset="0.257812"/><stop stop-opacity="1" stop-color="rgb(2.349854%, 55.525208%, 76.078796%)" offset="0.265625"/><stop stop-opacity="1" stop-color="rgb(2.349854%, 55.741882%, 76.078796%)" offset="0.273438"/><stop stop-opacity="1" stop-color="rgb(2.349854%, 55.960083%, 76.078796%)" offset="0.28125"/><stop stop-opacity="1" stop-color="rgb(2.349854%, 56.176758%, 76.078796%)" offset="0.289063"/><stop stop-opacity="1" stop-color="rgb(2.349854%, 56.394958%, 76.078796%)" offset="0.296875"/><stop stop-opacity="1" stop-color="rgb(2.349854%, 56.613159%, 76.078796%)" offset="0.304688"/><stop stop-opacity="1" stop-color="rgb(2.349854%, 56.829834%, 76.078796%)" offset="0.3125"/><stop stop-opacity="1" stop-color="rgb(2.349854%, 57.048035%, 76.078796%)" offset="0.320313"/><stop stop-opacity="1" stop-color="rgb(2.349854%, 57.264709%, 76.078796%)" offset="0.328125"/><stop stop-opacity="1" stop-color="rgb(2.349854%, 57.48291%, 76.078796%)" offset="0.335938"/><stop stop-opacity="1" stop-color="rgb(2.349854%, 57.699585%, 76.078796%)" offset="0.34375"/><stop stop-opacity="1" stop-color="rgb(2.349854%, 57.917786%, 76.078796%)" offset="0.351563"/><stop stop-opacity="1" stop-color="rgb(2.349854%, 58.13446%, 76.078796%)" offset="0.359375"/><stop stop-opacity="1" stop-color="rgb(2.349854%, 58.352661%, 76.078796%)" offset="0.367188"/><stop stop-opacity="1" stop-color="rgb(2.349854%, 58.569336%, 76.078796%)" offset="0.375"/><stop stop-opacity="1" stop-color="rgb(2.349854%, 58.787537%, 76.078796%)" offset="0.382813"/><stop stop-opacity="1" stop-color="rgb(2.349854%, 59.005737%, 76.078796%)" offset="0.390625"/><stop stop-opacity="1" stop-color="rgb(2.349854%, 59.222412%, 76.078796%)" offset="0.398438"/><stop stop-opacity="1" stop-color="rgb(2.349854%, 59.440613%, 76.078796%)" offset="0.40625"/><stop stop-opacity="1" stop-color="rgb(2.349854%, 59.657288%, 76.078796%)" offset="0.414063"/><stop stop-opacity="1" stop-color="rgb(2.349854%, 59.875488%, 76.078796%)" offset="0.421875"/><stop stop-opacity="1" stop-color="rgb(2.349854%, 60.092163%, 76.078796%)" offset="0.423193"/><stop stop-opacity="1" stop-color="rgb(2.349854%, 60.202026%, 76.078796%)" offset="0.429688"/><stop stop-opacity="1" stop-color="rgb(2.349854%, 60.310364%, 76.078796%)" offset="0.4375"/><stop stop-opacity="1" stop-color="rgb(2.349854%, 60.527039%, 76.078796%)" offset="0.445313"/><stop stop-opacity="1" stop-color="rgb(2.349854%, 60.745239%, 76.078796%)" offset="0.453125"/><stop stop-opacity="1" stop-color="rgb(2.349854%, 60.961914%, 76.078796%)" offset="0.460938"/><stop stop-opacity="1" stop-color="rgb(2.349854%, 61.180115%, 76.078796%)" offset="0.46875"/><stop stop-opacity="1" stop-color="rgb(2.349854%, 61.39679%, 76.078796%)" offset="0.476563"/><stop stop-opacity="1" stop-color="rgb(2.349854%, 61.61499%, 76.078796%)" offset="0.484375"/><stop stop-opacity="1" stop-color="rgb(2.349854%, 61.833191%, 76.078796%)" offset="0.492188"/><stop stop-opacity="1" stop-color="rgb(2.349854%, 62.049866%, 76.078796%)" offset="0.5"/><stop stop-opacity="1" stop-color="rgb(2.349854%, 62.268066%, 76.078796%)" offset="0.507812"/><stop stop-opacity="1" stop-color="rgb(2.349854%, 62.484741%, 76.078796%)" offset="0.515625"/><stop stop-opacity="1" stop-color="rgb(2.349854%, 62.702942%, 76.078796%)" offset="0.523438"/><stop stop-opacity="1" stop-color="rgb(2.349854%, 62.919617%, 76.078796%)" offset="0.53125"/><stop stop-opacity="1" stop-color="rgb(2.349854%, 63.137817%, 76.078796%)" offset="0.539062"/><stop stop-opacity="1" stop-color="rgb(2.349854%, 63.354492%, 76.078796%)" offset="0.546875"/><stop stop-opacity="1" stop-color="rgb(2.349854%, 63.572693%, 76.078796%)" offset="0.554688"/><stop stop-opacity="1" stop-color="rgb(2.349854%, 63.789368%, 76.078796%)" offset="0.5625"/><stop stop-opacity="1" stop-color="rgb(2.349854%, 64.007568%, 76.078796%)" offset="0.570313"/><stop stop-opacity="1" stop-color="rgb(2.349854%, 64.224243%, 76.078796%)" offset="0.576807"/><stop stop-opacity="1" stop-color="rgb(2.349854%, 64.334106%, 76.078796%)" offset="0.578125"/><stop stop-opacity="1" stop-color="rgb(2.349854%, 64.442444%, 76.078796%)" offset="0.585938"/><stop stop-opacity="1" stop-color="rgb(2.349854%, 64.660645%, 76.078796%)" offset="0.59375"/><stop stop-opacity="1" stop-color="rgb(2.349854%, 64.877319%, 76.078796%)" offset="0.601563"/><stop stop-opacity="1" stop-color="rgb(2.349854%, 65.09552%, 76.078796%)" offset="0.609375"/><stop stop-opacity="1" stop-color="rgb(2.349854%, 65.312195%, 76.078796%)" offset="0.617188"/><stop stop-opacity="1" stop-color="rgb(2.349854%, 65.530396%, 76.078796%)" offset="0.625"/><stop stop-opacity="1" stop-color="rgb(2.349854%, 65.74707%, 76.078796%)" offset="0.632813"/><stop stop-opacity="1" stop-color="rgb(2.349854%, 65.965271%, 76.078796%)" offset="0.640625"/><stop stop-opacity="1" stop-color="rgb(2.349854%, 66.181946%, 76.078796%)" offset="0.648438"/><stop stop-opacity="1" stop-color="rgb(2.349854%, 66.400146%, 76.078796%)" offset="0.65625"/><stop stop-opacity="1" stop-color="rgb(2.349854%, 66.616821%, 76.078796%)" offset="0.664063"/><stop stop-opacity="1" stop-color="rgb(2.349854%, 66.835022%, 76.078796%)" offset="0.671875"/><stop stop-opacity="1" stop-color="rgb(2.349854%, 67.051697%, 76.078796%)" offset="0.679688"/><stop stop-opacity="1" stop-color="rgb(2.349854%, 67.269897%, 76.078796%)" offset="0.6875"/><stop stop-opacity="1" stop-color="rgb(2.349854%, 67.488098%, 76.078796%)" offset="0.695313"/><stop stop-opacity="1" stop-color="rgb(2.349854%, 67.704773%, 76.078796%)" offset="0.703125"/><stop stop-opacity="1" stop-color="rgb(2.349854%, 67.922974%, 76.078796%)" offset="0.710938"/><stop stop-opacity="1" stop-color="rgb(2.349854%, 68.139648%, 76.078796%)" offset="0.71875"/><stop stop-opacity="1" stop-color="rgb(2.349854%, 68.357849%, 76.078796%)" offset="0.726563"/><stop stop-opacity="1" stop-color="rgb(2.349854%, 68.574524%, 76.078796%)" offset="0.734375"/><stop stop-opacity="1" stop-color="rgb(2.349854%, 68.792725%, 76.078796%)" offset="0.742188"/><stop stop-opacity="1" stop-color="rgb(2.349854%, 69.009399%, 76.078796%)" offset="0.75"/><stop stop-opacity="1" stop-color="rgb(2.349854%, 69.2276%, 76.078796%)" offset="0.757813"/><stop stop-opacity="1" stop-color="rgb(2.349854%, 69.444275%, 76.078796%)" offset="0.765625"/><stop stop-opacity="1" stop-color="rgb(2.349854%, 69.662476%, 76.078796%)" offset="0.773438"/><stop stop-opacity="1" stop-color="rgb(2.349854%, 69.880676%, 76.078796%)" offset="0.78125"/><stop stop-opacity="1" stop-color="rgb(2.349854%, 70.097351%, 76.078796%)" offset="0.789063"/><stop stop-opacity="1" stop-color="rgb(2.349854%, 70.315552%, 76.078796%)" offset="0.796875"/><stop stop-opacity="1" stop-color="rgb(2.349854%, 70.532227%, 76.078796%)" offset="0.804688"/><stop stop-opacity="1" stop-color="rgb(2.349854%, 70.750427%, 76.078796%)" offset="0.8125"/><stop stop-opacity="1" stop-color="rgb(2.349854%, 70.967102%, 76.078796%)" offset="0.820313"/><stop stop-opacity="1" stop-color="rgb(2.349854%, 71.185303%, 76.078796%)" offset="0.828125"/><stop stop-opacity="1" stop-color="rgb(2.349854%, 71.401978%, 76.078796%)" offset="0.835938"/><stop stop-opacity="1" stop-color="rgb(2.349854%, 71.620178%, 76.078796%)" offset="0.84375"/><stop stop-opacity="1" stop-color="rgb(2.349854%, 71.836853%, 76.078796%)" offset="0.851563"/><stop stop-opacity="1" stop-color="rgb(2.349854%, 72.055054%, 76.078796%)" offset="0.859375"/><stop stop-opacity="1" stop-color="rgb(2.349854%, 72.271729%, 76.078796%)" offset="0.867188"/><stop stop-opacity="1" stop-color="rgb(2.349854%, 72.489929%, 76.078796%)" offset="0.875"/><stop stop-opacity="1" stop-color="rgb(2.349854%, 72.70813%, 76.078796%)" offset="0.882812"/><stop stop-opacity="1" stop-color="rgb(2.349854%, 72.924805%, 76.078796%)" offset="0.890625"/><stop stop-opacity="1" stop-color="rgb(2.349854%, 73.143005%, 76.078796%)" offset="0.898438"/><stop stop-opacity="1" stop-color="rgb(2.349854%, 73.35968%, 76.078796%)" offset="0.90625"/><stop stop-opacity="1" stop-color="rgb(2.349854%, 73.577881%, 76.078796%)" offset="0.914062"/><stop stop-opacity="1" stop-color="rgb(2.349854%, 73.794556%, 76.078796%)" offset="0.921875"/><stop stop-opacity="1" stop-color="rgb(2.349854%, 74.012756%, 76.078796%)" offset="0.929688"/><stop stop-opacity="1" stop-color="rgb(2.349854%, 74.229431%, 76.078796%)" offset="0.9375"/><stop stop-opacity="1" stop-color="rgb(2.349854%, 74.447632%, 76.078796%)" offset="0.945312"/><stop stop-opacity="1" stop-color="rgb(2.349854%, 74.664307%, 76.078796%)" offset="0.953125"/><stop stop-opacity="1" stop-color="rgb(2.349854%, 74.882507%, 76.078796%)" offset="0.960938"/><stop stop-opacity="1" stop-color="rgb(2.349854%, 75.099182%, 76.078796%)" offset="0.96875"/><stop stop-opacity="1" stop-color="rgb(2.349854%, 75.317383%, 76.078796%)" offset="0.976562"/><stop stop-opacity="1" stop-color="rgb(2.349854%, 75.535583%, 76.078796%)" offset="0.984375"/><stop stop-opacity="1" stop-color="rgb(2.349854%, 75.752258%, 76.078796%)" offset="0.992188"/><stop stop-opacity="1" stop-color="rgb(2.349854%, 75.970459%, 76.078796%)" offset="1"/></linearGradient><clipPath id="25fcbb664f"><rect x="0" width="56" y="0" height="41"/></clipPath><clipPath id="87baa6defb"><path d="M 39 49 L 43 49 L 43 52.507812 L 39 52.507812 Z M 39 49 " clip-rule="nonzero"/></clipPath><clipPath id="9c7906d5b3"><path d="M 49 49 L 53 49 L 53 52.507812 L 49 52.507812 Z M 49 49 " clip-rule="nonzero"/></clipPath><clipPath id="c0238836d4"><path d="M 31.148438 28.507812 L 56.648438 28.507812 L 56.648438 49 L 31.148438 49 Z M 31.148438 28.507812 " clip-rule="nonzero"/></clipPath></defs><g clip-path="url(#40536cb119)"><g clip-path="url(#db9795b23b)"><g transform="matrix(1, 0, 0, 1, 56, 20)"><g clip-path="url(#2ece93ec19)"><g clip-path="url(#fcc22f032a)"><g clip-path="url(#a19c57457e)"><path fill="#2b2b2b" d="M 0.464844 0.515625 L 226.476562 0.515625 L 226.476562 40.421875 L 0.464844 40.421875 Z M 0.464844 0.515625 " fill-opacity="1" fill-rule="nonzero"/></g></g></g></g></g></g><g clip-path="url(#95426a7d61)"><g clip-path="url(#dc1ce1160c)"><g transform="matrix(1, 0, 0, 1, 20, 20)"><g clip-path="url(#25fcbb664f)"><g clip-path="url(#f5be3b3893)"><g clip-path="url(#bfc7d8f730)"><path fill="url(#32e7f12d41)" d="M 0.96875 40.414062 L 55.355469 40.414062 L 55.355469 0.511719 L 0.96875 0.511719 Z M 0.96875 40.414062 " fill-rule="nonzero"/></g></g></g></g></g></g><g clip-path="url(#87baa6defb)"><path fill="#ffffff" d="M 42.398438 51.011719 C 42.398438 51.199219 42.363281 51.378906 42.292969 51.550781 C 42.21875 51.722656 42.117188 51.875 41.984375 52.007812 C 41.855469 52.140625 41.703125 52.242188 41.53125 52.3125 C 41.359375 52.382812 41.179688 52.417969 40.992188 52.417969 C 40.804688 52.417969 40.625 52.382812 40.453125 52.3125 C 40.28125 52.242188 40.128906 52.140625 39.996094 52.007812 C 39.867188 51.875 39.765625 51.722656 39.691406 51.550781 C 39.621094 51.378906 39.585938 51.199219 39.585938 51.011719 C 39.585938 50.828125 39.621094 50.648438 39.691406 50.476562 C 39.765625 50.300781 39.867188 50.148438 39.996094 50.019531 C 40.128906 49.886719 40.28125 49.785156 40.453125 49.714844 C 40.625 49.640625 40.804688 49.605469 40.992188 49.605469 C 41.179688 49.605469 41.359375 49.640625 41.53125 49.714844 C 41.703125 49.785156 41.855469 49.886719 41.984375 50.019531 C 42.117188 50.148438 42.21875 50.300781 42.292969 50.476562 C 42.363281 50.648438 42.398438 50.828125 42.398438 51.011719 Z M 42.398438 51.011719 " fill-opacity="1" fill-rule="nonzero"/></g><g clip-path="url(#9c7906d5b3)"><path fill="#ffffff" d="M 52.242188 51.011719 C 52.242188 51.199219 52.207031 51.378906 52.136719 51.550781 C 52.0625 51.722656 51.960938 51.875 51.828125 52.007812 C 51.699219 52.140625 51.546875 52.242188 51.375 52.3125 C 51.203125 52.382812 51.023438 52.417969 50.835938 52.417969 C 50.648438 52.417969 50.46875 52.382812 50.296875 52.3125 C 50.125 52.242188 49.972656 52.140625 49.839844 52.007812 C 49.710938 51.875 49.609375 51.722656 49.535156 51.550781 C 49.464844 51.378906 49.429688 51.199219 49.429688 51.011719 C 49.429688 50.828125 49.464844 50.648438 49.535156 50.476562 C 49.609375 50.300781 49.710938 50.148438 49.839844 50.019531 C 49.972656 49.886719 50.125 49.785156 50.296875 49.714844 C 50.46875 49.640625 50.648438 49.605469 50.835938 49.605469 C 51.023438 49.605469 51.203125 49.640625 51.375 49.714844 C 51.546875 49.785156 51.699219 49.886719 51.828125 50.019531 C 51.960938 50.148438 52.0625 50.300781 52.136719 50.476562 C 52.207031 50.648438 52.242188 50.828125 52.242188 51.011719 Z M 52.242188 51.011719 " fill-opacity="1" fill-rule="nonzero"/></g><g clip-path="url(#c0238836d4)"><path fill="#ffffff" d="M 53.574219 41.613281 L 56.386719 33.175781 C 56.457031 32.960938 56.476562 32.742188 56.445312 32.519531 C 56.410156 32.296875 56.328125 32.09375 56.195312 31.910156 C 56.0625 31.726562 55.894531 31.582031 55.695312 31.480469 C 55.492188 31.378906 55.28125 31.324219 55.054688 31.324219 L 38.179688 31.324219 L 38.179688 31.34375 C 37.964844 30.917969 37.695312 30.53125 37.371094 30.179688 C 37.046875 29.828125 36.679688 29.527344 36.273438 29.277344 C 35.867188 29.027344 35.433594 28.835938 34.972656 28.707031 C 34.515625 28.578125 34.046875 28.511719 33.566406 28.511719 L 32.554688 28.511719 C 32.367188 28.511719 32.1875 28.546875 32.015625 28.621094 C 31.84375 28.691406 31.691406 28.792969 31.558594 28.925781 C 31.429688 29.054688 31.328125 29.207031 31.253906 29.382812 C 31.183594 29.554688 31.148438 29.734375 31.148438 29.917969 C 31.148438 30.105469 31.183594 30.285156 31.253906 30.457031 C 31.328125 30.628906 31.429688 30.78125 31.558594 30.914062 C 31.691406 31.046875 31.84375 31.148438 32.015625 31.21875 C 32.1875 31.289062 32.367188 31.324219 32.554688 31.324219 L 33.566406 31.324219 C 33.851562 31.324219 34.125 31.371094 34.386719 31.46875 C 34.652344 31.566406 34.894531 31.707031 35.109375 31.886719 C 35.324219 32.070312 35.5 32.285156 35.640625 32.527344 C 35.78125 32.773438 35.871094 33.035156 35.917969 33.3125 L 37.898438 45.089844 C 37.964844 45.523438 38.101562 45.933594 38.316406 46.316406 C 38.527344 46.699219 38.800781 47.035156 39.132812 47.320312 C 39.46875 47.605469 39.839844 47.824219 40.25 47.976562 C 40.664062 48.128906 41.085938 48.203125 41.527344 48.199219 L 52.242188 48.199219 C 52.429688 48.199219 52.609375 48.164062 52.78125 48.09375 C 52.953125 48.023438 53.105469 47.921875 53.234375 47.789062 C 53.367188 47.65625 53.46875 47.503906 53.542969 47.332031 C 53.613281 47.160156 53.648438 46.980469 53.648438 46.792969 C 53.648438 46.609375 53.613281 46.429688 53.542969 46.257812 C 53.46875 46.082031 53.367188 45.929688 53.234375 45.800781 C 53.105469 45.667969 52.953125 45.566406 52.78125 45.496094 C 52.609375 45.421875 52.429688 45.386719 52.242188 45.386719 L 41.527344 45.386719 C 41.3125 45.386719 41.125 45.316406 40.964844 45.175781 C 40.804688 45.03125 40.710938 44.855469 40.683594 44.644531 L 40.328125 42.574219 L 52.242188 42.574219 C 52.542969 42.574219 52.816406 42.488281 53.0625 42.308594 C 53.308594 42.132812 53.480469 41.902344 53.574219 41.613281 Z M 53.574219 41.613281 " fill-opacity="1" fill-rule="nonzero"/></g><g fill="#ffffff" fill-opacity="1"><g transform="translate(116.618258, 43.843743)"><g><path d="M 5.796875 -1.546875 L 2.5625 -1.546875 L 2.015625 0 L 0.296875 0 L 3.234375 -8.15625 L 5.140625 -8.15625 L 8.0625 0 L 6.34375 0 Z M 5.359375 -2.859375 L 4.171875 -6.265625 L 3 -2.859375 Z M 5.359375 -2.859375 "/></g></g></g><g fill="#ffffff" fill-opacity="1"><g transform="translate(125.944895, 43.843743)"><g><path d="M 0.390625 -3.25 C 0.390625 -3.90625 0.519531 -4.484375 0.78125 -4.984375 C 1.039062 -5.492188 1.394531 -5.882812 1.84375 -6.15625 C 2.289062 -6.4375 2.789062 -6.578125 3.34375 -6.578125 C 3.769531 -6.578125 4.171875 -6.484375 4.546875 -6.296875 C 4.929688 -6.109375 5.238281 -5.863281 5.46875 -5.5625 L 5.46875 -8.640625 L 7.125 -8.640625 L 7.125 0 L 5.46875 0 L 5.46875 -0.953125 C 5.257812 -0.640625 4.972656 -0.382812 4.609375 -0.1875 C 4.242188 0.0078125 3.820312 0.109375 3.34375 0.109375 C 2.789062 0.109375 2.289062 -0.03125 1.84375 -0.3125 C 1.394531 -0.59375 1.039062 -0.988281 0.78125 -1.5 C 0.519531 -2.007812 0.390625 -2.59375 0.390625 -3.25 Z M 5.46875 -3.234375 C 5.46875 -3.628906 5.390625 -3.96875 5.234375 -4.25 C 5.078125 -4.539062 4.867188 -4.757812 4.609375 -4.90625 C 4.347656 -5.0625 4.066406 -5.140625 3.765625 -5.140625 C 3.453125 -5.140625 3.164062 -5.0625 2.90625 -4.90625 C 2.65625 -4.757812 2.445312 -4.546875 2.28125 -4.265625 C 2.125 -3.984375 2.046875 -3.644531 2.046875 -3.25 C 2.046875 -2.863281 2.125 -2.523438 2.28125 -2.234375 C 2.445312 -1.941406 2.660156 -1.71875 2.921875 -1.5625 C 3.179688 -1.40625 3.460938 -1.328125 3.765625 -1.328125 C 4.066406 -1.328125 4.347656 -1.398438 4.609375 -1.546875 C 4.867188 -1.703125 5.078125 -1.921875 5.234375 -2.203125 C 5.390625 -2.492188 5.46875 -2.835938 5.46875 -3.234375 Z M 5.46875 -3.234375 "/></g></g></g><g fill="#ffffff" fill-opacity="1"><g transform="translate(134.827993, 43.843743)"><g><path d="M 0.390625 -3.25 C 0.390625 -3.90625 0.519531 -4.484375 0.78125 -4.984375 C 1.039062 -5.492188 1.394531 -5.882812 1.84375 -6.15625 C 2.289062 -6.4375 2.789062 -6.578125 3.34375 -6.578125 C 3.820312 -6.578125 4.238281 -6.476562 4.59375 -6.28125 C 4.957031 -6.082031 5.25 -5.835938 5.46875 -5.546875 L 5.46875 -6.46875 L 7.125 -6.46875 L 7.125 0 L 5.46875 0 L 5.46875 -0.953125 C 5.257812 -0.640625 4.96875 -0.382812 4.59375 -0.1875 C 4.226562 0.0078125 3.804688 0.109375 3.328125 0.109375 C 2.785156 0.109375 2.289062 -0.03125 1.84375 -0.3125 C 1.394531 -0.59375 1.039062 -0.988281 0.78125 -1.5 C 0.519531 -2.007812 0.390625 -2.59375 0.390625 -3.25 Z M 5.46875 -3.234375 C 5.46875 -3.628906 5.390625 -3.96875 5.234375 -4.25 C 5.078125 -4.539062 4.867188 -4.757812 4.609375 -4.90625 C 4.347656 -5.0625 4.066406 -5.140625 3.765625 -5.140625 C 3.453125 -5.140625 3.164062 -5.0625 2.90625 -4.90625 C 2.65625 -4.757812 2.445312 -4.546875 2.28125 -4.265625 C 2.125 -3.984375 2.046875 -3.644531 2.046875 -3.25 C 2.046875 -2.863281 2.125 -2.523438 2.28125 -2.234375 C 2.445312 -1.941406 2.660156 -1.71875 2.921875 -1.5625 C 3.179688 -1.40625 3.460938 -1.328125 3.765625 -1.328125 C 4.066406 -1.328125 4.347656 -1.398438 4.609375 -1.546875 C 4.867188 -1.703125 5.078125 -1.921875 5.234375 -2.203125 C 5.390625 -2.492188 5.46875 -2.835938 5.46875 -3.234375 Z M 5.46875 -3.234375 "/></g></g></g><g fill="#ffffff" fill-opacity="1"><g transform="translate(143.711091, 43.843743)"><g><path d="M 6.90625 -6.46875 L 6.90625 0 L 5.265625 0 L 5.265625 -0.8125 C 5.054688 -0.53125 4.78125 -0.3125 4.4375 -0.15625 C 4.101562 0 3.738281 0.078125 3.34375 0.078125 C 2.832031 0.078125 2.378906 -0.0234375 1.984375 -0.234375 C 1.597656 -0.453125 1.296875 -0.769531 1.078125 -1.1875 C 0.859375 -1.601562 0.75 -2.097656 0.75 -2.671875 L 0.75 -6.46875 L 2.375 -6.46875 L 2.375 -2.90625 C 2.375 -2.394531 2.503906 -2 2.765625 -1.71875 C 3.023438 -1.445312 3.375 -1.3125 3.8125 -1.3125 C 4.269531 -1.3125 4.625 -1.445312 4.875 -1.71875 C 5.132812 -2 5.265625 -2.394531 5.265625 -2.90625 L 5.265625 -6.46875 Z M 6.90625 -6.46875 "/></g></g></g><g fill="#ffffff" fill-opacity="1"><g transform="translate(152.395771, 43.843743)"><g><path d="M 3.34375 -6.578125 C 3.820312 -6.578125 4.242188 -6.476562 4.609375 -6.28125 C 4.972656 -6.09375 5.257812 -5.847656 5.46875 -5.546875 L 5.46875 -6.46875 L 7.125 -6.46875 L 7.125 0.046875 C 7.125 0.648438 7 1.1875 6.75 1.65625 C 6.507812 2.125 6.148438 2.492188 5.671875 2.765625 C 5.191406 3.046875 4.609375 3.1875 3.921875 3.1875 C 3.003906 3.1875 2.25 2.972656 1.65625 2.546875 C 1.070312 2.117188 0.742188 1.535156 0.671875 0.796875 L 2.28125 0.796875 C 2.375 1.085938 2.5625 1.320312 2.84375 1.5 C 3.125 1.675781 3.46875 1.765625 3.875 1.765625 C 4.351562 1.765625 4.738281 1.617188 5.03125 1.328125 C 5.320312 1.046875 5.46875 0.617188 5.46875 0.046875 L 5.46875 -0.953125 C 5.257812 -0.648438 4.96875 -0.394531 4.59375 -0.1875 C 4.226562 0.0078125 3.8125 0.109375 3.34375 0.109375 C 2.789062 0.109375 2.289062 -0.03125 1.84375 -0.3125 C 1.394531 -0.59375 1.039062 -0.988281 0.78125 -1.5 C 0.519531 -2.007812 0.390625 -2.59375 0.390625 -3.25 C 0.390625 -3.90625 0.519531 -4.484375 0.78125 -4.984375 C 1.039062 -5.492188 1.394531 -5.882812 1.84375 -6.15625 C 2.289062 -6.4375 2.789062 -6.578125 3.34375 -6.578125 Z M 5.46875 -3.234375 C 5.46875 -3.628906 5.390625 -3.96875 5.234375 -4.25 C 5.078125 -4.539062 4.867188 -4.757812 4.609375 -4.90625 C 4.347656 -5.0625 4.066406 -5.140625 3.765625 -5.140625 C 3.453125 -5.140625 3.164062 -5.0625 2.90625 -4.90625 C 2.65625 -4.757812 2.445312 -4.546875 2.28125 -4.265625 C 2.125 -3.984375 2.046875 -3.644531 2.046875 -3.25 C 2.046875 -2.863281 2.125 -2.523438 2.28125 -2.234375 C 2.445312 -1.941406 2.660156 -1.71875 2.921875 -1.5625 C 3.179688 -1.40625 3.460938 -1.328125 3.765625 -1.328125 C 4.066406 -1.328125 4.347656 -1.398438 4.609375 -1.546875 C 4.867188 -1.703125 5.078125 -1.921875 5.234375 -2.203125 C 5.390625 -2.492188 5.46875 -2.835938 5.46875 -3.234375 Z M 5.46875 -3.234375 "/></g></g></g><g fill="#ffffff" fill-opacity="1"><g transform="translate(161.278869, 43.843743)"><g><path d="M 0.390625 -3.25 C 0.390625 -3.90625 0.519531 -4.484375 0.78125 -4.984375 C 1.039062 -5.492188 1.394531 -5.882812 1.84375 -6.15625 C 2.289062 -6.4375 2.789062 -6.578125 3.34375 -6.578125 C 3.820312 -6.578125 4.238281 -6.476562 4.59375 -6.28125 C 4.957031 -6.082031 5.25 -5.835938 5.46875 -5.546875 L 5.46875 -6.46875 L 7.125 -6.46875 L 7.125 0 L 5.46875 0 L 5.46875 -0.953125 C 5.257812 -0.640625 4.96875 -0.382812 4.59375 -0.1875 C 4.226562 0.0078125 3.804688 0.109375 3.328125 0.109375 C 2.785156 0.109375 2.289062 -0.03125 1.84375 -0.3125 C 1.394531 -0.59375 1.039062 -0.988281 0.78125 -1.5 C 0.519531 -2.007812 0.390625 -2.59375 0.390625 -3.25 Z M 5.46875 -3.234375 C 5.46875 -3.628906 5.390625 -3.96875 5.234375 -4.25 C 5.078125 -4.539062 4.867188 -4.757812 4.609375 -4.90625 C 4.347656 -5.0625 4.066406 -5.140625 3.765625 -5.140625 C 3.453125 -5.140625 3.164062 -5.0625 2.90625 -4.90625 C 2.65625 -4.757812 2.445312 -4.546875 2.28125 -4.265625 C 2.125 -3.984375 2.046875 -3.644531 2.046875 -3.25 C 2.046875 -2.863281 2.125 -2.523438 2.28125 -2.234375 C 2.445312 -1.941406 2.660156 -1.71875 2.921875 -1.5625 C 3.179688 -1.40625 3.460938 -1.328125 3.765625 -1.328125 C 4.066406 -1.328125 4.347656 -1.398438 4.609375 -1.546875 C 4.867188 -1.703125 5.078125 -1.921875 5.234375 -2.203125 C 5.390625 -2.492188 5.46875 -2.835938 5.46875 -3.234375 Z M 5.84375 -8.78125 C 5.84375 -8.21875 5.675781 -7.773438 5.34375 -7.453125 C 5.007812 -7.140625 4.550781 -6.984375 3.96875 -6.984375 C 3.40625 -6.984375 2.953125 -7.144531 2.609375 -7.46875 C 2.273438 -7.789062 2.109375 -8.226562 2.109375 -8.78125 L 2.109375 -9.015625 L 2.984375 -9.015625 C 2.984375 -8.753906 3.054688 -8.554688 3.203125 -8.421875 C 3.347656 -8.285156 3.601562 -8.21875 3.96875 -8.21875 C 4.332031 -8.21875 4.585938 -8.285156 4.734375 -8.421875 C 4.890625 -8.554688 4.96875 -8.753906 4.96875 -9.015625 L 5.84375 -9.015625 Z M 5.84375 -8.78125 "/></g></g></g><g fill="#ffffff" fill-opacity="1"><g transform="translate(170.161967, 43.843743)"><g/></g></g><g fill="#ffffff" fill-opacity="1"><g transform="translate(173.909437, 43.843743)"><g><path d="M 2.515625 -6.46875 L 2.515625 0 L 0.875 0 L 0.875 -6.46875 Z M 1.703125 -7.90625 L -0.046875 -6.921875 L -0.046875 -8.109375 L 1.703125 -9.0625 L 3.421875 -8.109375 L 3.421875 -6.921875 Z M 1.703125 -7.90625 "/></g></g></g><g fill="#ffffff" fill-opacity="1"><g transform="translate(178.263845, 43.843743)"><g><path d="M 4.390625 -6.5625 C 5.160156 -6.5625 5.78125 -6.316406 6.25 -5.828125 C 6.726562 -5.335938 6.96875 -4.660156 6.96875 -3.796875 L 6.96875 0 L 5.328125 0 L 5.328125 -3.578125 C 5.328125 -4.085938 5.195312 -4.476562 4.9375 -4.75 C 4.6875 -5.03125 4.335938 -5.171875 3.890625 -5.171875 C 3.441406 -5.171875 3.085938 -5.03125 2.828125 -4.75 C 2.566406 -4.476562 2.4375 -4.085938 2.4375 -3.578125 L 2.4375 0 L 0.8125 0 L 0.8125 -6.46875 L 2.4375 -6.46875 L 2.4375 -5.65625 C 2.65625 -5.9375 2.929688 -6.15625 3.265625 -6.3125 C 3.609375 -6.476562 3.984375 -6.5625 4.390625 -6.5625 Z M 4.390625 -6.5625 "/></g></g></g><g fill="#ffffff" fill-opacity="1"><g transform="translate(186.948525, 43.843743)"><g/></g></g><g fill="#ffffff" fill-opacity="1"><g transform="translate(190.695996, 43.843743)"><g><path d="M 0.390625 -3.234375 C 0.390625 -3.898438 0.523438 -4.484375 0.796875 -4.984375 C 1.066406 -5.492188 1.441406 -5.882812 1.921875 -6.15625 C 2.410156 -6.4375 2.960938 -6.578125 3.578125 -6.578125 C 4.378906 -6.578125 5.039062 -6.375 5.5625 -5.96875 C 6.09375 -5.570312 6.445312 -5.007812 6.625 -4.28125 L 4.859375 -4.28125 C 4.773438 -4.5625 4.617188 -4.78125 4.390625 -4.9375 C 4.171875 -5.101562 3.898438 -5.1875 3.578125 -5.1875 C 3.109375 -5.1875 2.734375 -5.015625 2.453125 -4.671875 C 2.179688 -4.335938 2.046875 -3.859375 2.046875 -3.234375 C 2.046875 -2.617188 2.179688 -2.140625 2.453125 -1.796875 C 2.734375 -1.460938 3.109375 -1.296875 3.578125 -1.296875 C 4.234375 -1.296875 4.660156 -1.59375 4.859375 -2.1875 L 6.625 -2.1875 C 6.445312 -1.476562 6.09375 -0.914062 5.5625 -0.5 C 5.039062 -0.09375 4.378906 0.109375 3.578125 0.109375 C 2.960938 0.109375 2.410156 -0.0234375 1.921875 -0.296875 C 1.441406 -0.578125 1.066406 -0.96875 0.796875 -1.46875 C 0.523438 -1.976562 0.390625 -2.566406 0.390625 -3.234375 Z M 0.390625 -3.234375 "/></g></g></g><g fill="#ffffff" fill-opacity="1"><g transform="translate(198.692039, 43.843743)"><g><path d="M 3.671875 0.109375 C 3.054688 0.109375 2.5 -0.0234375 2 -0.296875 C 1.5 -0.578125 1.101562 -0.96875 0.8125 -1.46875 C 0.53125 -1.976562 0.390625 -2.566406 0.390625 -3.234375 C 0.390625 -3.890625 0.535156 -4.472656 0.828125 -4.984375 C 1.117188 -5.492188 1.519531 -5.882812 2.03125 -6.15625 C 2.539062 -6.4375 3.101562 -6.578125 3.71875 -6.578125 C 4.34375 -6.578125 4.90625 -6.4375 5.40625 -6.15625 C 5.914062 -5.882812 6.316406 -5.492188 6.609375 -4.984375 C 6.898438 -4.472656 7.046875 -3.890625 7.046875 -3.234375 C 7.046875 -2.566406 6.894531 -1.976562 6.59375 -1.46875 C 6.300781 -0.96875 5.898438 -0.578125 5.390625 -0.296875 C 4.878906 -0.0234375 4.304688 0.109375 3.671875 0.109375 Z M 3.671875 -1.3125 C 3.972656 -1.3125 4.253906 -1.382812 4.515625 -1.53125 C 4.773438 -1.675781 4.984375 -1.890625 5.140625 -2.171875 C 5.296875 -2.460938 5.375 -2.816406 5.375 -3.234375 C 5.375 -3.847656 5.210938 -4.316406 4.890625 -4.640625 C 4.566406 -4.972656 4.171875 -5.140625 3.703125 -5.140625 C 3.234375 -5.140625 2.835938 -4.972656 2.515625 -4.640625 C 2.203125 -4.316406 2.046875 -3.847656 2.046875 -3.234375 C 2.046875 -2.617188 2.195312 -2.144531 2.5 -1.8125 C 2.8125 -1.476562 3.203125 -1.3125 3.671875 -1.3125 Z M 3.671875 -1.3125 "/></g></g></g><g fill="#ffffff" fill-opacity="1"><g transform="translate(207.108264, 43.843743)"><g><path d="M 3.28125 0.109375 C 2.75 0.109375 2.269531 0.015625 1.84375 -0.171875 C 1.425781 -0.367188 1.09375 -0.628906 0.84375 -0.953125 C 0.601562 -1.285156 0.472656 -1.648438 0.453125 -2.046875 L 2.09375 -2.046875 C 2.125 -1.796875 2.25 -1.585938 2.46875 -1.421875 C 2.6875 -1.253906 2.953125 -1.171875 3.265625 -1.171875 C 3.578125 -1.171875 3.820312 -1.234375 4 -1.359375 C 4.175781 -1.484375 4.265625 -1.644531 4.265625 -1.84375 C 4.265625 -2.050781 4.15625 -2.207031 3.9375 -2.3125 C 3.726562 -2.414062 3.390625 -2.53125 2.921875 -2.65625 C 2.429688 -2.78125 2.03125 -2.898438 1.71875 -3.015625 C 1.414062 -3.140625 1.15625 -3.332031 0.9375 -3.59375 C 0.71875 -3.851562 0.609375 -4.203125 0.609375 -4.640625 C 0.609375 -4.992188 0.707031 -5.316406 0.90625 -5.609375 C 1.113281 -5.910156 1.410156 -6.144531 1.796875 -6.3125 C 2.179688 -6.488281 2.632812 -6.578125 3.15625 -6.578125 C 3.925781 -6.578125 4.539062 -6.382812 5 -6 C 5.46875 -5.613281 5.722656 -5.09375 5.765625 -4.4375 L 4.203125 -4.4375 C 4.179688 -4.695312 4.070312 -4.898438 3.875 -5.046875 C 3.6875 -5.203125 3.429688 -5.28125 3.109375 -5.28125 C 2.816406 -5.28125 2.585938 -5.222656 2.421875 -5.109375 C 2.265625 -5.003906 2.1875 -4.851562 2.1875 -4.65625 C 2.1875 -4.4375 2.296875 -4.269531 2.515625 -4.15625 C 2.734375 -4.039062 3.070312 -3.925781 3.53125 -3.8125 C 4 -3.695312 4.382812 -3.578125 4.6875 -3.453125 C 4.988281 -3.328125 5.25 -3.132812 5.46875 -2.875 C 5.695312 -2.613281 5.816406 -2.269531 5.828125 -1.84375 C 5.828125 -1.46875 5.722656 -1.128906 5.515625 -0.828125 C 5.304688 -0.535156 5.007812 -0.304688 4.625 -0.140625 C 4.238281 0.0234375 3.789062 0.109375 3.28125 0.109375 Z M 3.828125 0.5 C 3.953125 0.945312 4.015625 1.367188 4.015625 1.765625 C 4.015625 2.273438 3.890625 2.671875 3.640625 2.953125 C 3.398438 3.234375 3.039062 3.375 2.5625 3.375 L 2.5625 2.703125 C 2.945312 2.703125 3.140625 2.460938 3.140625 1.984375 L 3.140625 1.78125 L 2.46875 1.78125 L 2.46875 0.5 Z M 3.828125 0.5 "/></g></g></g></svg>