<svg xmlns="http://www.w3.org/2000/svg" xmlns:xlink="http://www.w3.org/1999/xlink" width="400" zoomAndPan="magnify" viewBox="0 0 300 74.999997" height="100" preserveAspectRatio="xMidYMid meet" version="1.0"><defs><g/><clipPath id="54a795f61d"><path d="M 56.464844 20.515625 L 282.476562 20.515625 L 282.476562 60.421875 L 56.464844 60.421875 Z M 56.464844 20.515625 " clip-rule="nonzero"/></clipPath><clipPath id="84ecd0eb21"><path d="M 267.304688 20.515625 C 275.664062 20.515625 282.441406 29.449219 282.441406 40.46875 C 282.441406 51.488281 275.664062 60.421875 267.304688 60.421875 L 71.601562 60.421875 C 63.242188 60.421875 56.464844 51.488281 56.464844 40.46875 C 56.464844 29.449219 63.242188 20.515625 71.601562 20.515625 Z M 267.304688 20.515625 " clip-rule="nonzero"/></clipPath><clipPath id="bd8ae4a1df"><path d="M 0.464844 0.515625 L 226.476562 0.515625 L 226.476562 40.421875 L 0.464844 40.421875 Z M 0.464844 0.515625 " clip-rule="nonzero"/></clipPath><clipPath id="969d297199"><path d="M 211.304688 0.515625 C 219.664062 0.515625 226.441406 9.449219 226.441406 20.46875 C 226.441406 31.488281 219.664062 40.421875 211.304688 40.421875 L 15.601562 40.421875 C 7.242188 40.421875 0.464844 31.488281 0.464844 20.46875 C 0.464844 9.449219 7.242188 0.515625 15.601562 0.515625 Z M 211.304688 0.515625 " clip-rule="nonzero"/></clipPath><clipPath id="1e589e1073"><rect x="0" width="227" y="0" height="41"/></clipPath><clipPath id="acef924742"><path d="M 20.96875 20.511719 L 75.367188 20.511719 L 75.367188 60.414062 L 20.96875 60.414062 Z M 20.96875 20.511719 " clip-rule="nonzero"/></clipPath><clipPath id="c2d1a5b818"><path d="M 20.96875 40.464844 C 20.96875 51.484375 29.902344 60.414062 40.921875 60.414062 L 70.425781 60.414062 C 74.707031 58.292969 78.957031 51.5 70.425781 41.3125 C 60.148438 31.125 66.144531 23.203125 70.425781 20.511719 L 40.921875 20.511719 C 29.902344 20.511719 20.96875 29.445312 20.96875 40.464844 Z M 20.96875 40.464844 " clip-rule="nonzero"/></clipPath><clipPath id="aec0101879"><path d="M 0.96875 0.511719 L 55.355469 0.511719 L 55.355469 40.414062 L 0.96875 40.414062 Z M 0.96875 0.511719 " clip-rule="nonzero"/></clipPath><clipPath id="095506225e"><path d="M 0.96875 20.464844 C 0.96875 31.484375 9.902344 40.414062 20.921875 40.414062 L 50.425781 40.414062 C 54.707031 38.292969 58.957031 31.5 50.425781 21.3125 C 40.148438 11.125 46.144531 3.203125 50.425781 0.511719 L 20.921875 0.511719 C 9.902344 0.511719 0.96875 9.445312 0.96875 20.464844 Z M 0.96875 20.464844 " clip-rule="nonzero"/></clipPath><linearGradient x1="-23.232961" gradientTransform="matrix(0, -0.155869, 0.155869, 0, 0.968021, 40.415988)" y1="325.697961" x2="279.230741" gradientUnits="userSpaceOnUse" y2="23.235259" id="3fe1c86c56"><stop stop-opacity="1" stop-color="rgb(2.349854%, 48.239136%, 76.078796%)" offset="0"/><stop stop-opacity="1" stop-color="rgb(2.349854%, 48.347473%, 76.078796%)" offset="0.0078125"/><stop stop-opacity="1" stop-color="rgb(2.349854%, 48.565674%, 76.078796%)" offset="0.015625"/><stop stop-opacity="1" stop-color="rgb(2.349854%, 48.782349%, 76.078796%)" offset="0.0234375"/><stop stop-opacity="1" stop-color="rgb(2.349854%, 49.000549%, 76.078796%)" offset="0.03125"/><stop stop-opacity="1" stop-color="rgb(2.349854%, 49.217224%, 76.078796%)" offset="0.0390625"/><stop stop-opacity="1" stop-color="rgb(2.349854%, 49.435425%, 76.078796%)" offset="0.046875"/><stop stop-opacity="1" stop-color="rgb(2.349854%, 49.6521%, 76.078796%)" offset="0.0546875"/><stop stop-opacity="1" stop-color="rgb(2.349854%, 49.8703%, 76.078796%)" offset="0.0625"/><stop stop-opacity="1" stop-color="rgb(2.349854%, 50.086975%, 76.078796%)" offset="0.0703125"/><stop stop-opacity="1" stop-color="rgb(2.349854%, 50.305176%, 76.078796%)" offset="0.078125"/><stop stop-opacity="1" stop-color="rgb(2.349854%, 50.521851%, 76.078796%)" offset="0.0859375"/><stop stop-opacity="1" stop-color="rgb(2.349854%, 50.740051%, 76.078796%)" offset="0.09375"/><stop stop-opacity="1" stop-color="rgb(2.349854%, 50.958252%, 76.078796%)" offset="0.101562"/><stop stop-opacity="1" stop-color="rgb(2.349854%, 51.174927%, 76.078796%)" offset="0.109375"/><stop stop-opacity="1" stop-color="rgb(2.349854%, 51.393127%, 76.078796%)" offset="0.117187"/><stop stop-opacity="1" stop-color="rgb(2.349854%, 51.609802%, 76.078796%)" offset="0.125"/><stop stop-opacity="1" stop-color="rgb(2.349854%, 51.828003%, 76.078796%)" offset="0.132812"/><stop stop-opacity="1" stop-color="rgb(2.349854%, 52.044678%, 76.078796%)" offset="0.140625"/><stop stop-opacity="1" stop-color="rgb(2.349854%, 52.262878%, 76.078796%)" offset="0.148438"/><stop stop-opacity="1" stop-color="rgb(2.349854%, 52.479553%, 76.078796%)" offset="0.15625"/><stop stop-opacity="1" stop-color="rgb(2.349854%, 52.697754%, 76.078796%)" offset="0.164062"/><stop stop-opacity="1" stop-color="rgb(2.349854%, 52.914429%, 76.078796%)" offset="0.171875"/><stop stop-opacity="1" stop-color="rgb(2.349854%, 53.132629%, 76.078796%)" offset="0.179688"/><stop stop-opacity="1" stop-color="rgb(2.349854%, 53.349304%, 76.078796%)" offset="0.1875"/><stop stop-opacity="1" stop-color="rgb(2.349854%, 53.567505%, 76.078796%)" offset="0.195312"/><stop stop-opacity="1" stop-color="rgb(2.349854%, 53.785706%, 76.078796%)" offset="0.203125"/><stop stop-opacity="1" stop-color="rgb(2.349854%, 54.00238%, 76.078796%)" offset="0.210937"/><stop stop-opacity="1" stop-color="rgb(2.349854%, 54.220581%, 76.078796%)" offset="0.21875"/><stop stop-opacity="1" stop-color="rgb(2.349854%, 54.437256%, 76.078796%)" offset="0.226562"/><stop stop-opacity="1" stop-color="rgb(2.349854%, 54.655457%, 76.078796%)" offset="0.234375"/><stop stop-opacity="1" stop-color="rgb(2.349854%, 54.872131%, 76.078796%)" offset="0.242187"/><stop stop-opacity="1" stop-color="rgb(2.349854%, 55.090332%, 76.078796%)" offset="0.25"/><stop stop-opacity="1" stop-color="rgb(2.349854%, 55.307007%, 76.078796%)" offset="0.257812"/><stop stop-opacity="1" stop-color="rgb(2.349854%, 55.525208%, 76.078796%)" offset="0.265625"/><stop stop-opacity="1" stop-color="rgb(2.349854%, 55.741882%, 76.078796%)" offset="0.273438"/><stop stop-opacity="1" stop-color="rgb(2.349854%, 55.960083%, 76.078796%)" offset="0.28125"/><stop stop-opacity="1" stop-color="rgb(2.349854%, 56.176758%, 76.078796%)" offset="0.289063"/><stop stop-opacity="1" stop-color="rgb(2.349854%, 56.394958%, 76.078796%)" offset="0.296875"/><stop stop-opacity="1" stop-color="rgb(2.349854%, 56.613159%, 76.078796%)" offset="0.304688"/><stop stop-opacity="1" stop-color="rgb(2.349854%, 56.829834%, 76.078796%)" offset="0.3125"/><stop stop-opacity="1" stop-color="rgb(2.349854%, 57.048035%, 76.078796%)" offset="0.320313"/><stop stop-opacity="1" stop-color="rgb(2.349854%, 57.264709%, 76.078796%)" offset="0.328125"/><stop stop-opacity="1" stop-color="rgb(2.349854%, 57.48291%, 76.078796%)" offset="0.335938"/><stop stop-opacity="1" stop-color="rgb(2.349854%, 57.699585%, 76.078796%)" offset="0.34375"/><stop stop-opacity="1" stop-color="rgb(2.349854%, 57.917786%, 76.078796%)" offset="0.351563"/><stop stop-opacity="1" stop-color="rgb(2.349854%, 58.13446%, 76.078796%)" offset="0.359375"/><stop stop-opacity="1" stop-color="rgb(2.349854%, 58.352661%, 76.078796%)" offset="0.367188"/><stop stop-opacity="1" stop-color="rgb(2.349854%, 58.569336%, 76.078796%)" offset="0.375"/><stop stop-opacity="1" stop-color="rgb(2.349854%, 58.787537%, 76.078796%)" offset="0.382813"/><stop stop-opacity="1" stop-color="rgb(2.349854%, 59.005737%, 76.078796%)" offset="0.390625"/><stop stop-opacity="1" stop-color="rgb(2.349854%, 59.222412%, 76.078796%)" offset="0.398438"/><stop stop-opacity="1" stop-color="rgb(2.349854%, 59.440613%, 76.078796%)" offset="0.40625"/><stop stop-opacity="1" stop-color="rgb(2.349854%, 59.657288%, 76.078796%)" offset="0.414063"/><stop stop-opacity="1" stop-color="rgb(2.349854%, 59.875488%, 76.078796%)" offset="0.421875"/><stop stop-opacity="1" stop-color="rgb(2.349854%, 60.092163%, 76.078796%)" offset="0.423193"/><stop stop-opacity="1" stop-color="rgb(2.349854%, 60.202026%, 76.078796%)" offset="0.429688"/><stop stop-opacity="1" stop-color="rgb(2.349854%, 60.310364%, 76.078796%)" offset="0.4375"/><stop stop-opacity="1" stop-color="rgb(2.349854%, 60.527039%, 76.078796%)" offset="0.445313"/><stop stop-opacity="1" stop-color="rgb(2.349854%, 60.745239%, 76.078796%)" offset="0.453125"/><stop stop-opacity="1" stop-color="rgb(2.349854%, 60.961914%, 76.078796%)" offset="0.460938"/><stop stop-opacity="1" stop-color="rgb(2.349854%, 61.180115%, 76.078796%)" offset="0.46875"/><stop stop-opacity="1" stop-color="rgb(2.349854%, 61.39679%, 76.078796%)" offset="0.476563"/><stop stop-opacity="1" stop-color="rgb(2.349854%, 61.61499%, 76.078796%)" offset="0.484375"/><stop stop-opacity="1" stop-color="rgb(2.349854%, 61.833191%, 76.078796%)" offset="0.492188"/><stop stop-opacity="1" stop-color="rgb(2.349854%, 62.049866%, 76.078796%)" offset="0.5"/><stop stop-opacity="1" stop-color="rgb(2.349854%, 62.268066%, 76.078796%)" offset="0.507812"/><stop stop-opacity="1" stop-color="rgb(2.349854%, 62.484741%, 76.078796%)" offset="0.515625"/><stop stop-opacity="1" stop-color="rgb(2.349854%, 62.702942%, 76.078796%)" offset="0.523438"/><stop stop-opacity="1" stop-color="rgb(2.349854%, 62.919617%, 76.078796%)" offset="0.53125"/><stop stop-opacity="1" stop-color="rgb(2.349854%, 63.137817%, 76.078796%)" offset="0.539062"/><stop stop-opacity="1" stop-color="rgb(2.349854%, 63.354492%, 76.078796%)" offset="0.546875"/><stop stop-opacity="1" stop-color="rgb(2.349854%, 63.572693%, 76.078796%)" offset="0.554688"/><stop stop-opacity="1" stop-color="rgb(2.349854%, 63.789368%, 76.078796%)" offset="0.5625"/><stop stop-opacity="1" stop-color="rgb(2.349854%, 64.007568%, 76.078796%)" offset="0.570313"/><stop stop-opacity="1" stop-color="rgb(2.349854%, 64.224243%, 76.078796%)" offset="0.576807"/><stop stop-opacity="1" stop-color="rgb(2.349854%, 64.334106%, 76.078796%)" offset="0.578125"/><stop stop-opacity="1" stop-color="rgb(2.349854%, 64.442444%, 76.078796%)" offset="0.585938"/><stop stop-opacity="1" stop-color="rgb(2.349854%, 64.660645%, 76.078796%)" offset="0.59375"/><stop stop-opacity="1" stop-color="rgb(2.349854%, 64.877319%, 76.078796%)" offset="0.601563"/><stop stop-opacity="1" stop-color="rgb(2.349854%, 65.09552%, 76.078796%)" offset="0.609375"/><stop stop-opacity="1" stop-color="rgb(2.349854%, 65.312195%, 76.078796%)" offset="0.617188"/><stop stop-opacity="1" stop-color="rgb(2.349854%, 65.530396%, 76.078796%)" offset="0.625"/><stop stop-opacity="1" stop-color="rgb(2.349854%, 65.74707%, 76.078796%)" offset="0.632813"/><stop stop-opacity="1" stop-color="rgb(2.349854%, 65.965271%, 76.078796%)" offset="0.640625"/><stop stop-opacity="1" stop-color="rgb(2.349854%, 66.181946%, 76.078796%)" offset="0.648438"/><stop stop-opacity="1" stop-color="rgb(2.349854%, 66.400146%, 76.078796%)" offset="0.65625"/><stop stop-opacity="1" stop-color="rgb(2.349854%, 66.616821%, 76.078796%)" offset="0.664063"/><stop stop-opacity="1" stop-color="rgb(2.349854%, 66.835022%, 76.078796%)" offset="0.671875"/><stop stop-opacity="1" stop-color="rgb(2.349854%, 67.051697%, 76.078796%)" offset="0.679688"/><stop stop-opacity="1" stop-color="rgb(2.349854%, 67.269897%, 76.078796%)" offset="0.6875"/><stop stop-opacity="1" stop-color="rgb(2.349854%, 67.488098%, 76.078796%)" offset="0.695313"/><stop stop-opacity="1" stop-color="rgb(2.349854%, 67.704773%, 76.078796%)" offset="0.703125"/><stop stop-opacity="1" stop-color="rgb(2.349854%, 67.922974%, 76.078796%)" offset="0.710938"/><stop stop-opacity="1" stop-color="rgb(2.349854%, 68.139648%, 76.078796%)" offset="0.71875"/><stop stop-opacity="1" stop-color="rgb(2.349854%, 68.357849%, 76.078796%)" offset="0.726563"/><stop stop-opacity="1" stop-color="rgb(2.349854%, 68.574524%, 76.078796%)" offset="0.734375"/><stop stop-opacity="1" stop-color="rgb(2.349854%, 68.792725%, 76.078796%)" offset="0.742188"/><stop stop-opacity="1" stop-color="rgb(2.349854%, 69.009399%, 76.078796%)" offset="0.75"/><stop stop-opacity="1" stop-color="rgb(2.349854%, 69.2276%, 76.078796%)" offset="0.757813"/><stop stop-opacity="1" stop-color="rgb(2.349854%, 69.444275%, 76.078796%)" offset="0.765625"/><stop stop-opacity="1" stop-color="rgb(2.349854%, 69.662476%, 76.078796%)" offset="0.773438"/><stop stop-opacity="1" stop-color="rgb(2.349854%, 69.880676%, 76.078796%)" offset="0.78125"/><stop stop-opacity="1" stop-color="rgb(2.349854%, 70.097351%, 76.078796%)" offset="0.789063"/><stop stop-opacity="1" stop-color="rgb(2.349854%, 70.315552%, 76.078796%)" offset="0.796875"/><stop stop-opacity="1" stop-color="rgb(2.349854%, 70.532227%, 76.078796%)" offset="0.804688"/><stop stop-opacity="1" stop-color="rgb(2.349854%, 70.750427%, 76.078796%)" offset="0.8125"/><stop stop-opacity="1" stop-color="rgb(2.349854%, 70.967102%, 76.078796%)" offset="0.820313"/><stop stop-opacity="1" stop-color="rgb(2.349854%, 71.185303%, 76.078796%)" offset="0.828125"/><stop stop-opacity="1" stop-color="rgb(2.349854%, 71.401978%, 76.078796%)" offset="0.835938"/><stop stop-opacity="1" stop-color="rgb(2.349854%, 71.620178%, 76.078796%)" offset="0.84375"/><stop stop-opacity="1" stop-color="rgb(2.349854%, 71.836853%, 76.078796%)" offset="0.851563"/><stop stop-opacity="1" stop-color="rgb(2.349854%, 72.055054%, 76.078796%)" offset="0.859375"/><stop stop-opacity="1" stop-color="rgb(2.349854%, 72.271729%, 76.078796%)" offset="0.867188"/><stop stop-opacity="1" stop-color="rgb(2.349854%, 72.489929%, 76.078796%)" offset="0.875"/><stop stop-opacity="1" stop-color="rgb(2.349854%, 72.70813%, 76.078796%)" offset="0.882812"/><stop stop-opacity="1" stop-color="rgb(2.349854%, 72.924805%, 76.078796%)" offset="0.890625"/><stop stop-opacity="1" stop-color="rgb(2.349854%, 73.143005%, 76.078796%)" offset="0.898438"/><stop stop-opacity="1" stop-color="rgb(2.349854%, 73.35968%, 76.078796%)" offset="0.90625"/><stop stop-opacity="1" stop-color="rgb(2.349854%, 73.577881%, 76.078796%)" offset="0.914062"/><stop stop-opacity="1" stop-color="rgb(2.349854%, 73.794556%, 76.078796%)" offset="0.921875"/><stop stop-opacity="1" stop-color="rgb(2.349854%, 74.012756%, 76.078796%)" offset="0.929688"/><stop stop-opacity="1" stop-color="rgb(2.349854%, 74.229431%, 76.078796%)" offset="0.9375"/><stop stop-opacity="1" stop-color="rgb(2.349854%, 74.447632%, 76.078796%)" offset="0.945312"/><stop stop-opacity="1" stop-color="rgb(2.349854%, 74.664307%, 76.078796%)" offset="0.953125"/><stop stop-opacity="1" stop-color="rgb(2.349854%, 74.882507%, 76.078796%)" offset="0.960938"/><stop stop-opacity="1" stop-color="rgb(2.349854%, 75.099182%, 76.078796%)" offset="0.96875"/><stop stop-opacity="1" stop-color="rgb(2.349854%, 75.317383%, 76.078796%)" offset="0.976562"/><stop stop-opacity="1" stop-color="rgb(2.349854%, 75.535583%, 76.078796%)" offset="0.984375"/><stop stop-opacity="1" stop-color="rgb(2.349854%, 75.752258%, 76.078796%)" offset="0.992188"/><stop stop-opacity="1" stop-color="rgb(2.349854%, 75.970459%, 76.078796%)" offset="1"/></linearGradient><clipPath id="ce207339b3"><rect x="0" width="56" y="0" height="41"/></clipPath><clipPath id="63ce81b983"><path d="M 39 49 L 43 49 L 43 52.507812 L 39 52.507812 Z M 39 49 " clip-rule="nonzero"/></clipPath><clipPath id="5d3d62c264"><path d="M 49 49 L 53 49 L 53 52.507812 L 49 52.507812 Z M 49 49 " clip-rule="nonzero"/></clipPath><clipPath id="e86634d5ce"><path d="M 31.148438 28.507812 L 56.648438 28.507812 L 56.648438 49 L 31.148438 49 Z M 31.148438 28.507812 " clip-rule="nonzero"/></clipPath><clipPath id="50eb5c82ee"><rect x="0" width="99" y="0" height="18"/></clipPath></defs><g clip-path="url(#54a795f61d)"><g clip-path="url(#84ecd0eb21)"><g transform="matrix(1, 0, 0, 1, 56, 20)"><g clip-path="url(#1e589e1073)"><g clip-path="url(#bd8ae4a1df)"><g clip-path="url(#969d297199)"><path fill="#2b2b2b" d="M 0.464844 0.515625 L 226.476562 0.515625 L 226.476562 40.421875 L 0.464844 40.421875 Z M 0.464844 0.515625 " fill-opacity="1" fill-rule="nonzero"/></g></g></g></g></g></g><g clip-path="url(#acef924742)"><g clip-path="url(#c2d1a5b818)"><g transform="matrix(1, 0, 0, 1, 20, 20)"><g clip-path="url(#ce207339b3)"><g clip-path="url(#aec0101879)"><g clip-path="url(#095506225e)"><path fill="url(#3fe1c86c56)" d="M 0.96875 40.414062 L 55.355469 40.414062 L 55.355469 0.511719 L 0.96875 0.511719 Z M 0.96875 40.414062 " fill-rule="nonzero"/></g></g></g></g></g></g><g clip-path="url(#63ce81b983)"><path fill="#ffffff" d="M 42.398438 51.011719 C 42.398438 51.199219 42.363281 51.378906 42.292969 51.550781 C 42.21875 51.722656 42.117188 51.875 41.984375 52.007812 C 41.855469 52.140625 41.703125 52.242188 41.53125 52.3125 C 41.359375 52.382812 41.179688 52.417969 40.992188 52.417969 C 40.804688 52.417969 40.625 52.382812 40.453125 52.3125 C 40.28125 52.242188 40.128906 52.140625 39.996094 52.007812 C 39.867188 51.875 39.765625 51.722656 39.691406 51.550781 C 39.621094 51.378906 39.585938 51.199219 39.585938 51.011719 C 39.585938 50.828125 39.621094 50.648438 39.691406 50.476562 C 39.765625 50.300781 39.867188 50.148438 39.996094 50.019531 C 40.128906 49.886719 40.28125 49.785156 40.453125 49.714844 C 40.625 49.640625 40.804688 49.605469 40.992188 49.605469 C 41.179688 49.605469 41.359375 49.640625 41.53125 49.714844 C 41.703125 49.785156 41.855469 49.886719 41.984375 50.019531 C 42.117188 50.148438 42.21875 50.300781 42.292969 50.476562 C 42.363281 50.648438 42.398438 50.828125 42.398438 51.011719 Z M 42.398438 51.011719 " fill-opacity="1" fill-rule="nonzero"/></g><g clip-path="url(#5d3d62c264)"><path fill="#ffffff" d="M 52.242188 51.011719 C 52.242188 51.199219 52.207031 51.378906 52.136719 51.550781 C 52.0625 51.722656 51.960938 51.875 51.828125 52.007812 C 51.699219 52.140625 51.546875 52.242188 51.375 52.3125 C 51.203125 52.382812 51.023438 52.417969 50.835938 52.417969 C 50.648438 52.417969 50.46875 52.382812 50.296875 52.3125 C 50.125 52.242188 49.972656 52.140625 49.839844 52.007812 C 49.710938 51.875 49.609375 51.722656 49.535156 51.550781 C 49.464844 51.378906 49.429688 51.199219 49.429688 51.011719 C 49.429688 50.828125 49.464844 50.648438 49.535156 50.476562 C 49.609375 50.300781 49.710938 50.148438 49.839844 50.019531 C 49.972656 49.886719 50.125 49.785156 50.296875 49.714844 C 50.46875 49.640625 50.648438 49.605469 50.835938 49.605469 C 51.023438 49.605469 51.203125 49.640625 51.375 49.714844 C 51.546875 49.785156 51.699219 49.886719 51.828125 50.019531 C 51.960938 50.148438 52.0625 50.300781 52.136719 50.476562 C 52.207031 50.648438 52.242188 50.828125 52.242188 51.011719 Z M 52.242188 51.011719 " fill-opacity="1" fill-rule="nonzero"/></g><g clip-path="url(#e86634d5ce)"><path fill="#ffffff" d="M 53.574219 41.613281 L 56.386719 33.175781 C 56.457031 32.960938 56.476562 32.742188 56.445312 32.519531 C 56.410156 32.296875 56.328125 32.09375 56.195312 31.910156 C 56.0625 31.726562 55.894531 31.582031 55.695312 31.480469 C 55.492188 31.378906 55.28125 31.324219 55.054688 31.324219 L 38.179688 31.324219 L 38.179688 31.34375 C 37.964844 30.917969 37.695312 30.53125 37.371094 30.179688 C 37.046875 29.828125 36.679688 29.527344 36.273438 29.277344 C 35.867188 29.027344 35.433594 28.835938 34.972656 28.707031 C 34.515625 28.578125 34.046875 28.511719 33.566406 28.511719 L 32.554688 28.511719 C 32.367188 28.511719 32.1875 28.546875 32.015625 28.621094 C 31.84375 28.691406 31.691406 28.792969 31.558594 28.925781 C 31.429688 29.054688 31.328125 29.207031 31.253906 29.382812 C 31.183594 29.554688 31.148438 29.734375 31.148438 29.917969 C 31.148438 30.105469 31.183594 30.285156 31.253906 30.457031 C 31.328125 30.628906 31.429688 30.78125 31.558594 30.914062 C 31.691406 31.046875 31.84375 31.148438 32.015625 31.21875 C 32.1875 31.289062 32.367188 31.324219 32.554688 31.324219 L 33.566406 31.324219 C 33.851562 31.324219 34.125 31.371094 34.386719 31.46875 C 34.652344 31.566406 34.894531 31.707031 35.109375 31.886719 C 35.324219 32.070312 35.5 32.285156 35.640625 32.527344 C 35.78125 32.773438 35.871094 33.035156 35.917969 33.3125 L 37.898438 45.089844 C 37.964844 45.523438 38.101562 45.933594 38.316406 46.316406 C 38.527344 46.699219 38.800781 47.035156 39.132812 47.320312 C 39.46875 47.605469 39.839844 47.824219 40.25 47.976562 C 40.664062 48.128906 41.085938 48.203125 41.527344 48.199219 L 52.242188 48.199219 C 52.429688 48.199219 52.609375 48.164062 52.78125 48.09375 C 52.953125 48.023438 53.105469 47.921875 53.234375 47.789062 C 53.367188 47.65625 53.46875 47.503906 53.542969 47.332031 C 53.613281 47.160156 53.648438 46.980469 53.648438 46.792969 C 53.648438 46.609375 53.613281 46.429688 53.542969 46.257812 C 53.46875 46.082031 53.367188 45.929688 53.234375 45.800781 C 53.105469 45.667969 52.953125 45.566406 52.78125 45.496094 C 52.609375 45.421875 52.429688 45.386719 52.242188 45.386719 L 41.527344 45.386719 C 41.3125 45.386719 41.125 45.316406 40.964844 45.175781 C 40.804688 45.03125 40.710938 44.855469 40.683594 44.644531 L 40.328125 42.574219 L 52.242188 42.574219 C 52.542969 42.574219 52.816406 42.488281 53.0625 42.308594 C 53.308594 42.132812 53.480469 41.902344 53.574219 41.613281 Z M 53.574219 41.613281 " fill-opacity="1" fill-rule="nonzero"/></g><g transform="matrix(1, 0, 0, 1, 116, 30)"><g clip-path="url(#50eb5c82ee)"><g fill="#ffffff" fill-opacity="1"><g transform="translate(1.163337, 13.163321)"><g><path d="M 5.71875 -1.8125 L 2.15625 -1.8125 L 1.5 0 L 0.390625 0 L 3.328125 -8.09375 L 4.5625 -8.09375 L 7.484375 0 L 6.375 0 Z M 5.40625 -2.671875 L 3.9375 -6.796875 L 2.46875 -2.671875 Z M 5.40625 -2.671875 "/></g></g></g><g fill="#ffffff" fill-opacity="1"><g transform="translate(10.000471, 13.163321)"><g><path d="M 0.5 -3.21875 C 0.5 -3.875 0.628906 -4.445312 0.890625 -4.9375 C 1.160156 -5.4375 1.523438 -5.820312 1.984375 -6.09375 C 2.453125 -6.375 2.972656 -6.515625 3.546875 -6.515625 C 4.046875 -6.515625 4.507812 -6.398438 4.9375 -6.171875 C 5.375 -5.941406 5.703125 -5.640625 5.921875 -5.265625 L 5.921875 -8.65625 L 7 -8.65625 L 7 0 L 5.921875 0 L 5.921875 -1.203125 C 5.710938 -0.816406 5.398438 -0.5 4.984375 -0.25 C 4.578125 -0.0078125 4.097656 0.109375 3.546875 0.109375 C 2.972656 0.109375 2.453125 -0.03125 1.984375 -0.3125 C 1.523438 -0.59375 1.160156 -0.984375 0.890625 -1.484375 C 0.628906 -1.992188 0.5 -2.570312 0.5 -3.21875 Z M 5.921875 -3.21875 C 5.921875 -3.695312 5.820312 -4.113281 5.625 -4.46875 C 5.4375 -4.832031 5.175781 -5.109375 4.84375 -5.296875 C 4.507812 -5.492188 4.144531 -5.59375 3.75 -5.59375 C 3.351562 -5.59375 2.988281 -5.5 2.65625 -5.3125 C 2.332031 -5.125 2.070312 -4.847656 1.875 -4.484375 C 1.6875 -4.128906 1.59375 -3.707031 1.59375 -3.21875 C 1.59375 -2.726562 1.6875 -2.300781 1.875 -1.9375 C 2.070312 -1.582031 2.332031 -1.304688 2.65625 -1.109375 C 2.988281 -0.921875 3.351562 -0.828125 3.75 -0.828125 C 4.144531 -0.828125 4.507812 -0.921875 4.84375 -1.109375 C 5.175781 -1.304688 5.4375 -1.582031 5.625 -1.9375 C 5.820312 -2.300781 5.921875 -2.726562 5.921875 -3.21875 Z M 5.921875 -3.21875 "/></g></g></g><g fill="#ffffff" fill-opacity="1"><g transform="translate(18.860958, 13.163321)"><g><path d="M 0.5 -3.21875 C 0.5 -3.875 0.628906 -4.445312 0.890625 -4.9375 C 1.160156 -5.4375 1.523438 -5.820312 1.984375 -6.09375 C 2.453125 -6.375 2.972656 -6.515625 3.546875 -6.515625 C 4.109375 -6.515625 4.59375 -6.390625 5 -6.140625 C 5.414062 -5.898438 5.722656 -5.597656 5.921875 -5.234375 L 5.921875 -6.40625 L 7 -6.40625 L 7 0 L 5.921875 0 L 5.921875 -1.1875 C 5.710938 -0.8125 5.398438 -0.5 4.984375 -0.25 C 4.566406 -0.0078125 4.082031 0.109375 3.53125 0.109375 C 2.957031 0.109375 2.441406 -0.03125 1.984375 -0.3125 C 1.523438 -0.59375 1.160156 -0.984375 0.890625 -1.484375 C 0.628906 -1.992188 0.5 -2.570312 0.5 -3.21875 Z M 5.921875 -3.21875 C 5.921875 -3.695312 5.820312 -4.113281 5.625 -4.46875 C 5.4375 -4.832031 5.175781 -5.109375 4.84375 -5.296875 C 4.507812 -5.492188 4.144531 -5.59375 3.75 -5.59375 C 3.351562 -5.59375 2.988281 -5.5 2.65625 -5.3125 C 2.332031 -5.125 2.070312 -4.847656 1.875 -4.484375 C 1.6875 -4.128906 1.59375 -3.707031 1.59375 -3.21875 C 1.59375 -2.726562 1.6875 -2.300781 1.875 -1.9375 C 2.070312 -1.582031 2.332031 -1.304688 2.65625 -1.109375 C 2.988281 -0.921875 3.351562 -0.828125 3.75 -0.828125 C 4.144531 -0.828125 4.507812 -0.921875 4.84375 -1.109375 C 5.175781 -1.304688 5.4375 -1.582031 5.625 -1.9375 C 5.820312 -2.300781 5.921875 -2.726562 5.921875 -3.21875 Z M 5.921875 -3.21875 "/></g></g></g><g fill="#ffffff" fill-opacity="1"><g transform="translate(27.721445, 13.163321)"><g><path d="M 6.578125 -6.40625 L 6.578125 0 L 5.515625 0 L 5.515625 -0.953125 C 5.316406 -0.617188 5.035156 -0.359375 4.671875 -0.171875 C 4.304688 0.00390625 3.90625 0.09375 3.46875 0.09375 C 2.96875 0.09375 2.519531 -0.0078125 2.125 -0.21875 C 1.726562 -0.425781 1.414062 -0.734375 1.1875 -1.140625 C 0.957031 -1.554688 0.84375 -2.0625 0.84375 -2.65625 L 0.84375 -6.40625 L 1.890625 -6.40625 L 1.890625 -2.796875 C 1.890625 -2.160156 2.050781 -1.671875 2.375 -1.328125 C 2.695312 -0.992188 3.132812 -0.828125 3.6875 -0.828125 C 4.25 -0.828125 4.691406 -1 5.015625 -1.34375 C 5.347656 -1.695312 5.515625 -2.210938 5.515625 -2.890625 L 5.515625 -6.40625 Z M 6.578125 -6.40625 "/></g></g></g><g fill="#ffffff" fill-opacity="1"><g transform="translate(36.161702, 13.163321)"><g><path d="M 3.546875 -6.515625 C 4.097656 -6.515625 4.582031 -6.390625 5 -6.140625 C 5.414062 -5.898438 5.722656 -5.597656 5.921875 -5.234375 L 5.921875 -6.40625 L 7 -6.40625 L 7 0.140625 C 7 0.722656 6.875 1.242188 6.625 1.703125 C 6.375 2.160156 6.015625 2.515625 5.546875 2.765625 C 5.085938 3.023438 4.550781 3.15625 3.9375 3.15625 C 3.09375 3.15625 2.390625 2.957031 1.828125 2.5625 C 1.273438 2.164062 0.945312 1.625 0.84375 0.9375 L 1.890625 0.9375 C 2.003906 1.320312 2.242188 1.632812 2.609375 1.875 C 2.984375 2.113281 3.425781 2.234375 3.9375 2.234375 C 4.519531 2.234375 4.992188 2.050781 5.359375 1.6875 C 5.734375 1.320312 5.921875 0.804688 5.921875 0.140625 L 5.921875 -1.203125 C 5.710938 -0.828125 5.398438 -0.515625 4.984375 -0.265625 C 4.578125 -0.015625 4.097656 0.109375 3.546875 0.109375 C 2.972656 0.109375 2.453125 -0.03125 1.984375 -0.3125 C 1.523438 -0.59375 1.160156 -0.984375 0.890625 -1.484375 C 0.628906 -1.992188 0.5 -2.570312 0.5 -3.21875 C 0.5 -3.875 0.628906 -4.445312 0.890625 -4.9375 C 1.160156 -5.4375 1.523438 -5.820312 1.984375 -6.09375 C 2.453125 -6.375 2.972656 -6.515625 3.546875 -6.515625 Z M 5.921875 -3.21875 C 5.921875 -3.695312 5.820312 -4.113281 5.625 -4.46875 C 5.4375 -4.832031 5.175781 -5.109375 4.84375 -5.296875 C 4.507812 -5.492188 4.144531 -5.59375 3.75 -5.59375 C 3.351562 -5.59375 2.988281 -5.5 2.65625 -5.3125 C 2.332031 -5.125 2.070312 -4.847656 1.875 -4.484375 C 1.6875 -4.128906 1.59375 -3.707031 1.59375 -3.21875 C 1.59375 -2.726562 1.6875 -2.300781 1.875 -1.9375 C 2.070312 -1.582031 2.332031 -1.304688 2.65625 -1.109375 C 2.988281 -0.921875 3.351562 -0.828125 3.75 -0.828125 C 4.144531 -0.828125 4.507812 -0.921875 4.84375 -1.109375 C 5.175781 -1.304688 5.4375 -1.582031 5.625 -1.9375 C 5.820312 -2.300781 5.921875 -2.726562 5.921875 -3.21875 Z M 5.921875 -3.21875 "/></g></g></g><g fill="#ffffff" fill-opacity="1"><g transform="translate(45.022188, 13.163321)"><g><path d="M 0.5 -3.21875 C 0.5 -3.875 0.628906 -4.445312 0.890625 -4.9375 C 1.160156 -5.4375 1.523438 -5.820312 1.984375 -6.09375 C 2.453125 -6.375 2.972656 -6.515625 3.546875 -6.515625 C 4.109375 -6.515625 4.59375 -6.390625 5 -6.140625 C 5.414062 -5.898438 5.722656 -5.597656 5.921875 -5.234375 L 5.921875 -6.40625 L 7 -6.40625 L 7 0 L 5.921875 0 L 5.921875 -1.1875 C 5.710938 -0.8125 5.398438 -0.5 4.984375 -0.25 C 4.566406 -0.0078125 4.082031 0.109375 3.53125 0.109375 C 2.957031 0.109375 2.441406 -0.03125 1.984375 -0.3125 C 1.523438 -0.59375 1.160156 -0.984375 0.890625 -1.484375 C 0.628906 -1.992188 0.5 -2.570312 0.5 -3.21875 Z M 5.921875 -3.21875 C 5.921875 -3.695312 5.820312 -4.113281 5.625 -4.46875 C 5.4375 -4.832031 5.175781 -5.109375 4.84375 -5.296875 C 4.507812 -5.492188 4.144531 -5.59375 3.75 -5.59375 C 3.351562 -5.59375 2.988281 -5.5 2.65625 -5.3125 C 2.332031 -5.125 2.070312 -4.847656 1.875 -4.484375 C 1.6875 -4.128906 1.59375 -3.707031 1.59375 -3.21875 C 1.59375 -2.726562 1.6875 -2.300781 1.875 -1.9375 C 2.070312 -1.582031 2.332031 -1.304688 2.65625 -1.109375 C 2.988281 -0.921875 3.351562 -0.828125 3.75 -0.828125 C 4.144531 -0.828125 4.507812 -0.921875 4.84375 -1.109375 C 5.175781 -1.304688 5.4375 -1.582031 5.625 -1.9375 C 5.820312 -2.300781 5.921875 -2.726562 5.921875 -3.21875 Z M 5.625 -8.5625 C 5.625 -8.113281 5.476562 -7.742188 5.1875 -7.453125 C 4.894531 -7.171875 4.488281 -7.03125 3.96875 -7.03125 C 3.445312 -7.03125 3.035156 -7.171875 2.734375 -7.453125 C 2.441406 -7.742188 2.296875 -8.113281 2.296875 -8.5625 L 2.296875 -8.765625 L 2.921875 -8.765625 C 2.921875 -8.472656 3.003906 -8.25 3.171875 -8.09375 C 3.335938 -7.9375 3.601562 -7.859375 3.96875 -7.859375 C 4.320312 -7.859375 4.582031 -7.9375 4.75 -8.09375 C 4.914062 -8.25 5 -8.472656 5 -8.765625 L 5.625 -8.765625 Z M 5.625 -8.5625 "/></g></g></g><g fill="#ffffff" fill-opacity="1"><g transform="translate(53.882675, 13.163321)"><g/></g></g><g fill="#ffffff" fill-opacity="1"><g transform="translate(57.96892, 13.163321)"><g><path d="M 1.96875 -6.40625 L 1.96875 0 L 0.90625 0 L 0.90625 -6.40625 Z M 1.4375 -7.96875 L -0.1875 -6.984375 L -0.1875 -7.8125 L 1.4375 -8.78125 L 3.046875 -7.8125 L 3.046875 -6.984375 Z M 1.4375 -7.96875 "/></g></g></g><g fill="#ffffff" fill-opacity="1"><g transform="translate(61.810027, 13.163321)"><g><path d="M 4.015625 -6.515625 C 4.796875 -6.515625 5.425781 -6.28125 5.90625 -5.8125 C 6.394531 -5.34375 6.640625 -4.664062 6.640625 -3.78125 L 6.640625 0 L 5.59375 0 L 5.59375 -3.625 C 5.59375 -4.257812 5.429688 -4.742188 5.109375 -5.078125 C 4.785156 -5.421875 4.347656 -5.59375 3.796875 -5.59375 C 3.234375 -5.59375 2.785156 -5.414062 2.453125 -5.0625 C 2.128906 -4.71875 1.96875 -4.210938 1.96875 -3.546875 L 1.96875 0 L 0.90625 0 L 0.90625 -6.40625 L 1.96875 -6.40625 L 1.96875 -5.5 C 2.175781 -5.820312 2.457031 -6.070312 2.8125 -6.25 C 3.175781 -6.425781 3.578125 -6.515625 4.015625 -6.515625 Z M 4.015625 -6.515625 "/></g></g></g><g fill="#ffffff" fill-opacity="1"><g transform="translate(70.250284, 13.163321)"><g/></g></g><g fill="#ffffff" fill-opacity="1"><g transform="translate(74.33653, 13.163321)"><g><path d="M 0.5 -3.21875 C 0.5 -3.875 0.628906 -4.445312 0.890625 -4.9375 C 1.160156 -5.4375 1.53125 -5.820312 2 -6.09375 C 2.476562 -6.375 3.019531 -6.515625 3.625 -6.515625 C 4.40625 -6.515625 5.050781 -6.320312 5.5625 -5.9375 C 6.070312 -5.550781 6.410156 -5.019531 6.578125 -4.34375 L 5.4375 -4.34375 C 5.320312 -4.738281 5.109375 -5.046875 4.796875 -5.265625 C 4.484375 -5.492188 4.09375 -5.609375 3.625 -5.609375 C 3.019531 -5.609375 2.53125 -5.398438 2.15625 -4.984375 C 1.78125 -4.566406 1.59375 -3.976562 1.59375 -3.21875 C 1.59375 -2.445312 1.78125 -1.847656 2.15625 -1.421875 C 2.53125 -1.003906 3.019531 -0.796875 3.625 -0.796875 C 4.09375 -0.796875 4.484375 -0.90625 4.796875 -1.125 C 5.109375 -1.34375 5.320312 -1.65625 5.4375 -2.0625 L 6.578125 -2.0625 C 6.410156 -1.40625 6.066406 -0.878906 5.546875 -0.484375 C 5.035156 -0.0859375 4.394531 0.109375 3.625 0.109375 C 3.019531 0.109375 2.476562 -0.0234375 2 -0.296875 C 1.53125 -0.578125 1.160156 -0.960938 0.890625 -1.453125 C 0.628906 -1.953125 0.5 -2.539062 0.5 -3.21875 Z M 0.5 -3.21875 "/></g></g></g><g fill="#ffffff" fill-opacity="1"><g transform="translate(82.391575, 13.163321)"><g><path d="M 3.6875 0.109375 C 3.09375 0.109375 2.550781 -0.0234375 2.0625 -0.296875 C 1.570312 -0.578125 1.1875 -0.96875 0.90625 -1.46875 C 0.632812 -1.96875 0.5 -2.550781 0.5 -3.21875 C 0.5 -3.875 0.640625 -4.453125 0.921875 -4.953125 C 1.210938 -5.453125 1.601562 -5.835938 2.09375 -6.109375 C 2.582031 -6.378906 3.128906 -6.515625 3.734375 -6.515625 C 4.347656 -6.515625 4.898438 -6.378906 5.390625 -6.109375 C 5.878906 -5.835938 6.265625 -5.453125 6.546875 -4.953125 C 6.835938 -4.453125 6.984375 -3.875 6.984375 -3.21875 C 6.984375 -2.550781 6.832031 -1.96875 6.53125 -1.46875 C 6.238281 -0.96875 5.84375 -0.578125 5.34375 -0.296875 C 4.851562 -0.0234375 4.300781 0.109375 3.6875 0.109375 Z M 3.6875 -0.828125 C 4.070312 -0.828125 4.429688 -0.914062 4.765625 -1.09375 C 5.097656 -1.28125 5.367188 -1.550781 5.578125 -1.90625 C 5.785156 -2.257812 5.890625 -2.695312 5.890625 -3.21875 C 5.890625 -3.726562 5.785156 -4.160156 5.578125 -4.515625 C 5.378906 -4.878906 5.113281 -5.148438 4.78125 -5.328125 C 4.457031 -5.503906 4.109375 -5.59375 3.734375 -5.59375 C 3.335938 -5.59375 2.976562 -5.503906 2.65625 -5.328125 C 2.332031 -5.148438 2.070312 -4.878906 1.875 -4.515625 C 1.6875 -4.160156 1.59375 -3.726562 1.59375 -3.21875 C 1.59375 -2.695312 1.6875 -2.253906 1.875 -1.890625 C 2.0625 -1.535156 2.316406 -1.269531 2.640625 -1.09375 C 2.960938 -0.914062 3.3125 -0.828125 3.6875 -0.828125 Z M 3.6875 -0.828125 "/></g></g></g><g fill="#ffffff" fill-opacity="1"><g transform="translate(90.831833, 13.163321)"><g><path d="M 3.171875 0.109375 C 2.679688 0.109375 2.238281 0.0234375 1.84375 -0.140625 C 1.457031 -0.304688 1.148438 -0.539062 0.921875 -0.84375 C 0.691406 -1.144531 0.566406 -1.488281 0.546875 -1.875 L 1.640625 -1.875 C 1.671875 -1.5625 1.820312 -1.300781 2.09375 -1.09375 C 2.363281 -0.894531 2.71875 -0.796875 3.15625 -0.796875 C 3.5625 -0.796875 3.878906 -0.882812 4.109375 -1.0625 C 4.347656 -1.238281 4.46875 -1.460938 4.46875 -1.734375 C 4.46875 -2.015625 4.34375 -2.222656 4.09375 -2.359375 C 3.84375 -2.503906 3.457031 -2.640625 2.9375 -2.765625 C 2.457031 -2.890625 2.066406 -3.015625 1.765625 -3.140625 C 1.472656 -3.273438 1.21875 -3.46875 1 -3.71875 C 0.78125 -3.976562 0.671875 -4.3125 0.671875 -4.71875 C 0.671875 -5.050781 0.769531 -5.351562 0.96875 -5.625 C 1.164062 -5.894531 1.441406 -6.109375 1.796875 -6.265625 C 2.160156 -6.429688 2.570312 -6.515625 3.03125 -6.515625 C 3.738281 -6.515625 4.3125 -6.332031 4.75 -5.96875 C 5.1875 -5.613281 5.421875 -5.125 5.453125 -4.5 L 4.390625 -4.5 C 4.359375 -4.832031 4.21875 -5.097656 3.96875 -5.296875 C 3.726562 -5.503906 3.398438 -5.609375 2.984375 -5.609375 C 2.609375 -5.609375 2.304688 -5.523438 2.078125 -5.359375 C 1.847656 -5.203125 1.734375 -4.988281 1.734375 -4.71875 C 1.734375 -4.507812 1.800781 -4.335938 1.9375 -4.203125 C 2.082031 -4.066406 2.253906 -3.957031 2.453125 -3.875 C 2.660156 -3.789062 2.945312 -3.695312 3.3125 -3.59375 C 3.78125 -3.46875 4.15625 -3.34375 4.4375 -3.21875 C 4.726562 -3.101562 4.976562 -2.925781 5.1875 -2.6875 C 5.394531 -2.445312 5.5 -2.128906 5.5 -1.734375 C 5.5 -1.390625 5.398438 -1.078125 5.203125 -0.796875 C 5.015625 -0.515625 4.742188 -0.289062 4.390625 -0.125 C 4.035156 0.03125 3.628906 0.109375 3.171875 0.109375 Z M 3.609375 0.578125 C 3.691406 0.941406 3.734375 1.265625 3.734375 1.546875 C 3.734375 2.441406 3.34375 2.890625 2.5625 2.890625 L 2.5625 2.390625 C 2.925781 2.390625 3.109375 2.171875 3.109375 1.734375 L 3.109375 1.53125 L 2.5625 1.53125 L 2.5625 0.578125 Z M 3.609375 0.578125 "/></g></g></g></g></g></svg>