<svg xmlns="http://www.w3.org/2000/svg" xmlns:xlink="http://www.w3.org/1999/xlink" width="120" zoomAndPan="magnify" viewBox="0 0 90 30.000001" height="40" preserveAspectRatio="xMidYMid meet" version="1.0"><defs><clipPath id="4f3aa3676b"><path d="M 31.679688 1.199219 L 58.535156 1.199219 L 58.535156 28.050781 L 31.679688 28.050781 Z M 31.679688 1.199219 " clip-rule="nonzero"/></clipPath></defs><g clip-path="url(#4f3aa3676b)"><path fill="#000000" d="M 33.527344 5.695312 L 38.824219 3.625 C 37.890625 4.789062 37.273438 6.210938 37.101562 7.761719 L 32.578125 7.761719 L 32.578125 7.085938 C 32.578125 6.46875 32.949219 5.921875 33.527344 5.695312 Z M 56.691406 5.695312 L 51.394531 3.625 C 52.328125 4.789062 52.945312 6.210938 53.113281 7.761719 L 57.640625 7.761719 L 57.640625 7.085938 C 57.640625 6.46875 57.269531 5.921875 56.691406 5.695312 Z M 37.0625 8.359375 L 32.578125 8.359375 C 32.085938 8.359375 31.679688 8.761719 31.679688 9.253906 L 31.679688 9.851562 C 31.679688 10.34375 32.085938 10.746094 32.578125 10.746094 L 37.328125 10.746094 C 37.148438 10.082031 37.050781 9.378906 37.050781 8.65625 C 37.050781 8.558594 37.054688 8.457031 37.0625 8.359375 Z M 57.640625 8.359375 L 53.15625 8.359375 C 53.164062 8.457031 53.164062 8.558594 53.164062 8.65625 C 53.164062 9.378906 53.070312 10.082031 52.886719 10.746094 L 57.640625 10.746094 C 58.132812 10.746094 58.535156 10.34375 58.535156 9.851562 L 58.535156 9.253906 C 58.535156 8.761719 58.132812 8.359375 57.640625 8.359375 Z M 57.640625 25.664062 L 32.578125 25.664062 C 32.082031 25.664062 31.679688 26.066406 31.679688 26.558594 L 31.679688 27.15625 C 31.679688 27.652344 32.082031 28.050781 32.578125 28.050781 L 57.640625 28.050781 C 58.132812 28.050781 58.535156 27.652344 58.535156 27.15625 L 58.535156 26.558594 C 58.535156 26.066406 58.132812 25.664062 57.640625 25.664062 Z M 57.640625 24.769531 C 57.640625 24.277344 57.238281 23.875 56.746094 23.875 L 33.472656 23.875 C 32.976562 23.875 32.578125 24.277344 32.578125 24.769531 L 32.578125 25.070312 L 57.640625 25.070312 Z M 37.351562 22.382812 L 34.367188 22.382812 C 33.875 22.382812 33.472656 22.785156 33.472656 23.277344 L 38.246094 23.277344 C 38.246094 22.785156 37.84375 22.382812 37.351562 22.382812 Z M 37.515625 11.34375 L 33.472656 11.34375 C 33.472656 11.835938 33.875 12.238281 34.367188 12.238281 L 37.351562 12.238281 C 37.523438 12.238281 37.6875 12.1875 37.828125 12.101562 C 37.707031 11.851562 37.605469 11.601562 37.515625 11.34375 Z M 55.851562 22.382812 L 52.867188 22.382812 C 52.375 22.382812 51.972656 22.785156 51.972656 23.277344 L 56.746094 23.277344 C 56.746094 22.785156 56.34375 22.382812 55.851562 22.382812 Z M 52.703125 11.34375 C 52.613281 11.601562 52.507812 11.851562 52.390625 12.101562 C 52.53125 12.1875 52.695312 12.238281 52.867188 12.238281 L 55.851562 12.238281 C 56.34375 12.238281 56.746094 11.835938 56.746094 11.34375 Z M 50.480469 22.382812 L 47.496094 22.382812 C 47.003906 22.382812 46.601562 22.785156 46.601562 23.277344 L 51.375 23.277344 C 51.375 22.785156 50.972656 22.382812 50.480469 22.382812 Z M 42.722656 22.382812 L 39.738281 22.382812 C 39.246094 22.382812 38.84375 22.785156 38.84375 23.277344 L 43.617188 23.277344 C 43.617188 22.785156 43.214844 22.382812 42.722656 22.382812 Z M 34.367188 12.835938 L 34.367188 21.785156 L 37.351562 21.785156 L 37.351562 12.835938 Z M 52.867188 12.835938 L 52.867188 21.785156 L 55.851562 21.785156 L 55.851562 12.835938 Z M 47.496094 16.351562 L 47.496094 21.785156 L 50.480469 21.785156 L 50.480469 14.652344 C 49.628906 15.417969 48.613281 16.003906 47.496094 16.351562 Z M 39.738281 14.652344 L 39.738281 21.785156 L 42.722656 21.785156 L 42.722656 16.351562 C 41.601562 16.003906 40.589844 15.417969 39.738281 14.652344 Z M 48.957031 6.867188 L 42.21875 6.867188 C 42.101562 6.867188 41.992188 6.796875 41.945312 6.691406 C 41.898438 6.585938 41.914062 6.460938 41.992188 6.371094 L 42.820312 5.421875 C 42.875 5.363281 42.902344 5.285156 42.894531 5.207031 C 42.890625 5.128906 42.855469 5.054688 42.792969 5.003906 C 42.738281 4.953125 42.667969 4.929688 42.597656 4.929688 C 42.515625 4.929688 42.433594 4.964844 42.371094 5.03125 L 41.109375 6.472656 C 40.941406 6.667969 40.914062 6.929688 41.035156 7.15625 C 41.136719 7.34375 41.359375 7.464844 41.601562 7.464844 L 48.957031 7.464844 C 49.121094 7.464844 49.257812 7.328125 49.257812 7.164062 C 49.257812 7 49.121094 6.867188 48.957031 6.867188 Z M 48.617188 9.851562 L 41.257812 9.851562 C 41.09375 9.851562 40.960938 9.984375 40.960938 10.148438 C 40.960938 10.3125 41.09375 10.449219 41.257812 10.449219 L 48 10.449219 C 48.117188 10.449219 48.222656 10.515625 48.273438 10.621094 C 48.320312 10.730469 48.300781 10.855469 48.226562 10.941406 L 47.394531 11.890625 C 47.34375 11.949219 47.316406 12.027344 47.324219 12.105469 C 47.328125 12.1875 47.363281 12.257812 47.421875 12.3125 C 47.546875 12.421875 47.738281 12.40625 47.84375 12.285156 L 49.109375 10.839844 C 49.277344 10.648438 49.304688 10.386719 49.179688 10.160156 C 49.078125 9.972656 48.855469 9.851562 48.617188 9.851562 Z M 52.570312 8.65625 C 52.570312 12.769531 49.222656 16.117188 45.109375 16.117188 C 40.996094 16.117188 37.648438 12.769531 37.648438 8.65625 C 37.648438 4.542969 40.996094 1.199219 45.109375 1.199219 C 49.222656 1.199219 52.570312 4.542969 52.570312 8.65625 Z M 49.707031 9.875 C 49.496094 9.492188 49.078125 9.253906 48.617188 9.253906 L 41.257812 9.253906 C 40.765625 9.253906 40.363281 9.65625 40.363281 10.148438 C 40.363281 10.644531 40.765625 11.042969 41.257812 11.042969 L 47.34375 11.042969 L 46.945312 11.496094 C 46.789062 11.675781 46.710938 11.90625 46.726562 12.148438 C 46.742188 12.386719 46.851562 12.601562 47.03125 12.761719 C 47.199219 12.910156 47.410156 12.980469 47.621094 12.980469 C 47.867188 12.980469 48.117188 12.878906 48.292969 12.675781 L 49.558594 11.234375 C 49.890625 10.851562 49.949219 10.320312 49.707031 9.875 Z M 49.851562 7.164062 C 49.851562 6.671875 49.453125 6.269531 48.957031 6.269531 L 42.875 6.269531 L 43.269531 5.816406 C 43.429688 5.636719 43.507812 5.40625 43.492188 5.167969 C 43.476562 4.929688 43.367188 4.710938 43.1875 4.554688 C 42.816406 4.230469 42.25 4.265625 41.925781 4.636719 L 40.660156 6.082031 C 40.328125 6.460938 40.269531 6.996094 40.511719 7.441406 C 40.71875 7.824219 41.136719 8.058594 41.601562 8.058594 L 48.957031 8.058594 C 49.453125 8.058594 49.851562 7.660156 49.851562 7.164062 Z M 49.851562 7.164062 " fill-opacity="1" fill-rule="nonzero"/></g></svg>