<svg xmlns="http://www.w3.org/2000/svg" xmlns:xlink="http://www.w3.org/1999/xlink" width="120" zoomAndPan="magnify" viewBox="0 0 90 30.000001" height="40" preserveAspectRatio="xMidYMid meet" version="1.0"><defs><clipPath id="063b530f96"><path d="M 15.132812 1.199219 L 41.988281 1.199219 L 41.988281 28.050781 L 15.132812 28.050781 Z M 15.132812 1.199219 " clip-rule="nonzero"/></clipPath></defs><g clip-path="url(#063b530f96)"><path fill="#000000" d="M 16.976562 5.695312 L 22.277344 3.625 C 21.34375 4.789062 20.726562 6.210938 20.554688 7.761719 L 16.027344 7.761719 L 16.027344 7.085938 C 16.027344 6.46875 16.402344 5.921875 16.976562 5.695312 Z M 40.144531 5.695312 L 34.84375 3.625 C 35.777344 4.789062 36.394531 6.210938 36.566406 7.761719 L 41.09375 7.761719 L 41.09375 7.085938 C 41.09375 6.46875 40.71875 5.921875 40.144531 5.695312 Z M 20.511719 8.359375 L 16.027344 8.359375 C 15.535156 8.359375 15.132812 8.761719 15.132812 9.253906 L 15.132812 9.851562 C 15.132812 10.34375 15.535156 10.746094 16.027344 10.746094 L 20.78125 10.746094 C 20.597656 10.082031 20.503906 9.378906 20.503906 8.65625 C 20.503906 8.558594 20.507812 8.457031 20.511719 8.359375 Z M 41.09375 8.359375 L 36.609375 8.359375 C 36.613281 8.457031 36.617188 8.558594 36.617188 8.65625 C 36.617188 9.378906 36.519531 10.082031 36.339844 10.746094 L 41.09375 10.746094 C 41.585938 10.746094 41.988281 10.34375 41.988281 9.851562 L 41.988281 9.253906 C 41.988281 8.761719 41.585938 8.359375 41.09375 8.359375 Z M 41.09375 25.664062 L 16.027344 25.664062 C 15.535156 25.664062 15.132812 26.066406 15.132812 26.558594 L 15.132812 27.15625 C 15.132812 27.652344 15.535156 28.050781 16.027344 28.050781 L 41.09375 28.050781 C 41.585938 28.050781 41.988281 27.652344 41.988281 27.15625 L 41.988281 26.558594 C 41.988281 26.066406 41.585938 25.664062 41.09375 25.664062 Z M 41.09375 24.769531 C 41.09375 24.277344 40.691406 23.875 40.199219 23.875 L 16.921875 23.875 C 16.429688 23.875 16.027344 24.277344 16.027344 24.769531 L 16.027344 25.070312 L 41.09375 25.070312 Z M 20.800781 22.382812 L 17.820312 22.382812 C 17.328125 22.382812 16.921875 22.785156 16.921875 23.277344 L 21.699219 23.277344 C 21.699219 22.785156 21.292969 22.382812 20.800781 22.382812 Z M 20.964844 11.34375 L 16.921875 11.34375 C 16.921875 11.835938 17.328125 12.238281 17.820312 12.238281 L 20.800781 12.238281 C 20.976562 12.238281 21.140625 12.1875 21.28125 12.101562 C 21.160156 11.851562 21.054688 11.601562 20.964844 11.34375 Z M 39.300781 22.382812 L 36.320312 22.382812 C 35.828125 22.382812 35.421875 22.785156 35.421875 23.277344 L 40.199219 23.277344 C 40.199219 22.785156 39.792969 22.382812 39.300781 22.382812 Z M 36.15625 11.34375 C 36.066406 11.601562 35.960938 11.851562 35.839844 12.101562 C 35.980469 12.1875 36.144531 12.238281 36.320312 12.238281 L 39.300781 12.238281 C 39.792969 12.238281 40.199219 11.835938 40.199219 11.34375 Z M 33.929688 22.382812 L 30.949219 22.382812 C 30.457031 22.382812 30.050781 22.785156 30.050781 23.277344 L 34.828125 23.277344 C 34.828125 22.785156 34.421875 22.382812 33.929688 22.382812 Z M 26.171875 22.382812 L 23.191406 22.382812 C 22.695312 22.382812 22.292969 22.785156 22.292969 23.277344 L 27.070312 23.277344 C 27.070312 22.785156 26.664062 22.382812 26.171875 22.382812 Z M 17.820312 12.835938 L 17.820312 21.785156 L 20.800781 21.785156 L 20.800781 12.835938 Z M 36.320312 12.835938 L 36.320312 21.785156 L 39.300781 21.785156 L 39.300781 12.835938 Z M 30.949219 16.351562 L 30.949219 21.785156 L 33.929688 21.785156 L 33.929688 14.652344 C 33.082031 15.417969 32.066406 16.003906 30.949219 16.351562 Z M 23.191406 14.652344 L 23.191406 21.785156 L 26.171875 21.785156 L 26.171875 16.351562 C 25.054688 16.003906 24.039062 15.417969 23.191406 14.652344 Z M 32.410156 6.867188 L 25.667969 6.867188 C 25.550781 6.867188 25.445312 6.796875 25.398438 6.691406 C 25.347656 6.585938 25.367188 6.460938 25.445312 6.371094 L 26.273438 5.421875 C 26.328125 5.363281 26.351562 5.285156 26.347656 5.207031 C 26.339844 5.128906 26.304688 5.054688 26.246094 5.003906 C 26.1875 4.953125 26.121094 4.929688 26.050781 4.929688 C 25.964844 4.929688 25.882812 4.964844 25.824219 5.03125 L 24.5625 6.472656 C 24.394531 6.667969 24.363281 6.929688 24.488281 7.15625 C 24.589844 7.34375 24.8125 7.464844 25.054688 7.464844 L 32.410156 7.464844 C 32.574219 7.464844 32.707031 7.328125 32.707031 7.164062 C 32.707031 7 32.574219 6.867188 32.410156 6.867188 Z M 32.066406 9.851562 L 24.710938 9.851562 C 24.546875 9.851562 24.414062 9.984375 24.414062 10.148438 C 24.414062 10.3125 24.546875 10.449219 24.710938 10.449219 L 31.453125 10.449219 C 31.570312 10.449219 31.675781 10.515625 31.722656 10.621094 C 31.773438 10.730469 31.753906 10.855469 31.675781 10.941406 L 30.847656 11.890625 C 30.792969 11.949219 30.769531 12.027344 30.773438 12.105469 C 30.78125 12.1875 30.816406 12.257812 30.875 12.3125 C 31 12.421875 31.1875 12.40625 31.296875 12.285156 L 32.558594 10.839844 C 32.726562 10.648438 32.757812 10.386719 32.632812 10.160156 C 32.53125 9.972656 32.308594 9.851562 32.066406 9.851562 Z M 36.019531 8.65625 C 36.019531 12.769531 32.671875 16.117188 28.558594 16.117188 C 24.445312 16.117188 21.101562 12.769531 21.101562 8.65625 C 21.101562 4.542969 24.445312 1.199219 28.558594 1.199219 C 32.671875 1.199219 36.019531 4.542969 36.019531 8.65625 Z M 33.15625 9.875 C 32.949219 9.492188 32.53125 9.253906 32.066406 9.253906 L 24.710938 9.253906 C 24.21875 9.253906 23.816406 9.65625 23.816406 10.148438 C 23.816406 10.644531 24.21875 11.042969 24.710938 11.042969 L 30.792969 11.042969 L 30.398438 11.496094 C 30.242188 11.675781 30.164062 11.90625 30.179688 12.148438 C 30.195312 12.386719 30.300781 12.601562 30.480469 12.761719 C 30.652344 12.910156 30.863281 12.980469 31.070312 12.980469 C 31.320312 12.980469 31.570312 12.878906 31.746094 12.675781 L 33.007812 11.234375 C 33.339844 10.851562 33.398438 10.320312 33.15625 9.875 Z M 33.304688 7.164062 C 33.304688 6.671875 32.902344 6.269531 32.410156 6.269531 L 26.328125 6.269531 L 26.722656 5.816406 C 26.878906 5.636719 26.957031 5.40625 26.941406 5.167969 C 26.925781 4.929688 26.820312 4.710938 26.636719 4.554688 C 26.265625 4.230469 25.699219 4.265625 25.375 4.636719 L 24.113281 6.082031 C 23.78125 6.460938 23.722656 6.996094 23.964844 7.441406 C 24.171875 7.824219 24.589844 8.058594 25.054688 8.058594 L 32.410156 8.058594 C 32.902344 8.058594 33.304688 7.660156 33.304688 7.164062 Z M 33.304688 7.164062 " fill-opacity="1" fill-rule="nonzero"/></g></svg>